<svg width="471" height="221" viewBox="0 0 471 221" fill="none" xmlns="http://www.w3.org/2000/svg">
<path d="M335.684 44H385.178C391.704 44 396.995 49.2908 396.995 55.8173V55.8173C396.995 62.3439 391.704 67.6347 385.178 67.6347H359.518C352.729 67.6347 347.225 73.1382 347.225 79.9272V79.9272C347.225 86.7162 352.729 92.2197 359.518 92.2197H420.643" stroke="#626262" stroke-width="1.5" stroke-linecap="round" stroke-linejoin="round"/>
<rect x="275" y="55" width="63.9233" height="19.2391" fill="#D3D3E1" stroke="#626262" stroke-width="1.5" stroke-linejoin="round"/>
<rect x="275" y="82.5103" width="63.9233" height="19.2391" fill="#D3D3E1" stroke="#626262" stroke-width="1.5" stroke-linejoin="round"/>
<path d="M322.553 90.5373H321.82C321.766 90.2645 321.667 90.0125 321.524 89.7813C321.384 89.5475 321.207 89.3435 320.994 89.1694C320.781 88.9954 320.539 88.8603 320.269 88.7642C319.999 88.668 319.707 88.62 319.392 88.62C318.888 88.62 318.428 88.7512 318.013 89.0136C317.6 89.276 317.268 89.6618 317.019 90.171C316.772 90.6776 316.649 91.2985 316.649 92.0338C316.649 92.7742 316.772 93.3977 317.019 93.9043C317.268 94.411 317.6 94.7955 318.013 95.0579C318.428 95.3177 318.888 95.4476 319.392 95.4476C319.707 95.4476 319.999 95.3995 320.269 95.3034C320.539 95.2073 320.781 95.0735 320.994 94.902C321.207 94.7279 321.384 94.524 321.524 94.2902C321.667 94.0563 321.766 93.803 321.82 93.5302H322.553C322.488 93.8965 322.366 94.2382 322.186 94.5551C322.01 94.8695 321.784 95.1449 321.508 95.3813C321.236 95.6177 320.921 95.8022 320.565 95.9347C320.209 96.0672 319.818 96.1334 319.392 96.1334C318.722 96.1334 318.127 95.9659 317.607 95.6307C317.088 95.293 316.68 94.8176 316.384 94.2044C316.09 93.5913 315.943 92.8677 315.943 92.0338C315.943 91.1998 316.09 90.4762 316.384 89.8631C316.68 89.25 317.088 88.7758 317.607 88.4407C318.127 88.103 318.722 87.9341 319.392 87.9341C319.818 87.9341 320.209 88.0003 320.565 88.1328C320.921 88.2627 321.236 88.4472 321.508 88.6862C321.784 88.9226 322.01 89.198 322.186 89.5124C322.366 89.8267 322.488 90.1684 322.553 90.5373Z" fill="#D3D3E1"/>
<path d="M304.135 96.0246V88.0435H306.828C307.347 88.0435 307.78 88.1344 308.125 88.3162C308.473 88.4981 308.735 88.7462 308.909 89.0606C309.083 89.3749 309.17 89.7322 309.17 90.1323C309.17 90.4648 309.114 90.7493 309.002 90.9857C308.89 91.2221 308.738 91.4131 308.546 91.5586C308.354 91.7041 308.14 91.8093 307.903 91.8742V91.9366C308.16 91.9548 308.41 92.0457 308.651 92.2094C308.893 92.3705 309.092 92.5965 309.248 92.8875C309.404 93.1785 309.482 93.5266 309.482 93.9319C309.482 94.3346 309.392 94.6944 309.213 95.0114C309.033 95.3257 308.758 95.5738 308.386 95.7557C308.018 95.935 307.547 96.0246 306.976 96.0246H304.135ZM304.864 95.3699H306.976C307.591 95.3699 308.046 95.2335 308.34 94.9607C308.636 94.6879 308.784 94.345 308.784 93.9319C308.784 93.6279 308.71 93.3525 308.562 93.1057C308.416 92.8563 308.21 92.6588 307.942 92.5134C307.677 92.3679 307.365 92.2951 307.007 92.2951H304.864V95.3699ZM304.864 91.6482H306.894C307.208 91.6482 307.484 91.5833 307.72 91.4534C307.956 91.3235 308.141 91.1442 308.273 90.9156C308.406 90.6869 308.472 90.4258 308.472 90.1323C308.472 89.7088 308.334 89.3646 308.059 89.0996C307.784 88.832 307.373 88.6982 306.828 88.6982H304.864V91.6482Z" fill="#D3D3E1"/>
<path d="M291.883 96.0246H291.119L294.022 88.0435H294.802L297.705 96.0246H296.941L294.439 88.9904H294.385L291.883 96.0246ZM292.432 92.9654H296.392V93.6201H292.432V92.9654Z" fill="#D3D3E1"/>
<rect x="406.074" y="83.3193" width="63.9233" height="19.2391" fill="#B4BCF6" stroke="#626262" stroke-width="1.5" stroke-linejoin="round"/>
<rect x="406.074" y="55.8091" width="63.9233" height="19.2391" fill="#D3D3E1" stroke="#626262" stroke-width="1.5" stroke-linejoin="round"/>
<path d="M335.684 15H391.603C394.581 15 396.995 17.4139 396.995 20.3916V20.3916C396.995 23.3693 394.581 25.7832 391.603 25.7832H352.834C349.736 25.7832 347.225 28.2942 347.225 31.3916V31.3916C347.225 34.489 349.736 37 352.834 37H420.643" stroke="#626262" stroke-width="1.5" stroke-linecap="round" stroke-linejoin="round"/>
<rect x="275" y="1" width="63.9233" height="19.2391" fill="#6878ED" stroke="#626262" stroke-width="1.5" stroke-linejoin="round"/>
<path d="M322.553 9.02705H321.82C321.766 8.75426 321.667 8.50225 321.524 8.27102C321.384 8.0372 321.207 7.83326 320.994 7.65919C320.781 7.48512 320.539 7.35002 320.269 7.2539C319.999 7.15777 319.707 7.10971 319.392 7.10971C318.888 7.10971 318.428 7.24091 318.013 7.50331C317.6 7.76571 317.268 8.15151 317.019 8.66073C316.772 9.16734 316.649 9.78827 316.649 10.5235C316.649 11.2639 316.772 11.8875 317.019 12.3941C317.268 12.9007 317.6 13.2852 318.013 13.5476C318.428 13.8074 318.888 13.9373 319.392 13.9373C319.707 13.9373 319.999 13.8893 320.269 13.7931C320.539 13.697 320.781 13.5632 320.994 13.3917C321.207 13.2177 321.384 13.0137 321.524 12.7799C321.667 12.5461 321.766 12.2928 321.82 12.02H322.553C322.488 12.3863 322.366 12.7279 322.186 13.0449C322.01 13.3593 321.784 13.6346 321.508 13.8711C321.236 14.1075 320.921 14.2919 320.565 14.4244C320.209 14.5569 319.818 14.6232 319.392 14.6232C318.722 14.6232 318.127 14.4556 317.607 14.1205C317.088 13.7827 316.68 13.3073 316.384 12.6942C316.09 12.081 315.943 11.3575 315.943 10.5235C315.943 9.68955 316.09 8.966 316.384 8.35286C316.68 7.73973 317.088 7.26559 317.607 6.93044C318.127 6.5927 318.722 6.42383 319.392 6.42383C319.818 6.42383 320.209 6.49008 320.565 6.62258C320.921 6.75248 321.236 6.93694 321.508 7.17596C321.784 7.41238 322.01 7.68777 322.186 8.00213C322.366 8.31649 322.488 8.65813 322.553 9.02705Z" fill="black"/>
<path d="M304.135 14.5138V6.53271H306.828C307.347 6.53271 307.78 6.62365 308.125 6.80551C308.473 6.98737 308.735 7.23548 308.909 7.54984C309.083 7.8642 309.17 8.22143 309.17 8.62153C309.17 8.95407 309.114 9.23856 309.002 9.47498C308.89 9.7114 308.738 9.90235 308.546 10.0478C308.354 10.1933 308.14 10.2986 307.903 10.3635V10.4259C308.16 10.444 308.41 10.535 308.651 10.6986C308.893 10.8597 309.092 11.0858 309.248 11.3767C309.404 11.6677 309.482 12.0158 309.482 12.4211C309.482 12.8238 309.392 13.1837 309.213 13.5006C309.033 13.815 308.758 14.0631 308.386 14.245C308.018 14.4242 307.547 14.5138 306.976 14.5138H304.135ZM304.864 13.8591H306.976C307.591 13.8591 308.046 13.7227 308.34 13.45C308.636 13.1772 308.784 12.8342 308.784 12.4211C308.784 12.1172 308.71 11.8418 308.562 11.595C308.416 11.3456 308.21 11.1481 307.942 11.0026C307.677 10.8571 307.365 10.7844 307.007 10.7844H304.864V13.8591ZM304.864 10.1375H306.894C307.208 10.1375 307.484 10.0725 307.72 9.94262C307.956 9.81272 308.141 9.63346 308.273 9.40483C308.406 9.17621 308.472 8.9151 308.472 8.62153C308.472 8.19805 308.334 7.85381 308.059 7.58881C307.784 7.32122 307.373 7.18742 306.828 7.18742H304.864V10.1375Z" fill="black"/>
<path d="M291.883 14.5138H291.119L294.022 6.53271H294.802L297.705 14.5138H296.941L294.439 7.4797H294.385L291.883 14.5138ZM292.432 11.4547H296.392V12.1094H292.432V11.4547Z" fill="black"/>
<rect x="275" y="28.5103" width="63.9233" height="19.2391" fill="#B4BCF6" stroke="#626262" stroke-width="1.5" stroke-linejoin="round"/>
<path d="M322.553 36.5373H321.82C321.766 36.2645 321.667 36.0125 321.524 35.7813C321.384 35.5475 321.207 35.3435 320.994 35.1694C320.781 34.9954 320.539 34.8603 320.269 34.7642C319.999 34.668 319.707 34.62 319.392 34.62C318.888 34.62 318.428 34.7512 318.013 35.0136C317.6 35.276 317.268 35.6618 317.019 36.171C316.772 36.6776 316.649 37.2985 316.649 38.0338C316.649 38.7742 316.772 39.3977 317.019 39.9043C317.268 40.411 317.6 40.7955 318.013 41.0579C318.428 41.3177 318.888 41.4476 319.392 41.4476C319.707 41.4476 319.999 41.3995 320.269 41.3034C320.539 41.2073 320.781 41.0735 320.994 40.902C321.207 40.7279 321.384 40.524 321.524 40.2902C321.667 40.0563 321.766 39.803 321.82 39.5302H322.553C322.488 39.8965 322.366 40.2382 322.186 40.5551C322.01 40.8695 321.784 41.1449 321.508 41.3813C321.236 41.6177 320.921 41.8022 320.565 41.9347C320.209 42.0672 319.818 42.1334 319.392 42.1334C318.722 42.1334 318.127 41.9659 317.607 41.6307C317.088 41.293 316.68 40.8176 316.384 40.2044C316.09 39.5913 315.943 38.8677 315.943 38.0338C315.943 37.1998 316.09 36.4762 316.384 35.8631C316.68 35.25 317.088 34.7758 317.607 34.4407C318.127 34.103 318.722 33.9341 319.392 33.9341C319.818 33.9341 320.209 34.0003 320.565 34.1328C320.921 34.2627 321.236 34.4472 321.508 34.6862C321.784 34.9226 322.01 35.198 322.186 35.5124C322.366 35.8267 322.488 36.1684 322.553 36.5373Z" fill="#B4BCF6"/>
<path d="M304.135 42.0246V34.0435H306.828C307.347 34.0435 307.78 34.1344 308.125 34.3162C308.473 34.4981 308.735 34.7462 308.909 35.0606C309.083 35.3749 309.17 35.7322 309.17 36.1323C309.17 36.4648 309.114 36.7493 309.002 36.9857C308.89 37.2221 308.738 37.4131 308.546 37.5586C308.354 37.7041 308.14 37.8093 307.903 37.8742V37.9366C308.16 37.9548 308.41 38.0457 308.651 38.2094C308.893 38.3705 309.092 38.5965 309.248 38.8875C309.404 39.1785 309.482 39.5266 309.482 39.9319C309.482 40.3346 309.392 40.6944 309.213 41.0114C309.033 41.3257 308.758 41.5738 308.386 41.7557C308.018 41.935 307.547 42.0246 306.976 42.0246H304.135ZM304.864 41.3699H306.976C307.591 41.3699 308.046 41.2335 308.34 40.9607C308.636 40.6879 308.784 40.345 308.784 39.9319C308.784 39.6279 308.71 39.3525 308.562 39.1057C308.416 38.8563 308.21 38.6588 307.942 38.5134C307.677 38.3679 307.365 38.2951 307.007 38.2951H304.864V41.3699ZM304.864 37.6482H306.894C307.208 37.6482 307.484 37.5833 307.72 37.4534C307.956 37.3235 308.141 37.1442 308.273 36.9156C308.406 36.6869 308.472 36.4258 308.472 36.1323C308.472 35.7088 308.334 35.3646 308.059 35.0996C307.784 34.832 307.373 34.6982 306.828 34.6982H304.864V37.6482Z" fill="#B4BCF6"/>
<path d="M291.883 42.0246H291.119L294.022 34.0435H294.802L297.705 42.0246H296.941L294.439 34.9904H294.385L291.883 42.0246ZM292.432 38.9654H296.392V39.6201H292.432V38.9654Z" fill="#B4BCF6"/>
<rect x="406.074" y="29.3193" width="63.9233" height="19.2391" fill="#6878ED" stroke="#626262" stroke-width="1.5" stroke-linejoin="round"/>
<path d="M438.584 43.9834C437.988 43.9834 437.456 43.8708 436.991 43.6456C436.525 43.4204 436.16 43.113 435.895 42.7234C435.63 42.3308 435.498 41.888 435.498 41.395C435.498 41.0085 435.579 40.6478 435.74 40.313C435.901 39.9752 436.123 39.6922 436.407 39.4639C436.69 39.2326 437.008 39.082 437.361 39.012V38.9618C436.901 38.8279 436.531 38.5646 436.251 38.172C435.971 37.7764 435.833 37.3275 435.836 36.8253C435.833 36.3597 435.952 35.9427 436.192 35.5745C436.432 35.2062 436.76 34.9156 437.173 34.7025C437.59 34.4865 438.061 34.3784 438.584 34.3784C439.104 34.3784 439.572 34.4865 439.986 34.7025C440.399 34.9156 440.727 35.2062 440.967 35.5745C441.211 35.9427 441.334 36.3597 441.337 36.8253C441.334 37.3244 441.192 37.7733 440.912 38.172C440.632 38.5677 440.264 38.8309 439.808 38.9618V39.012C440.161 39.079 440.477 39.2281 440.757 39.4594C441.037 39.6907 441.259 39.9752 441.424 40.313C441.588 40.6478 441.67 41.0085 441.67 41.395C441.67 41.888 441.536 42.3308 441.268 42.7234C441.004 43.113 440.638 43.4204 440.173 43.6456C439.71 43.8708 439.181 43.9834 438.584 43.9834ZM438.584 43.2165C439.028 43.2165 439.418 43.1373 439.753 42.9791C440.091 42.8178 440.354 42.5971 440.542 42.3171C440.734 42.0371 440.83 41.7161 440.83 41.3539C440.83 40.9796 440.731 40.6463 440.533 40.3541C440.336 40.0589 440.068 39.8261 439.73 39.6557C439.392 39.4822 439.01 39.3955 438.584 39.3955C438.158 39.3955 437.775 39.4822 437.434 39.6557C437.096 39.8261 436.828 40.0589 436.63 40.3541C436.435 40.6463 436.338 40.9796 436.338 41.3539C436.338 41.7161 436.431 42.0371 436.616 42.3171C436.805 42.5971 437.068 42.8178 437.406 42.9791C437.747 43.1373 438.14 43.2165 438.584 43.2165ZM438.584 38.665C438.949 38.665 439.276 38.5874 439.566 38.4322C439.855 38.277 440.083 38.0655 440.25 37.7977C440.421 37.5268 440.507 37.2194 440.511 36.8755C440.507 36.5347 440.422 36.2334 440.255 35.9716C440.087 35.7069 439.859 35.5014 439.57 35.3553C439.284 35.2062 438.955 35.1317 438.584 35.1317C438.213 35.1317 437.881 35.2062 437.589 35.3553C437.3 35.5014 437.071 35.7069 436.904 35.9716C436.74 36.2334 436.659 36.5347 436.662 36.8755C436.659 37.2194 436.741 37.5268 436.909 37.7977C437.079 38.0655 437.309 38.277 437.598 38.4322C437.89 38.5874 438.219 38.665 438.584 38.665Z" fill="black"/>
<path fill-rule="evenodd" clip-rule="evenodd" d="M426.256 34.2319C426.368 34.2319 426.472 34.2917 426.528 34.3887L431.83 43.5724C431.886 43.6694 431.886 43.7889 431.83 43.8859C431.774 43.9829 431.671 44.0427 431.559 44.0427H420.954C420.842 44.0427 420.739 43.9829 420.683 43.8859C420.627 43.7889 420.627 43.6694 420.683 43.5724L425.985 34.3887C426.041 34.2917 426.144 34.2319 426.256 34.2319ZM421.497 43.4156H431.015L426.256 35.1726L421.497 43.4156Z" fill="black"/>
<path fill-rule="evenodd" clip-rule="evenodd" d="M450.294 43.8955C452.828 43.8955 454.882 41.8413 454.882 39.3072C454.882 36.7731 452.828 34.7189 450.294 34.7189C447.759 34.7189 445.705 36.7731 445.705 39.3072C445.705 41.8413 447.759 43.8955 450.294 43.8955ZM450.294 44.5226C453.174 44.5226 455.509 42.1876 455.509 39.3072C455.509 36.4268 453.174 34.0918 450.294 34.0918C447.413 34.0918 445.078 36.4268 445.078 39.3072C445.078 42.1876 447.413 44.5226 450.294 44.5226Z" fill="black"/>
<rect x="406.074" y="1.80908" width="63.9233" height="19.2391" fill="#D3D3E1" stroke="#626262" stroke-width="1.5" stroke-linejoin="round"/>
<path d="M294.26 42H291.703V33.2727H294.413C295.245 33.2727 295.957 33.446 296.548 33.7926C297.142 34.1392 297.596 34.6364 297.912 35.2841C298.227 35.9318 298.385 36.7088 298.385 37.6151C298.385 38.5298 298.223 39.3153 297.899 39.9716C297.578 40.625 297.109 41.1264 296.493 41.4759C295.879 41.8253 295.135 42 294.26 42ZM292.5 41.2841H294.213C294.963 41.2841 295.591 41.1364 296.096 40.8409C296.602 40.5455 296.981 40.1236 297.234 39.5753C297.487 39.027 297.613 38.3736 297.613 37.6151C297.61 36.8622 297.485 36.2145 297.238 35.6719C296.994 35.1293 296.63 34.7131 296.147 34.4233C295.667 34.1335 295.073 33.9886 294.366 33.9886H292.5V41.2841ZM305.476 42V33.2727H310.539V33.9886H306.273V37.2741H310.27V37.9901H306.273V41.2841H310.624V42H305.476ZM317.761 42V33.2727H322.811V33.9886H318.558V37.2741H322.414V37.9901H318.558V42H317.761Z" fill="black"/>
<path d="M449.605 97.8464L453.581 89.8904V89.835H449V89.1191H454.416V89.8691L450.445 97.8464H449.605Z" fill="black"/>
<path d="M438.838 97.9659C438.301 97.9659 437.821 97.8693 437.398 97.6761C436.974 97.4801 436.639 97.2088 436.392 96.8622C436.145 96.5156 436.014 96.1165 436 95.6648H436.805C436.82 95.983 436.918 96.2614 437.099 96.5C437.281 96.7358 437.523 96.9205 437.824 97.054C438.125 97.1847 438.46 97.25 438.83 97.25C439.233 97.25 439.588 97.1747 439.895 97.0241C440.205 96.8736 440.446 96.6676 440.619 96.4062C440.795 96.142 440.884 95.8438 440.884 95.5114C440.884 95.1591 440.794 94.848 440.615 94.5781C440.436 94.3082 440.179 94.098 439.844 93.9474C439.511 93.7969 439.114 93.7216 438.651 93.7216H438.139V93.0057H438.651C439.028 93.0057 439.362 92.9375 439.652 92.8011C439.945 92.6619 440.175 92.4673 440.342 92.2173C440.51 91.9673 440.594 91.6733 440.594 91.3352C440.594 91.0142 440.521 90.7315 440.376 90.4872C440.232 90.2429 440.027 90.0511 439.763 89.9119C439.501 89.7727 439.196 89.7031 438.847 89.7031C438.509 89.7031 438.199 89.7685 437.918 89.8991C437.636 90.0298 437.409 90.2145 437.236 90.4531C437.065 90.6918 436.974 90.9744 436.963 91.3011H436.192C436.203 90.8466 436.328 90.4474 436.567 90.1037C436.808 89.7571 437.128 89.4872 437.526 89.294C437.926 89.098 438.369 89 438.855 89C439.369 89 439.814 89.1051 440.189 89.3153C440.564 89.5256 440.854 89.8054 441.058 90.1548C441.266 90.5014 441.369 90.8835 441.369 91.3011C441.369 91.7983 441.234 92.2244 440.964 92.5795C440.695 92.9318 440.331 93.1761 439.874 93.3125V93.3679C440.43 93.4787 440.868 93.7259 441.186 94.1094C441.507 94.4901 441.668 94.9574 441.668 95.5114C441.668 95.9773 441.545 96.3963 441.301 96.7685C441.057 97.1378 440.722 97.4304 440.295 97.6463C439.872 97.8594 439.386 97.9659 438.838 97.9659Z" fill="black"/>
<path d="M428.15 97.6354C426.022 97.4577 424.35 95.6741 424.35 93.5C424.35 91.3259 426.022 89.5423 428.15 89.3646V97.6354Z" stroke="black" stroke-width="0.7"/>
<path d="M390.375 129.281L384.593 132.285C383.345 131.55 382.041 130.94 380.701 130.451L379.491 124.472C379.293 123.493 378.458 122.772 377.462 122.719L370.173 122.328C369.176 122.275 368.269 122.902 367.967 123.855L366.052 129.911C365 130.208 363.967 130.582 362.956 131.029L357.65 127.509C356.819 126.956 355.718 127.037 354.976 127.704L349.546 132.583C348.803 133.25 348.606 134.335 349.067 135.221L352.001 140.87C351.357 141.989 350.812 143.149 350.364 144.341L344.137 145.6C343.158 145.799 342.438 146.633 342.384 147.631L341.995 154.92C341.942 155.916 342.57 156.823 343.522 157.124L349.699 159.078C350.022 160.248 350.435 161.399 350.942 162.52L347.341 167.947C346.789 168.779 346.87 169.879 347.537 170.621L352.416 176.051C353.083 176.794 354.169 176.992 355.054 176.53L361.004 173.44C361.806 173.886 362.626 174.288 363.467 174.634L364.881 181.624C365.079 182.602 365.914 183.322 366.911 183.376L374.2 183.765C374.796 183.797 375.36 183.586 375.781 183.207C376.064 182.953 376.284 182.622 376.405 182.239L378.479 175.681C379.683 175.372 380.869 174.966 382.024 174.464L387.735 178.252C388.566 178.804 389.666 178.723 390.409 178.057L395.838 173.178C396.58 172.511 396.778 171.425 396.318 170.54L393.159 164.458C393.69 163.523 394.157 162.561 394.552 161.573L401.293 160.21C401.686 160.13 402.038 159.948 402.321 159.693C402.742 159.315 403.012 158.777 403.044 158.181L403.434 150.891C403.488 149.894 402.859 148.988 401.908 148.686L395.472 146.651C395.187 145.566 394.823 144.496 394.38 143.451L398.088 137.863C398.64 137.031 398.559 135.931 397.892 135.189L393.013 129.759C392.346 129.019 391.26 128.82 390.375 129.281Z" fill="#6878ED" stroke="#626262" stroke-width="1.5"/>
<path d="M372.692 172.594C383.597 172.594 392.438 163.753 392.438 152.848C392.438 141.942 383.597 133.101 372.692 133.101C361.786 133.101 352.945 141.942 352.945 152.848C352.945 163.753 361.786 172.594 372.692 172.594Z" fill="#9AEAE8" stroke="#626262" stroke-width="1.5"/>
<path d="M358.977 166.023C358.977 166.023 360.597 162.672 360.925 155.762C361.102 152.071 361.094 150.488 360.809 147.026C360.659 145.18 360.654 142.369 361.744 141.869C364.393 140.651 366.832 146.557 371.5 145.855C375.222 145.298 374.318 138.933 376.824 138.562C380.374 138.036 387.61 153.004 388.624 163.493C388.624 163.493 384.262 170.663 375.246 171.753C367.424 172.7 362.058 169.206 358.977 166.023Z" fill="white"/>
<path d="M366.357 161.834C366.728 161.824 367.093 161.742 367.431 161.592C367.77 161.442 368.076 161.226 368.331 160.958C368.586 160.689 368.786 160.373 368.919 160.027C369.052 159.682 369.116 159.313 369.107 158.943C369.087 158.195 368.771 157.485 368.229 156.97C367.686 156.455 366.961 156.177 366.213 156.196C365.466 156.215 364.757 156.531 364.242 157.073C363.727 157.615 363.448 158.339 363.466 159.087C363.486 159.834 363.801 160.544 364.343 161.059C364.885 161.574 365.61 161.853 366.357 161.834Z" fill="#FF3F54"/>
<path d="M381.125 159.04C381.873 159.021 382.582 158.705 383.097 158.163C383.612 157.621 383.891 156.897 383.872 156.15C383.863 155.779 383.781 155.415 383.63 155.076C383.48 154.738 383.264 154.432 382.996 154.177C382.727 153.922 382.411 153.723 382.066 153.59C381.72 153.457 381.352 153.393 380.981 153.403C380.611 153.412 380.246 153.494 379.907 153.644C379.569 153.794 379.263 154.01 379.008 154.278C378.752 154.547 378.552 154.863 378.419 155.209C378.286 155.555 378.223 155.923 378.232 156.294C378.252 157.041 378.568 157.751 379.11 158.266C379.653 158.781 380.377 159.06 381.125 159.04Z" fill="#FF3F54"/>
<path d="M358.781 167.181C358.679 167.181 358.578 167.159 358.485 167.117C358.4 167.078 358.322 167.022 358.258 166.953C358.194 166.884 358.144 166.803 358.111 166.714C358.078 166.626 358.063 166.532 358.067 166.437C358.071 166.343 358.093 166.251 358.133 166.165C358.155 166.117 359.799 162.403 360.12 155.747C360.289 152.178 360.294 150.612 360.006 147.104C359.728 143.751 360.182 141.776 361.353 141.239C362.985 140.489 364.465 141.698 365.898 142.869C367.478 144.161 369.11 145.486 371.3 145.17C372.792 144.946 373.339 143.549 374.003 141.441C374.522 139.804 375.055 138.109 376.62 137.871C377.308 137.769 378.065 138.036 378.869 138.664C382.715 141.672 388.409 153.927 389.328 163.412C389.337 163.505 389.327 163.6 389.3 163.689C389.273 163.779 389.228 163.863 389.168 163.935C389.109 164.008 389.035 164.068 388.952 164.112C388.869 164.156 388.779 164.183 388.685 164.192C388.497 164.21 388.309 164.153 388.163 164.032C388.017 163.912 387.925 163.738 387.907 163.55C387.043 154.629 381.589 142.609 377.991 139.787C377.515 139.418 377.106 139.24 376.828 139.28C376.14 139.382 375.761 140.589 375.357 141.864C374.748 143.797 373.989 146.202 371.507 146.574C368.692 146.995 366.636 145.317 364.987 143.956C363.609 142.828 362.724 142.157 361.941 142.528C361.61 142.678 361.177 144.023 361.422 146.978C361.717 150.564 361.71 152.166 361.539 155.807C361.208 162.774 359.497 166.591 359.423 166.753C359.368 166.878 359.279 166.985 359.165 167.061C359.051 167.137 358.917 167.179 358.781 167.181Z" fill="#434343"/>
<path d="M362.711 160.77C362.641 160.772 362.572 160.753 362.513 160.716C362.454 160.679 362.406 160.626 362.377 160.562C362.357 160.519 362.345 160.473 362.343 160.425C362.341 160.377 362.348 160.33 362.364 160.285C362.381 160.24 362.406 160.199 362.438 160.165C362.471 160.13 362.51 160.101 362.553 160.082L365.327 158.821L362.362 158.299C362.316 158.291 362.272 158.273 362.232 158.248C362.193 158.223 362.159 158.19 362.132 158.152C362.105 158.113 362.086 158.07 362.076 158.024C362.066 157.978 362.065 157.931 362.073 157.885C362.081 157.839 362.098 157.794 362.123 157.755C362.148 157.715 362.181 157.681 362.22 157.654C362.258 157.627 362.302 157.608 362.348 157.598C362.393 157.588 362.441 157.587 362.487 157.596L366.571 158.318C366.646 158.331 366.715 158.368 366.768 158.423C366.821 158.478 366.855 158.549 366.865 158.624C366.874 158.7 366.859 158.776 366.822 158.842C366.785 158.909 366.729 158.962 366.66 158.994L362.846 160.757C362.802 160.77 362.756 160.775 362.711 160.77Z" fill="#434343"/>
<path d="M384.685 156.738L384.666 156.739L380.471 156.622C380.395 156.619 380.322 156.593 380.263 156.546C380.203 156.499 380.159 156.434 380.138 156.361C380.118 156.288 380.121 156.21 380.148 156.139C380.175 156.067 380.224 156.006 380.288 155.965L383.763 153.7C383.802 153.675 383.846 153.657 383.892 153.648C383.938 153.639 383.986 153.64 384.032 153.649C384.078 153.659 384.122 153.678 384.16 153.704C384.199 153.731 384.232 153.765 384.258 153.804C384.309 153.884 384.327 153.98 384.308 154.072C384.288 154.165 384.233 154.246 384.154 154.298L381.635 155.94L384.686 156.024C384.781 156.027 384.87 156.067 384.935 156.136C385 156.205 385.035 156.297 385.033 156.391C385.03 156.482 384.992 156.569 384.928 156.634C384.863 156.698 384.776 156.735 384.685 156.738Z" fill="#434343"/>
<path d="M373.432 159.638C372.848 159.662 372.273 159.492 371.796 159.155C371.32 158.817 370.968 158.331 370.798 157.772C370.778 157.713 370.77 157.65 370.775 157.588C370.779 157.525 370.796 157.464 370.824 157.408C370.852 157.352 370.891 157.303 370.938 157.262C370.986 157.221 371.041 157.19 371.1 157.17C371.159 157.15 371.222 157.142 371.284 157.147C371.347 157.151 371.408 157.168 371.464 157.196C371.52 157.224 371.569 157.263 371.61 157.311C371.651 157.358 371.682 157.413 371.702 157.472C372.014 158.424 372.835 158.838 373.956 158.636C375.076 158.434 375.676 157.748 375.655 156.746C375.655 156.62 375.705 156.499 375.794 156.41C375.883 156.321 376.004 156.271 376.13 156.271C376.257 156.271 376.378 156.321 376.467 156.41C376.556 156.499 376.606 156.62 376.606 156.746C376.637 158.217 375.685 159.309 374.124 159.602C373.895 159.634 373.663 159.646 373.432 159.638Z" fill="#434343"/>
<path d="M365.579 154.448C365.544 154.452 365.509 154.452 365.474 154.448C365.351 154.42 365.244 154.345 365.177 154.238C365.11 154.131 365.087 154.002 365.115 153.879C365.353 152.858 366.655 151.278 368.266 151.024C369.877 150.769 371.521 151.976 371.792 152.899C371.828 153.02 371.813 153.15 371.753 153.261C371.692 153.372 371.59 153.454 371.469 153.489C371.348 153.524 371.218 153.511 371.107 153.45C370.997 153.39 370.914 153.289 370.879 153.168C370.745 152.713 369.579 151.778 368.416 151.964C367.252 152.149 366.207 153.361 366.036 154.091C366.01 154.193 365.951 154.283 365.868 154.347C365.786 154.412 365.684 154.447 365.579 154.448Z" fill="#434343"/>
<path d="M374.856 152.866C374.812 152.866 374.768 152.859 374.725 152.847C374.665 152.83 374.609 152.801 374.56 152.763C374.511 152.724 374.47 152.676 374.439 152.621C374.409 152.567 374.389 152.507 374.382 152.445C374.375 152.383 374.38 152.32 374.397 152.259C374.635 151.396 375.499 149.861 377.16 149.597C378.671 149.359 380.41 150.37 380.898 151.405C380.924 151.462 380.939 151.524 380.941 151.587C380.943 151.65 380.933 151.712 380.911 151.771C380.889 151.83 380.855 151.884 380.812 151.93C380.769 151.976 380.717 152.012 380.66 152.038C380.603 152.065 380.541 152.08 380.478 152.082C380.415 152.085 380.352 152.074 380.293 152.052C380.233 152.03 380.179 151.996 380.133 151.953C380.087 151.91 380.05 151.858 380.025 151.8C379.73 151.177 378.426 150.349 377.298 150.527C376.108 150.717 375.473 151.907 375.301 152.509C375.276 152.609 375.218 152.697 375.138 152.762C375.058 152.826 374.959 152.863 374.856 152.866Z" fill="#434343"/>
<path d="M386.622 146.461L386.789 147.53C387.022 149.01 386.01 150.399 384.529 150.631L383.144 150.848L382.135 144.418L383.52 144.201C385.001 143.969 386.389 144.981 386.622 146.461Z" fill="#434343"/>
<path fill-rule="evenodd" clip-rule="evenodd" d="M383.572 144.536C384.867 144.333 386.082 145.218 386.285 146.514L386.453 147.582C386.656 148.878 385.771 150.093 384.475 150.296L383.425 150.461L382.521 144.701L383.572 144.536ZM386.956 146.408C386.694 144.743 385.132 143.604 383.467 143.866L381.746 144.136L382.86 151.236L384.58 150.966C386.246 150.705 387.385 149.143 387.123 147.477L386.956 146.408Z" fill="#434343"/>
<path d="M358.013 152.657L357.816 151.403C357.584 149.922 358.596 148.534 360.076 148.301L361.462 148.084L362.5 154.7L361.114 154.917C359.634 155.15 358.245 154.138 358.013 152.657Z" fill="#434343"/>
<path fill-rule="evenodd" clip-rule="evenodd" d="M361.061 154.582C359.766 154.785 358.551 153.9 358.347 152.604L358.151 151.35C357.947 150.054 358.833 148.839 360.128 148.636L361.179 148.471L362.112 154.417L361.061 154.582ZM357.677 152.709C357.939 154.375 359.501 155.513 361.166 155.252L362.887 154.982L361.744 147.696L360.023 147.966C358.358 148.227 357.219 149.789 357.48 151.455L357.677 152.709Z" fill="#434343"/>
<path d="M368.571 141.898L371.87 141.324C373.095 141.111 374.26 141.932 374.473 143.156L366.739 144.501C366.526 143.276 367.346 142.111 368.571 141.898Z" fill="#434343"/>
<path fill-rule="evenodd" clip-rule="evenodd" d="M367.046 144.104C367.051 143.196 367.705 142.394 368.631 142.233L371.93 141.659C372.856 141.498 373.742 142.033 374.053 142.886L367.046 144.104ZM368.515 141.564C367.105 141.809 366.161 143.15 366.406 144.559L366.464 144.894L374.867 143.433L374.809 143.099C374.564 141.69 373.223 140.746 371.814 140.991L368.515 141.564Z" fill="#434343"/>
<path fill-rule="evenodd" clip-rule="evenodd" d="M370.262 141.577C370.151 141.596 370.046 141.521 370.027 141.41L369.686 139.373C369.175 139.362 368.727 138.989 368.64 138.467C368.541 137.876 368.94 137.316 369.531 137.217C370.122 137.118 370.682 137.517 370.781 138.108C370.869 138.631 370.567 139.129 370.087 139.306L370.429 141.343C370.447 141.454 370.372 141.559 370.262 141.577Z" fill="#434343"/>
<path d="M360.277 149.052C360.017 147.576 361.003 146.169 362.479 145.909L379.653 142.89C381.129 142.63 382.536 143.616 382.796 145.092L383.694 150.198C383.953 151.674 382.967 153.081 381.491 153.341L364.317 156.361C362.841 156.62 361.434 155.634 361.174 154.158L360.277 149.052Z" fill="#FADB28"/>
<path fill-rule="evenodd" clip-rule="evenodd" d="M359.275 149.228C358.918 147.199 360.274 145.264 362.304 144.907L379.478 141.887C381.507 141.53 383.442 142.886 383.799 144.916L384.697 150.022C385.054 152.052 383.698 153.986 381.668 154.343L364.494 157.363C362.464 157.72 360.53 156.364 360.173 154.334L359.275 149.228ZM362.656 146.912C361.734 147.074 361.117 147.953 361.28 148.876L362.177 153.982C362.34 154.904 363.219 155.521 364.141 155.358L381.316 152.339C382.238 152.176 382.854 151.297 382.692 150.374L381.794 145.268C381.632 144.346 380.753 143.73 379.83 143.892L362.656 146.912Z" fill="#434343"/>
<path d="M379.924 148.724C379.924 150.251 378.686 151.489 377.159 151.489C375.632 151.489 374.395 150.251 374.395 148.724C374.395 147.198 375.632 145.96 377.159 145.96C378.686 145.96 379.924 147.198 379.924 148.724Z" fill="white"/>
<path fill-rule="evenodd" clip-rule="evenodd" d="M377.159 150.403C378.086 150.403 378.838 149.652 378.838 148.724C378.838 147.797 378.086 147.045 377.159 147.045C376.232 147.045 375.48 147.797 375.48 148.724C375.48 149.652 376.232 150.403 377.159 150.403ZM377.159 151.489C378.686 151.489 379.924 150.251 379.924 148.724C379.924 147.198 378.686 145.96 377.159 145.96C375.632 145.96 374.395 147.198 374.395 148.724C374.395 150.251 375.632 151.489 377.159 151.489Z" fill="#434343"/>
<path d="M369.781 150.624C369.781 152.151 368.543 153.388 367.016 153.388C365.49 153.388 364.252 152.151 364.252 150.624C364.252 149.097 365.49 147.859 367.016 147.859C368.543 147.859 369.781 149.097 369.781 150.624Z" fill="white"/>
<path fill-rule="evenodd" clip-rule="evenodd" d="M367.016 152.303C367.944 152.303 368.695 151.551 368.695 150.624C368.695 149.697 367.944 148.945 367.016 148.945C366.089 148.945 365.337 149.697 365.337 150.624C365.337 151.551 366.089 152.303 367.016 152.303ZM367.016 153.388C368.543 153.388 369.781 152.151 369.781 150.624C369.781 149.097 368.543 147.859 367.016 147.859C365.49 147.859 364.252 149.097 364.252 150.624C364.252 152.151 365.49 153.388 367.016 153.388Z" fill="#434343"/>
<path d="M353.729 181.197C340.918 174.307 334.265 159.049 337.943 144.931M349.698 184.124C335.829 176.137 328.923 159.544 333.313 144.688" stroke="#626262" stroke-width="1.5" stroke-linecap="round"/>
<path d="M392.617 125.154C402.544 131.399 408.631 142.962 407.645 154.97M392.838 120C405.854 126.457 413.864 140.479 412.169 154.655" stroke="#626262" stroke-width="1.5" stroke-linecap="round"/>
<path d="M183.211 84.8296C182.406 89.6596 191.717 86.8958 192.289 91.6197C192.997 97.4589 193.78 104.783 189.273 112.857C177.707 133.574 162.241 135.695 162.241 135.695L149.657 173.914C198.13 171.584 208.243 112.734 207.45 104.001C215.375 105.399 227.716 84.807 214.039 84.8296C213.951 81.214 214.376 77.0067 210.714 79.362C212.68 76.4538 213.429 65.2476 208.604 64.1203C202.793 62.7629 201.614 75.7728 199.408 79.362C194.62 90.2214 184.143 79.2365 183.211 84.8296Z" fill="white"/>
<path d="M160.661 4.00181C169.367 3.76673 179.387 26.4332 183.308 37.7958C196.128 70.1121 184.77 102.346 174.005 120.41C167.841 130.753 156.728 150.078 154.194 174.423C151.858 196.862 161.685 200.135 159.345 216.497C157.005 232.858 108.814 198.038 62.961 215.562C17.1083 233.085 -1.30303 201.84 8.60428 177.38C18.5116 152.919 30.6851 139.621 60.1532 112.716C87.2905 87.9396 95.9563 73.3529 98.0151 63.0678C100.074 52.7827 95.074 33.9756 95.9563 23.3966C96.8387 12.8176 107.133 18.9887 112.133 23.3966C117.133 27.8045 132.426 35.151 139.191 33.9756C145.956 32.8002 147.426 27.5107 149.779 21.6335C152.132 15.7562 149.779 4.29568 160.661 4.00181Z" fill="white"/>
<path d="M132.372 158.725C117.273 156.407 109.483 172.197 114.632 185.655C118.577 195.965 127.305 209.961 132.772 210.256C140.293 210.661 145.665 193.79 145.593 188.405C145.47 179.108 147.471 161.043 132.372 158.725Z" fill="#B4BCF6"/>
<path d="M25.7462 139.556C12.5141 155.726 4.08589 173.873 1 192.573M152.956 204C148.633 183.036 147.904 168.174 152.956 154.788L166.441 125.495C172.369 113.92 179.231 100.532 181.651 87.1212C184.997 68.5789 185.426 54.6595 178.543 33.5152C176.385 26.8863 173.535 20.1231 169.876 13.2216C161.506 -2.56637 151.245 -4.08683 147.308 14.738C143.623 32.3593 135.212 32.9493 121.981 27.4105C116.717 25.207 105.06 16.2459 105.06 16.2459C99.4508 12.7148 92.0892 14.738 93.6782 25.745M93.6782 29.939C98.1384 69.0829 88.8047 76.3426 80.1521 87.1212C72.7841 96.2996 42.1204 123.905 30.2019 134.323" stroke="#626262" stroke-width="1.5" stroke-linecap="round"/>
<circle cx="124.097" cy="78.8998" r="12.9207" transform="rotate(-3.44294 124.097 78.8998)" fill="#FF3F54"/>
<path d="M106.983 87.0227L125.961 78.4089" stroke="#626262" stroke-width="1.5" stroke-linecap="round"/>
<path d="M105.152 75.8877L125.85 78.3231" stroke="#626262" stroke-width="1.5" stroke-linecap="round"/>
<circle cx="9.21992" cy="9.21992" r="9.21992" transform="matrix(-0.999967 0.00809726 0.00809726 0.999967 195.652 65.3696)" fill="#FF3F54"/>
<path d="M199.255 76.1679L184.43 74.9883" stroke="#2F3744" stroke-width="1.5" stroke-linecap="round"/>
<path d="M201.021 66.0615L184.612 74.6381" stroke="#626262" stroke-width="1.5" stroke-linecap="round"/>
<ellipse cx="149" cy="60.5" rx="2" ry="2.5" fill="#626262"/>
<path d="M155.25 59C155.25 64.6298 150.469 69.25 144.5 69.25C138.531 69.25 133.75 64.6298 133.75 59C133.75 53.3702 138.531 48.75 144.5 48.75C150.469 48.75 155.25 53.3702 155.25 59Z" stroke="#626262" stroke-width="1.5"/>
<path d="M131.893 47.4712C133.798 41.5943 140.106 38.3743 145.983 40.2793" stroke="#626262" stroke-width="1.5" stroke-linecap="round"/>
<path d="M168.768 40.1463C174.118 37.0573 180.959 38.8905 184.048 44.2407" stroke="#626262" stroke-width="1.5" stroke-linecap="round"/>
<path d="M183.25 59C183.25 64.6298 178.469 69.25 172.5 69.25C166.531 69.25 161.75 64.6298 161.75 59C161.75 53.3702 166.531 48.75 172.5 48.75C178.469 48.75 183.25 53.3702 183.25 59Z" stroke="#626262" stroke-width="1.5"/>
<ellipse cx="176.5" cy="60" rx="2.5" ry="2" fill="#626262"/>
<path d="M94.0209 129C93.3165 136.03 110.492 197.279 136 214" stroke="#626262" stroke-width="1.5" stroke-linecap="round"/>
<path d="M58.7859 166.1C60.5749 170.764 72.0545 189.987 88.5995 203.471" stroke="#626262" stroke-width="1.5" stroke-linecap="round"/>
<path d="M181.816 86.7549C183.115 91.1202 190.69 88.9268 190.994 93.7658C191.368 99.7474 190.028 105.503 184.98 113.454C179.445 122.172 172.828 126.709 165.968 128.95M205.079 85.7276C203.843 86.7405 200.446 89.3643 202.838 91.8617C204.733 93.8406 208.316 91.7492 210.322 90.1452C209.552 90.7363 207.265 93.1723 208.387 95.4934C210.563 99.9938 216.824 94.2014 216.651 91.1202C216.512 88.6553 213.969 87.8994 212.715 87.8296C212.715 80.6959 210.532 81.5695 206.679 83.7527C208.845 80.9084 212.842 65.1524 207.452 64.3826C204.19 63.9166 200.927 69.9758 203.723 74.6367" stroke="#626262" stroke-width="1.5" stroke-linecap="round"/>
<path fill-rule="evenodd" clip-rule="evenodd" d="M131.015 75.4012C130.908 74.7014 131.386 74.0467 132.084 73.9389L135.961 73.3403C136.659 73.2326 137.312 73.7126 137.419 74.4124C137.526 75.1123 137.048 75.767 136.35 75.8748L132.473 76.4733C131.775 76.5811 131.123 76.1011 131.015 75.4012Z" fill="url(#paint0_linear_4719_1782)"/>
<path fill-rule="evenodd" clip-rule="evenodd" d="M199.581 64.8143C199.474 64.1144 199.952 63.4597 200.65 63.352L204.527 62.7534C205.225 62.6456 205.877 63.1256 205.985 63.8255C206.092 64.5253 205.614 65.18 204.916 65.2878L201.039 65.8864C200.341 65.9941 199.688 65.5141 199.581 64.8143Z" fill="url(#paint1_linear_4719_1782)"/>
<path fill-rule="evenodd" clip-rule="evenodd" d="M147.629 64.6904C141.049 65.7064 136.507 72.0183 137.554 78.8401C138.602 85.6619 144.826 90.3115 151.406 89.2955C157.986 88.2795 162.528 81.9676 161.48 75.1457C160.433 68.3239 154.209 63.6743 147.629 64.6904ZM135.027 79.2303C133.773 71.0634 139.21 63.3958 147.24 62.1559C155.269 60.9161 162.754 66.5886 164.008 74.7555C165.261 82.9225 159.825 90.5901 151.795 91.8299C143.765 93.0697 136.281 87.3972 135.027 79.2303Z" fill="url(#paint2_linear_4719_1782)"/>
<path fill-rule="evenodd" clip-rule="evenodd" d="M186.396 58.7045C179.815 59.7205 175.274 66.0324 176.321 72.8543C177.368 79.6761 183.593 84.3257 190.173 83.3096C196.753 82.2936 201.295 75.9817 200.247 69.1599C199.2 62.3381 192.976 57.6885 186.396 58.7045ZM173.794 73.2445C172.54 65.0775 177.977 57.4099 186.006 56.1701C194.036 54.9303 201.521 60.6028 202.774 68.7697C204.028 76.9366 198.592 84.6042 190.562 85.8441C182.532 87.0839 175.048 81.4114 173.794 73.2445Z" fill="url(#paint3_linear_4719_1782)"/>
<path fill-rule="evenodd" clip-rule="evenodd" d="M163.904 71.3994C163.828 71.9454 163.403 72.4 162.832 72.4882C162.134 72.596 161.481 72.116 161.374 71.4161C161.241 70.5492 161.753 69.9052 162.117 69.5626C162.518 69.1855 163.05 68.8714 163.609 68.6109C164.745 68.0822 166.283 67.644 167.963 67.3846C169.642 67.1253 171.241 67.0793 172.482 67.2408C173.094 67.3205 173.695 67.4598 174.191 67.6983C174.641 67.9151 175.322 68.375 175.455 69.2419C175.563 69.9417 175.084 70.5964 174.386 70.7042C173.815 70.7924 173.274 70.4868 173.038 69.9891C172.875 69.9206 172.588 69.8403 172.153 69.7838C171.211 69.6612 169.863 69.6857 168.352 69.9191C166.841 70.1524 165.548 70.5356 164.686 70.9368C164.288 71.1218 164.038 71.2851 163.904 71.3994ZM163.813 71.4896C163.813 71.4896 163.816 71.4847 163.825 71.4747C163.818 71.4845 163.813 71.4896 163.813 71.4896ZM173.151 70.0477C173.151 70.0477 173.145 70.0444 173.136 70.037C173.147 70.0439 173.151 70.0477 173.151 70.0477Z" fill="url(#paint4_linear_4719_1782)"/>
<path d="M204 104C200.106 124.812 194.252 156.262 158 169.736C157.022 170.099 156.022 170.45 155 170.786" stroke="#626262" stroke-width="1.5" stroke-linecap="round"/>
<path d="M170 205.948C170.004 197.425 177.5 198.932 185.819 198.932H261.918C264.542 198.932 266.848 197.202 267.57 194.693L295.447 97.7752C295.83 96.4418 296.678 95.2873 297.838 94.5179L302.01 91.7511C303.242 90.9342 304.799 90.773 306.173 91.3199C308.278 92.1573 309.427 94.4222 308.853 96.6035L280.197 205.595C280.006 206.321 279.347 206.827 278.592 206.827C277.676 206.827 276.933 207.566 276.933 208.477V210.775C276.933 212.955 275.157 214.722 272.965 214.722C250.739 214.722 229.365 214.722 207 214.722C181.5 214.722 170 216 170 205.948Z" fill="#ECEEFD"/>
<ellipse cx="269.5" cy="208" rx="1.5" ry="2" fill="#626262"/>
<rect x="268.73" y="203.712" width="120.711" height="7.03169" rx="3.51585" transform="rotate(-75 268.73 203.712)" stroke="#626262" stroke-width="1.5"/>
<path d="M167 205H258.865H270.5C272.433 205 274 206.567 274 208.5V208.5C274 210.433 272.433 212 270.5 212H260.547H181.09" stroke="#626262" stroke-width="1.5" stroke-linecap="round"/>
<path d="M299 90L296.489 91.3897C294.155 92.6816 292.434 94.8527 291.709 97.42L264.962 192.095C263.791 196.241 265.407 200.672 268.972 203.09L270.314 204" stroke="#626262" stroke-width="1.5" stroke-linecap="round"/>
<path d="M263 197L170 197" stroke="#626262" stroke-width="1.5" stroke-linecap="round"/>
<line x1="0.75" y1="-0.75" x2="87.1268" y2="-0.75" transform="matrix(1 8.63678e-05 -0.000155466 1 173 200.481)" stroke="#626262" stroke-width="1.5" stroke-linecap="round" stroke-dasharray="6 6"/>
<line x1="179.75" y1="202.25" x2="263.25" y2="202.25" stroke="#626262" stroke-width="1.5" stroke-linecap="round" stroke-dasharray="6 6"/>
<path d="M166.994 80.1147C168.242 80.3451 171.063 80.4251 172.359 78.9017" stroke="#626262" stroke-width="1.5" stroke-linecap="round"/>
<defs>
<linearGradient id="paint0_linear_4719_1782" x1="141.897" y1="80.9887" x2="186.224" y2="73.3388" gradientUnits="userSpaceOnUse">
<stop stop-color="#B4BCF6"/>
<stop offset="0.515625" stop-color="#0DE4E0"/>
<stop offset="1" stop-color="#FADB28"/>
</linearGradient>
<linearGradient id="paint1_linear_4719_1782" x1="141.897" y1="80.9887" x2="186.224" y2="73.3388" gradientUnits="userSpaceOnUse">
<stop stop-color="#B4BCF6"/>
<stop offset="0.515625" stop-color="#0DE4E0"/>
<stop offset="1" stop-color="#FADB28"/>
</linearGradient>
<linearGradient id="paint2_linear_4719_1782" x1="141.897" y1="80.9887" x2="186.224" y2="73.3388" gradientUnits="userSpaceOnUse">
<stop stop-color="#B4BCF6"/>
<stop offset="0.515625" stop-color="#0DE4E0"/>
<stop offset="1" stop-color="#FADB28"/>
</linearGradient>
<linearGradient id="paint3_linear_4719_1782" x1="141.897" y1="80.9887" x2="186.224" y2="73.3388" gradientUnits="userSpaceOnUse">
<stop stop-color="#B4BCF6"/>
<stop offset="0.515625" stop-color="#0DE4E0"/>
<stop offset="1" stop-color="#FADB28"/>
</linearGradient>
<linearGradient id="paint4_linear_4719_1782" x1="141.897" y1="80.9887" x2="186.224" y2="73.3388" gradientUnits="userSpaceOnUse">
<stop stop-color="#B4BCF6"/>
<stop offset="0.515625" stop-color="#0DE4E0"/>
<stop offset="1" stop-color="#FADB28"/>
</linearGradient>
</defs>
</svg>
