<svg width="358" height="221" viewBox="0 0 358 221" fill="none" xmlns="http://www.w3.org/2000/svg">
<path d="M232.336 40.0001C156.499 28.4998 226.999 98 232.336 116.57C243.383 155 206.075 134.709 178.592 135.564L178.668 138.023" stroke="#7F808D" stroke-width="1.5" stroke-linecap="round"/>
<path d="M231.8 172.447C235.523 174.167 238.426 167.413 235.831 163.485C230.855 155.954 199.287 159.417 189.173 156.089C165.825 148.406 143.875 148.425 135.279 121.786L146.955 179.862C156.296 171.252 175.882 171.335 184.508 172.452C207.209 171.13 205.645 170.34 215.324 173.601C219.468 174.997 223.616 174.289 225.167 172.827C227.178 174.438 231.002 173.897 231.8 172.447Z" fill="white"/>
<path d="M259.831 42.1508C261.21 42.1575 262.239 43.1964 262.233 44.575C262.313 45.868 261.188 46.9828 259.895 47.0628L253.69 47.0341L253.713 42.1225L259.831 42.1508Z" fill="#B4BCF6"/>
<path d="M259.87 33.4486C261.249 33.4553 262.278 34.4942 262.272 35.8728C262.352 37.1659 261.227 38.2806 259.934 38.3606L253.729 38.3319L253.752 33.4203L259.87 33.4486Z" fill="#B4BCF6"/>
<path d="M254.28 30.5216L254.27 32.7624L254.287 47.671L254.277 49.9118C254.27 51.2908 253.231 52.3201 251.853 52.3137L242.201 52.2691C227.364 52.1991 226.501 27.9803 242.227 28.053L251.878 28.0977C252.568 28.1006 253.17 28.3622 253.599 28.7949C254.027 29.2277 254.283 29.832 254.28 30.5216Z" fill="#ECEEFD"/>
<path d="M254.337 42.9712L254.424 42.9716M254.424 42.9716L260.542 42.9999C261.921 43.0066 262.95 44.0455 262.944 45.4241C263.024 46.7172 261.899 47.8319 260.606 47.9119L254.401 47.8832L254.424 42.9716Z" stroke="#626262" stroke-width="1.5" stroke-linejoin="round"/>
<path d="M254.378 34.269L254.465 34.2694M254.465 34.2694L260.583 34.2977C261.962 34.3044 262.991 35.3433 262.985 36.722C263.065 38.015 261.94 39.1298 260.647 39.2098L254.442 39.1811L254.465 34.2694Z" stroke="#626262" stroke-width="1.5" stroke-linejoin="round"/>
<path d="M242.334 29.4319L251.986 29.4766C253.364 29.4824 254.394 30.5213 254.387 31.9005L254.394 49.05L254.384 51.2907C254.377 52.6697 253.339 53.699 251.96 53.6926L242.308 53.648C227.472 53.578 226.608 29.3592 242.334 29.4319Z" stroke="#626262" stroke-width="1.5"/>
<g clip-path="url(#clip0_4695_2644)">
<path d="M234.215 37.883C236.254 33.1208 241.768 30.9134 246.53 32.9527C251.292 34.992 253.499 40.5057 251.46 45.2679C249.421 50.0301 243.907 52.2375 239.145 50.1982C234.383 48.1589 232.175 42.6452 234.215 37.883Z" fill="#B4BCF6"/>
<path d="M234.201 45.3023C234.201 45.3023 236.037 45.218 239.237 46.4121C240.947 47.0496 241.664 47.3604 243.18 48.163C243.989 48.59 245.264 49.1384 245.702 48.7408C246.77 47.7755 244.563 45.5203 245.789 43.5375C246.766 41.9564 249.479 43.6042 250.135 42.5389C251.064 41.0296 245.676 34.8355 241.112 32.3365C241.112 32.3365 237.01 32.9228 234.762 36.8036C232.812 40.1699 233.355 43.2846 234.201 45.3023Z" fill="white"/>
<path d="M237.955 43.0022C238.027 42.834 238.131 42.6816 238.262 42.5537C238.393 42.4258 238.548 42.3249 238.717 42.2568C238.887 42.1888 239.069 42.1548 239.252 42.157C239.435 42.1591 239.615 42.1973 239.784 42.2693C240.123 42.415 240.391 42.6895 240.528 43.0325C240.665 43.3755 240.66 43.7589 240.515 44.0985C240.369 44.4377 240.095 44.7053 239.752 44.8425C239.41 44.9798 239.026 44.9754 238.687 44.8303C238.347 44.6849 238.08 44.4107 237.942 44.0678C237.805 43.725 237.81 43.3417 237.955 43.0022Z" fill="#EF4357"/>
<path d="M241.934 36.738C242.08 36.3987 242.354 36.1311 242.697 35.9939C243.039 35.8567 243.423 35.8611 243.762 36.0061C243.93 36.0781 244.082 36.1825 244.21 36.3133C244.338 36.4441 244.439 36.5988 244.507 36.7686C244.575 36.9383 244.608 37.1198 244.606 37.3027C244.604 37.4855 244.566 37.6661 244.494 37.8342C244.422 38.0024 244.318 38.1549 244.187 38.2828C244.056 38.4107 243.901 38.5115 243.732 38.5796C243.562 38.6477 243.38 38.6816 243.197 38.6795C243.014 38.6773 242.834 38.6391 242.665 38.5671C242.326 38.4214 242.058 38.1469 241.921 37.8039C241.784 37.461 241.789 37.0775 241.934 36.738Z" fill="#EF4357"/>
<path d="M233.636 45.1665C233.616 45.2128 233.606 45.2627 233.607 45.3129C233.608 45.3595 233.619 45.4055 233.637 45.4481C233.656 45.4907 233.683 45.5292 233.717 45.5613C233.751 45.5933 233.791 45.6184 233.834 45.635C233.878 45.6515 233.924 45.6593 233.971 45.6578C233.997 45.6574 236.003 45.633 239.086 46.7809C240.739 47.398 241.451 47.7002 242.987 48.5127C244.455 49.2908 245.44 49.4684 245.911 49.0415C246.569 48.4462 246.308 47.5394 246.055 46.6616C245.775 45.6932 245.491 44.6946 246.06 43.7624C246.452 43.1286 247.192 43.1517 248.278 43.2602C249.122 43.3429 249.995 43.4303 250.407 42.7658C250.587 42.4735 250.614 42.0783 250.485 41.5911C249.867 39.2609 245.411 34.2941 241.284 32.0335C241.244 32.0111 241.199 31.997 241.153 31.992C241.107 31.9869 241.06 31.991 241.016 32.004C240.971 32.017 240.93 32.0386 240.893 32.0677C240.857 32.0968 240.827 32.1327 240.805 32.1734C240.76 32.2554 240.75 32.3518 240.776 32.4415C240.803 32.5311 240.863 32.6067 240.945 32.6515C244.827 34.7776 249.223 39.5896 249.804 41.7713C249.879 42.059 249.881 42.2795 249.808 42.398C249.628 42.6903 249.007 42.6275 248.349 42.5632C247.354 42.4642 246.114 42.3411 245.463 43.3955C244.725 44.5915 245.087 45.8508 245.384 46.8639C245.628 47.7085 245.761 48.2408 245.44 48.524C245.308 48.645 244.613 48.5802 243.319 47.8945C241.749 47.0635 241.021 46.7555 239.335 46.1256C236.108 44.9214 234.043 44.9561 233.955 44.9581C233.887 44.9586 233.821 44.9785 233.765 45.0154C233.708 45.0524 233.663 45.1048 233.636 45.1665Z" fill="#181818"/>
<path d="M237.776 44.8688C237.762 44.9006 237.758 44.9356 237.765 44.9696C237.771 45.0035 237.787 45.0349 237.81 45.06C237.826 45.0772 237.846 45.091 237.867 45.1007C237.888 45.1104 237.912 45.1158 237.935 45.1164C237.959 45.1171 237.982 45.1131 238.004 45.1046C238.026 45.0962 238.046 45.0834 238.063 45.0672L239.148 44.025L238.846 45.4804C238.841 45.5031 238.841 45.5265 238.845 45.5492C238.85 45.572 238.858 45.5936 238.871 45.6129C238.884 45.6323 238.9 45.6489 238.92 45.6619C238.939 45.6749 238.96 45.684 238.983 45.6887C239.006 45.6935 239.029 45.6938 239.052 45.6895C239.075 45.6852 239.096 45.6765 239.116 45.6637C239.135 45.6509 239.152 45.6345 239.165 45.6152C239.178 45.596 239.187 45.5744 239.191 45.5516L239.606 43.5462C239.614 43.5093 239.61 43.4709 239.594 43.4367C239.578 43.4024 239.552 43.374 239.519 43.3556C239.486 43.3376 239.449 43.3304 239.412 43.3352C239.374 43.3399 239.34 43.3563 239.312 43.382L237.807 44.8091C237.793 44.8269 237.782 44.8472 237.776 44.8688Z" fill="#181818"/>
<path d="M243.64 35.5258L243.637 35.5344L242.924 37.48C242.911 37.5153 242.91 37.5537 242.92 37.5897C242.931 37.6257 242.953 37.6574 242.982 37.6803C243.012 37.7032 243.049 37.7159 243.086 37.7167C243.124 37.7174 243.161 37.706 243.191 37.6842L244.865 36.5041C244.884 36.4907 244.9 36.4738 244.913 36.4542C244.925 36.4346 244.934 36.4127 244.938 36.3898C244.942 36.367 244.941 36.3435 244.936 36.3208C244.931 36.2982 244.921 36.2768 244.908 36.2578C244.881 36.2197 244.84 36.1939 244.794 36.186C244.748 36.178 244.701 36.1886 244.663 36.2155L243.449 37.071L243.968 35.6559C243.984 35.6119 243.982 35.5635 243.962 35.5211C243.942 35.4787 243.907 35.4458 243.863 35.4294C243.821 35.4142 243.774 35.4157 243.733 35.4336C243.691 35.4515 243.658 35.4844 243.64 35.5258Z" fill="#181818"/>
<path d="M240.359 40.1207C240.235 40.3809 240.2 40.675 240.261 40.957C240.321 41.239 240.474 41.493 240.694 41.679C240.717 41.6995 240.744 41.7153 240.773 41.7254C240.803 41.7354 240.834 41.7397 240.864 41.7378C240.895 41.7359 240.925 41.728 240.953 41.7145C240.981 41.7009 241.006 41.682 241.026 41.6589C241.047 41.6358 241.063 41.6088 241.073 41.5796C241.083 41.5504 241.087 41.5195 241.085 41.4887C241.083 41.4579 241.075 41.4277 241.062 41.3999C241.048 41.3722 241.029 41.3473 241.006 41.3269C240.635 41.0003 240.606 40.5472 240.916 40.0778C241.226 39.6084 241.653 39.4694 242.104 39.6738C242.161 39.6984 242.226 39.6991 242.284 39.676C242.342 39.6528 242.388 39.6076 242.412 39.5503C242.437 39.493 242.438 39.4283 242.415 39.3705C242.391 39.3126 242.346 39.2663 242.289 39.2418C241.627 38.9419 240.947 39.1616 240.51 39.8133C240.451 39.9111 240.401 40.014 240.359 40.1207Z" fill="#181818"/>
<path d="M240.737 44.5556C240.729 44.5707 240.722 44.5867 240.717 44.6032C240.706 44.6644 240.719 44.7277 240.754 44.779C240.79 44.8303 240.844 44.8655 240.905 44.8768C241.415 44.9672 242.385 44.6835 242.814 44.0018C243.243 43.32 243.015 42.3391 242.648 42.0365C242.6 41.9969 242.538 41.9781 242.476 41.9841C242.414 41.9901 242.357 42.0206 242.317 42.0687C242.278 42.1167 242.259 42.1784 242.265 42.2403C242.271 42.3022 242.301 42.3593 242.348 42.399C242.529 42.5478 242.727 43.2589 242.416 43.751C242.106 44.2431 241.353 44.4819 240.988 44.4176C240.937 44.4098 240.885 44.4191 240.839 44.444C240.794 44.469 240.758 44.5082 240.737 44.5556Z" fill="#181818"/>
<path d="M243.259 40.6517C243.25 40.6719 243.245 40.6931 243.242 40.7148C243.238 40.7455 243.24 40.7766 243.248 40.8064C243.256 40.8362 243.27 40.8641 243.289 40.8885C243.308 40.913 243.331 40.9335 243.358 40.9489C243.385 40.9642 243.414 40.9742 243.445 40.9781C243.883 41.038 244.748 40.9443 245.191 40.2417C245.592 39.602 245.471 38.6159 245.096 38.1933C245.075 38.1702 245.05 38.1516 245.022 38.1384C244.994 38.1251 244.964 38.1176 244.933 38.1162C244.902 38.1148 244.871 38.1196 244.842 38.1302C244.812 38.1409 244.786 38.1572 244.763 38.1782C244.74 38.1991 244.721 38.2243 244.707 38.2525C244.694 38.2806 244.686 38.3112 244.685 38.3423C244.683 38.3735 244.688 38.4046 244.699 38.4339C244.71 38.4632 244.726 38.49 244.747 38.5129C244.973 38.768 245.095 39.5209 244.795 39.9982C244.477 40.5013 243.814 40.5584 243.507 40.5191C243.457 40.5114 243.406 40.5202 243.361 40.5441C243.316 40.568 243.28 40.6057 243.259 40.6517Z" fill="#181818"/>
<path d="M242.986 39.1536C242.793 39.6068 242.787 40.1181 242.969 40.5759C243.152 41.0336 243.508 41.4005 243.96 41.5965C244.414 41.7903 244.926 41.796 245.385 41.6125C245.843 41.429 246.21 41.0712 246.405 40.6176C246.599 40.1634 246.605 39.651 246.421 39.1926C246.238 38.7343 245.88 38.3674 245.426 38.1724C244.972 37.9805 244.461 37.9759 244.004 38.1598C243.547 38.3436 243.181 38.7009 242.986 39.1536ZM245.87 40.3886C245.804 40.5428 245.708 40.6823 245.588 40.7993C245.467 40.9164 245.325 41.0085 245.169 41.0705C245.013 41.1325 244.847 41.1632 244.679 41.1608C244.511 41.1584 244.345 41.1229 244.191 41.0564C243.881 40.9228 243.636 40.6716 243.51 40.3579C243.385 40.0442 243.389 39.6935 243.521 39.3826C243.655 39.0722 243.906 38.8274 244.22 38.7018C244.533 38.5762 244.884 38.5801 245.195 38.7125C245.349 38.7781 245.489 38.8736 245.607 38.9934C245.724 39.1131 245.817 39.2549 245.88 39.4106C245.943 39.5662 245.974 39.7327 245.972 39.9005C245.971 40.0684 245.936 40.2342 245.87 40.3886Z" fill="#6878ED"/>
<path d="M240.497 42.9736C240.303 43.4277 240.297 43.9402 240.481 44.3985C240.664 44.8569 241.022 45.2238 241.475 45.4187C241.93 45.6125 242.442 45.6183 242.9 45.4348C243.359 45.2513 243.726 44.8935 243.921 44.4398C244.115 43.9856 244.121 43.473 243.937 43.0144C243.754 42.5557 243.396 42.1886 242.942 41.9936C242.488 41.7997 241.975 41.7941 241.517 41.9778C241.058 42.1615 240.691 42.5196 240.497 42.9736ZM243.381 44.2086C243.247 44.519 242.996 44.7638 242.682 44.8894C242.368 45.015 242.018 45.0111 241.707 44.8787C241.396 44.7453 241.151 44.4942 241.026 44.1804C240.9 43.8666 240.904 43.5157 241.037 43.2049C241.17 42.8939 241.421 42.6486 241.735 42.5227C242.049 42.3969 242.4 42.4008 242.711 42.5337C243.022 42.6674 243.266 42.9187 243.392 43.2327C243.517 43.5467 243.513 43.8976 243.381 44.2086Z" fill="#6878ED"/>
<path d="M243.151 42.5799C243.133 42.6192 243.125 42.6617 243.127 42.7045C243.128 42.7473 243.139 42.7892 243.158 42.8274C243.176 42.8619 243.199 42.8927 243.229 42.9179C243.258 42.9432 243.292 42.9624 243.328 42.9745C243.365 42.9867 243.404 42.9914 243.442 42.9885C243.48 42.9857 243.518 42.9752 243.552 42.9578C243.945 42.7604 244.255 42.4305 244.428 42.0264C244.503 41.8501 244.552 41.6634 244.571 41.4726C244.578 41.3951 244.554 41.3179 244.505 41.2578C244.455 41.1978 244.384 41.1599 244.306 41.1524C244.268 41.1486 244.229 41.1524 244.192 41.1636C244.155 41.1748 244.121 41.1932 244.091 41.2177C244.061 41.2422 244.036 41.2723 244.018 41.3064C244 41.3404 243.989 41.3777 243.985 41.4162C243.972 41.5467 243.94 41.6746 243.888 41.7951C243.769 42.0716 243.557 42.2975 243.289 42.4333C243.227 42.4641 243.178 42.5161 243.151 42.5799Z" fill="#6878ED"/>
<path d="M245.778 38.6067C245.752 38.6689 245.747 38.7385 245.766 38.8036C245.785 38.8688 245.825 38.9254 245.881 38.9638C245.946 39.0069 246.025 39.0225 246.101 39.0072C246.178 38.9919 246.245 38.9471 246.288 38.8824L246.536 38.5066C246.557 38.4746 246.572 38.4387 246.579 38.401C246.587 38.3633 246.587 38.3245 246.579 38.2868C246.571 38.2491 246.556 38.2133 246.535 38.1814C246.513 38.1495 246.486 38.1221 246.454 38.1009C246.389 38.0578 246.31 38.0422 246.234 38.0575C246.157 38.0728 246.09 38.1176 246.047 38.1823L245.799 38.5581C245.791 38.5735 245.784 38.5898 245.778 38.6067Z" fill="#6878ED"/>
<path d="M241.081 45.699C241.054 45.7612 241.05 45.8308 241.069 45.8959C241.088 45.9609 241.128 46.0176 241.184 46.0561C241.249 46.0992 241.328 46.1148 241.404 46.0995C241.48 46.0843 241.547 46.0394 241.591 45.9747L241.909 45.4937C241.93 45.4617 241.945 45.4258 241.953 45.3881C241.96 45.3503 241.96 45.3115 241.952 45.2739C241.945 45.2362 241.93 45.2004 241.908 45.1685C241.887 45.1366 241.859 45.1092 241.827 45.088C241.762 45.0449 241.683 45.0293 241.607 45.0446C241.531 45.0598 241.464 45.1047 241.42 45.1694L241.102 45.6504C241.093 45.6659 241.086 45.6821 241.081 45.699Z" fill="#6878ED"/>
</g>
<path d="M200.951 66.7354C196.612 65.2056 194.263 69.598 193.71 74.0456C193.027 79.5434 190.187 87.9295 184.241 94.2886C168.982 110.607 139.798 118.608 127.236 115.075L129.053 139.926C183.511 136.533 207.581 93.1938 208.845 85.0316L210.937 83.9307C213.329 83.9631 216.577 81.368 216.832 79.4193C217.128 77.1564 214.947 76.0347 213.82 75.7567C214.562 72.4317 212.908 69.6966 209.034 71.0205C211.488 68.8073 215.599 63.7949 212.408 61.4505C209.218 59.106 205.088 64.7518 203.422 67.8678C202.768 67.4714 201.953 67.089 200.951 66.7354Z" fill="white"/>
<path d="M126.753 114.459C139.316 117.993 168.499 109.991 183.758 93.6729C189.704 87.3138 192.545 78.9276 193.228 73.4299C193.78 68.9822 196.13 64.5899 200.468 66.1197C201.471 66.4733 202.286 66.8557 202.94 67.2521M200.019 70.4446C200.531 73.3152 203.563 73.0573 204.565 72.0476C205.585 71.0188 205.823 68.9993 202.94 67.2521M202.94 67.2521C204.606 64.1361 208.736 58.4903 211.926 60.8348C215.116 63.1792 211.006 68.1916 208.551 70.4047C212.426 69.0809 214.079 71.816 213.337 75.141C214.465 75.419 216.646 76.5407 216.35 78.8036C215.98 81.6322 209.302 85.8229 208.095 81.3624C207.472 79.0619 209.967 77.2403 210.767 76.8351C208.671 77.9489 205.058 79.2358 203.675 77.1138C201.929 74.4359 205.464 72.6337 206.76 71.925" stroke="#626262" stroke-width="1.5" stroke-linecap="round"/>
<path d="M208.364 84.4155C207.1 92.5777 183.03 135.917 128.572 139.31" stroke="#626262" stroke-width="1.5" stroke-linecap="round"/>
<path d="M25.9802 34.8978C38.5401 29.2445 65.1633 63.2174 43.6274 94.0133C-5.48492 164.243 31.3648 165.38 56.4862 170.293L62.3879 191.336C50.7811 189.7 31.5058 193.761 9.95454 169.419C-15.5237 140.641 26.3122 95.3733 34.1085 77.678C43.6105 56.1112 8.91335 42.5796 25.9802 34.8978Z" fill="white"/>
<path d="M136.816 119.003C145.412 145.642 167.362 145.623 190.71 153.306C200.824 156.634 232.392 153.172 237.368 160.703C239.963 164.63 237.06 171.384 233.337 169.664C232.539 171.114 228.715 171.655 226.704 170.045C225.154 171.507 221.005 172.214 216.861 170.818C207.183 167.558 208.746 168.348 186.045 169.67C177.419 168.552 157.833 168.469 148.492 177.08" stroke="#626262" stroke-width="1.5" stroke-linecap="round"/>
<path d="M147.756 14.0471C142.748 4.54575 136.614 3.62766 134.267 14.9521C130.994 30.7423 117.378 22.3187 109.016 15.8457C104.173 12.776 100.64 12.7727 102.556 27.5475C104.546 42.8796 99.6848 55.9491 94.8384 63.9753C89.992 72.0015 77.8726 84.4409 68.4832 102.161C59.0938 119.882 47.6676 151.425 56.3945 173.055C51.3217 184.545 52.3076 206.848 96.834 204.141C123.521 191.092 165.036 176.232 152.492 159.66C138.836 133.982 143.316 106.393 147.799 93.9529C155.973 71.2687 164.056 44.9712 147.756 14.0471Z" fill="white"/>
<path d="M56.7251 190.427L56.5781 190.395C45.4345 187.919 26.4119 190.395 7.34543 165.086C-15.1951 135.166 28.8722 94.3554 37.7904 77.7491C48.6598 57.5095 16.0066 41.7064 33.1614 35.542C45.7861 31.0054 69.042 66.0631 45.7861 94.3554C-7.24897 158.875 28.4392 162.795 52.4531 169.488M149.606 89.7361C157.92 66.8752 166.145 40.3737 149.606 9.22377C144.524 -0.347016 138.295 -1.26873 135.905 10.143C132.567 26.0797 118.732 17.5627 110.257 11.0571C105.017 7.03471 101.751 7.96531 103.69 22.8513C105.702 38.2986 100.758 51.47 95.8314 59.5598C90.9046 67.6496 78.5884 80.19 69.042 98.0502C59.4957 115.91 47.8731 147.699 56.7251 169.488" stroke="#626262" stroke-width="1.5" stroke-linecap="round"/>
<circle cx="7.83109" cy="7.83109" r="7.83109" transform="matrix(-0.999967 0.00809726 0.00809726 0.999967 164.121 38.0347)" fill="#FF3F54"/>
<path d="M168.089 48.9307L156.258 44.5059" stroke="#626262" stroke-width="1.5" stroke-linecap="round"/>
<path d="M168.735 42.1221L156.32 44.4495" stroke="#626262" stroke-width="1.5" stroke-linecap="round"/>
<circle cx="117.399" cy="48.4961" r="7.83109" transform="rotate(-3.44294 117.399 48.4961)" fill="#FF3F54"/>
<path d="M105.896 52.2871L117.399 47.0664" stroke="#626262" stroke-width="1.5" stroke-linecap="round"/>
<path d="M104.788 45.5418L117.333 47.0178" stroke="#626262" stroke-width="1.5" stroke-linecap="round"/>
<path d="M123.542 163.022C134.936 171.029 136.729 187.496 137.707 186.117C142.759 178.989 143.866 171.923 143.866 163.022C143.702 157.037 143.092 150.736 142.169 144.586C114.594 153.997 107.908 150.275 108.372 151.511C111.279 159.266 120.695 161.021 123.542 163.022Z" fill="#B4BCF6"/>
<circle cx="130.236" cy="34.7712" r="2.40598" fill="#7F808D"/>
<circle cx="149.504" cy="31.1843" r="2.40598" fill="#7F808D"/>
<path fill-rule="evenodd" clip-rule="evenodd" d="M114.681 34.6904C114.616 34.2691 114.905 33.8749 115.326 33.8101L117.667 33.4497C118.088 33.3848 118.483 33.6738 118.547 34.0951C118.612 34.5165 118.323 34.9106 117.902 34.9755L115.561 35.3358C115.14 35.4007 114.746 35.1117 114.681 34.6904Z" fill="url(#paint0_linear_4695_2644)"/>
<path fill-rule="evenodd" clip-rule="evenodd" d="M156.079 28.3167C156.014 27.8954 156.303 27.5012 156.724 27.4364L159.065 27.076C159.486 27.0111 159.881 27.3001 159.945 27.7214C160.01 28.1428 159.721 28.5369 159.3 28.6018L156.959 28.9622C156.538 29.027 156.144 28.738 156.079 28.3167Z" fill="url(#paint1_linear_4695_2644)"/>
<path fill-rule="evenodd" clip-rule="evenodd" d="M124.712 28.2421C120.739 28.8538 117.997 32.6538 118.629 36.7607C119.261 40.8676 123.02 43.6668 126.992 43.0552C130.965 42.4435 133.707 38.6435 133.075 34.5366C132.443 30.4296 128.685 27.6305 124.712 28.2421ZM117.103 36.9956C116.346 32.0789 119.629 27.4627 124.477 26.7163C129.325 25.9699 133.844 29.3849 134.601 34.3017C135.358 39.2184 132.075 43.8346 127.227 44.581C122.379 45.3274 117.86 41.9124 117.103 36.9956Z" fill="url(#paint2_linear_4695_2644)"/>
<path fill-rule="evenodd" clip-rule="evenodd" d="M148.118 24.6385C144.145 25.2501 141.403 29.0501 142.035 33.157C142.668 37.264 146.426 40.0632 150.399 39.4515C154.372 38.8398 157.114 35.0399 156.481 30.9329C155.849 26.826 152.091 24.0268 148.118 24.6385ZM140.51 33.392C139.753 28.4752 143.035 23.8591 147.883 23.1127C152.731 22.3663 157.25 25.7813 158.007 30.698C158.764 35.6148 155.482 40.2309 150.634 40.9773C145.786 41.7237 141.267 38.3087 140.51 33.392Z" fill="url(#paint3_linear_4695_2644)"/>
<path fill-rule="evenodd" clip-rule="evenodd" d="M134.538 32.2812C134.492 32.6099 134.236 32.8836 133.891 32.9367C133.47 33.0016 133.076 32.7126 133.011 32.2913C132.93 31.7693 133.239 31.3816 133.459 31.1753C133.702 30.9484 134.022 30.7592 134.36 30.6024C135.046 30.2841 135.975 30.0203 136.989 29.8642C138.003 29.708 138.968 29.6803 139.718 29.7776C140.087 29.8255 140.45 29.9094 140.749 30.053C141.021 30.1835 141.432 30.4604 141.513 30.9823C141.578 31.4036 141.289 31.7978 140.867 31.8626C140.522 31.9157 140.196 31.7317 140.053 31.4321C139.955 31.3909 139.781 31.3426 139.519 31.3085C138.95 31.2347 138.136 31.2495 137.224 31.39C136.311 31.5304 135.531 31.7611 135.01 32.0027C134.77 32.1141 134.619 32.2124 134.538 32.2812ZM134.483 32.3355C134.483 32.3355 134.485 32.3325 134.49 32.3265C134.486 32.3324 134.483 32.3355 134.483 32.3355ZM140.122 31.4674C140.122 31.4674 140.118 31.4654 140.112 31.461C140.119 31.4651 140.122 31.4674 140.122 31.4674Z" fill="url(#paint4_linear_4695_2644)"/>
<path d="M144.395 47.7749C143.335 49.1862 141.099 50.2105 138.477 50.3098C135.855 50.4091 133.547 49.5569 132.384 48.2297C133.304 50.1989 135.714 54.1595 137.998 54.2485C140.853 54.3597 143.816 50.4693 144.395 47.7749Z" fill="#FF3F54"/>
<path d="M144.395 47.7749L143.795 47.3247C144.006 47.043 144.385 46.9464 144.706 47.0925C145.026 47.2386 145.202 47.5881 145.128 47.9325L144.395 47.7749ZM132.384 48.2297L131.705 48.547C131.547 48.2087 131.662 47.8057 131.974 47.6016C132.287 47.3976 132.702 47.4546 132.948 47.7354L132.384 48.2297ZM137.998 54.2485L137.969 54.9979L137.998 54.2485ZM138.448 49.5603C140.929 49.4664 142.915 48.4972 143.795 47.3247L144.994 48.2251C143.756 49.8752 141.269 50.9546 138.505 51.0593L138.448 49.5603ZM132.948 47.7354C133.915 48.8381 135.968 49.6543 138.448 49.5603L138.505 51.0593C135.741 51.1639 133.18 50.2757 131.82 48.724L132.948 47.7354ZM133.064 47.9124C133.505 48.8573 134.308 50.2849 135.264 51.4742C135.742 52.0687 136.24 52.5811 136.732 52.9441C137.229 53.3113 137.664 53.4849 138.027 53.499L137.969 54.9979C137.19 54.9676 136.467 54.6128 135.841 54.1508C135.21 53.6846 134.62 53.067 134.095 52.4141C133.045 51.1086 132.183 49.5713 131.705 48.547L133.064 47.9124ZM138.027 53.499C139.119 53.5416 140.374 52.8004 141.493 51.5612C142.593 50.3428 143.405 48.8116 143.661 47.6173L145.128 47.9325C144.805 49.4326 143.846 51.1938 142.606 52.5665C141.386 53.9182 139.732 55.0666 137.969 54.9979L138.027 53.499Z" fill="#7F808D"/>
<path d="M196.796 193.659C207.662 196.998 216.941 200.919 221.47 206.336C222.741 207.857 223.638 209.29 224.209 210.62C225.015 212.497 225.17 214.167 224.812 215.585C224.248 217.819 222.408 219.426 219.823 220.226C215.549 221.548 209.241 220.664 203.298 216.757C189.864 207.925 172.262 210.08 165.452 205.603C133.319 184.479 105.095 213.916 74.8308 203.154C69.4203 201.231 64.2591 198.122 59.6143 193.843L102.088 156.681C119.334 156.752 136.657 172.689 139.073 174.438C149.296 182.996 175.964 187.258 196.796 193.659Z" fill="white"/>
<path d="M102.705 97.3055V70.7407C103.923 73.7644 113.303 79.844 141.08 79.9736C168.856 79.844 178.237 73.7644 179.455 70.7407V97.3055C171.78 104.173 150.674 105.567 141.08 105.405C131.486 105.567 110.38 104.173 102.705 97.3055Z" fill="white"/>
<path d="M102.705 122.745V96.1798C103.923 99.2034 113.303 105.283 141.08 105.413C168.856 105.283 178.237 99.2034 179.455 96.1798V122.745C171.78 129.612 150.674 131.006 141.08 130.844C131.486 131.006 110.38 129.612 102.705 122.745Z" fill="white"/>
<path d="M102.705 144.295V121.316C103.923 124.339 113.303 130.419 141.08 130.549C168.856 130.419 178.237 124.339 179.455 121.316V144.295C179.455 146.576 178.516 148.813 176.523 149.923C167.346 155.032 149.635 156.124 141.08 155.979C132.524 156.124 114.814 155.032 105.637 149.923C103.644 148.813 102.705 146.576 102.705 144.295Z" fill="white"/>
<path d="M141.504 83.1015C114.234 82.972 105.024 79.2983 103.828 76.2746V99.3077V125.872V147.423C103.828 149.704 104.75 151.941 106.707 153.051C115.717 158.16 133.105 159.252 141.504 159.107C149.903 159.252 167.291 158.16 176.301 153.051C178.258 151.941 179.18 149.704 179.18 147.423V124.444V100.433V73.8687C177.984 76.8923 168.774 82.972 141.504 83.1015Z" fill="#9AEAE8"/>
<path d="M102.705 97.7059V71.1411C103.923 74.1647 113.304 80.2444 141.08 80.374C168.857 80.2444 178.237 74.1647 179.456 71.1411V97.7059C171.781 104.574 150.674 105.967 141.08 105.805C131.487 105.967 110.38 104.574 102.705 97.7059Z" stroke="#626262" stroke-width="1.5"/>
<path d="M102.705 96.5791V123.144C110.38 130.012 131.487 131.405 141.08 131.243C150.674 131.405 171.781 130.012 179.456 123.144V96.5791" stroke="#626262" stroke-width="1.5"/>
<path d="M102.705 121.717V139.34C102.705 145.03 105.167 150.612 110.55 152.454C120.176 155.747 133.875 156.502 141.08 156.381C148.286 156.502 161.985 155.747 171.611 152.454C176.994 150.612 179.456 145.03 179.456 139.34V121.717" stroke="#626262" stroke-width="1.5"/>
<ellipse cx="141.08" cy="71.5101" rx="38.3753" ry="8.69267" fill="white" stroke="#626262" stroke-width="1.5"/>
<path d="M173.262 76.0034C173.262 76.0034 159.71 80.1918 141.998 80.1918C120.341 80.1918 109.121 76.0034 109.121 76.0034C109.121 71.8343 123.479 68.4546 141.191 68.4546C158.903 68.4546 173.262 71.8343 173.262 76.0034Z" fill="#D3D3E1"/>
<circle cx="2.11802" cy="2.11802" r="2.11802" transform="matrix(-1 0 0 1 173.654 142.81)" fill="#6878ED"/>
<circle cx="2.11802" cy="2.11802" r="2.11802" transform="matrix(-1 0 0 1 167.633 144)" fill="#6878ED"/>
<circle cx="2.11802" cy="2.11802" r="2.11802" transform="matrix(-1 0 0 1 161.318 145.041)" fill="#6878ED"/>
<circle cx="2.11802" cy="2.11802" r="1.36802" transform="matrix(-1 0 0 1 173.963 142.193)" fill="#6878ED" stroke="#7F808D" stroke-width="1.5"/>
<circle cx="2.11802" cy="2.11802" r="1.36802" transform="matrix(-1 0 0 1 167.943 143.381)" fill="#6878ED" stroke="#7F808D" stroke-width="1.5"/>
<circle cx="2.11802" cy="2.11802" r="1.36802" transform="matrix(-1 0 0 1 161.627 144.422)" fill="#6878ED" stroke="#7F808D" stroke-width="1.5"/>
<path d="M58.7549 191.864C63.4472 196.205 68.668 199.351 74.1467 201.289C104.792 212.13 133.536 182.013 166.034 203.406C172.921 207.94 190.779 205.67 204.366 214.615C210.376 218.571 216.77 219.446 221.109 218.081M221.109 218.081C220.247 217.31 218.342 215.666 217.619 215.257M221.109 218.081C223.734 217.255 225.607 215.61 226.188 213.33M226.188 213.33C225.397 212.599 223.303 211.016 221.253 210.539M226.188 213.33C226.557 211.884 226.406 210.183 225.597 208.273M225.597 208.273C225.024 206.92 224.12 205.463 222.837 203.918C218.267 198.417 208.874 194.46 197.869 191.103C176.77 184.666 149.745 180.434 139.413 171.755C136.971 169.983 120.453 159.558 101.982 153.814M225.597 208.273C224.972 207.591 223.305 206.188 221.64 206.035" stroke="#626262" stroke-width="1.5" stroke-linecap="round"/>
<path d="M118.817 165.936C108.413 165.99 94.0516 160.292 85.1348 150.478C76.2181 140.664 79.7372 131.857 79.7372 131.857C85.4529 126.678 98.7902 120.743 99.2574 126.202C99.9998 134.877 109.615 146.63 115.327 148.812C118.212 149.914 121.269 148.965 126.239 147.782C130.214 146.837 131.616 149.035 131.82 150.253C133.048 150.111 134.065 150.548 134.927 150.929C136.282 151.529 136.843 153.498 136.954 154.408C139.24 155.677 139.361 158.468 137.921 160.577C136.983 161.949 131.821 165.868 118.817 165.936Z" fill="white"/>
<path d="M136.662 152.629C138.948 153.897 139.07 156.688 137.629 158.797C136.692 160.17 132.928 163.534 119.93 163.925C104.06 164.404 95.2773 159.157 87.3857 152.166C79.494 145.175 73.5224 137.436 76.6848 126.956L81.4529 108.809M136.662 152.629C136.373 153.428 134.9 155.285 131.326 156.322M136.662 152.629C136.551 151.719 135.991 149.749 134.635 149.15C133.773 148.768 132.756 148.331 131.528 148.473M131.528 148.473C130.342 148.61 128.959 149.288 127.328 151.078M131.528 148.473C131.324 147.256 129.923 145.057 125.947 146.003C120.978 147.185 117.921 148.135 115.035 147.032C109.323 144.85 106.206 142.233 101.39 133.524" stroke="#626262" stroke-width="1.5" stroke-linecap="round"/>
<circle cx="42.8207" cy="42.8207" r="42.8207" transform="matrix(-1 0 0 1 357 4)" fill="#343645"/>
<path fill-rule="evenodd" clip-rule="evenodd" d="M292.427 52.7517C291.866 51.8691 291.857 50.7449 292.405 49.8538L313.048 16.3075C314.196 14.4416 316.969 14.6048 317.888 16.5923L336.746 57.3468C337.446 58.859 336.641 60.6381 335.04 61.1167L305.704 69.8843C304.524 70.237 303.252 69.7643 302.593 68.7274L292.427 52.7517ZM315.43 26.1162C315.629 25.1293 316.986 24.987 317.387 25.911L330.395 55.8982C330.64 56.4628 330.335 57.114 329.743 57.2898L309.475 63.3175C308.73 63.539 308.016 62.8905 308.169 62.131L315.43 26.1162Z" fill="white"/>
<circle cx="42.8207" cy="42.8207" r="42.0707" transform="matrix(-1 0 0 1 358 0)" stroke="#7F808D" stroke-width="1.5"/>
<path fill-rule="evenodd" clip-rule="evenodd" d="M86.4265 19.6715C86.4262 19.6729 86.4259 19.6744 86.4255 19.6759C86.1906 19.3942 85.8115 18.9972 85.3518 18.5159C82.7135 15.7536 77.4201 10.2114 81.4824 7.70685C84.1355 6.07107 85.6997 7.45318 86.4422 10.0219C87.2332 7.52992 88.8116 6.12895 91.3709 7.70687C95.4332 10.2114 90.1397 15.7537 87.5014 18.5159C87.0417 18.9973 86.6626 19.3942 86.4277 19.6759C86.4273 19.6744 86.4269 19.673 86.4265 19.6715Z" fill="#FF3F54"/>
<path d="M86.4255 19.6759L85.8495 20.1562C86.0333 20.3766 86.3267 20.4728 86.6053 20.404C86.8839 20.3352 87.0988 20.1135 87.1589 19.8329L86.4255 19.6759ZM86.4265 19.6715L87.1507 19.4763C87.0606 19.1419 86.7532 18.9127 86.4069 18.9217C86.0607 18.9308 85.7657 19.1757 85.6931 19.5144L86.4265 19.6715ZM85.3518 18.5159L84.8094 19.0339L84.8094 19.0339L85.3518 18.5159ZM81.4824 7.70685L81.876 8.34526L81.876 8.34526L81.4824 7.70685ZM86.4422 10.0219L85.7217 10.2301C85.8134 10.5475 86.1021 10.7675 86.4324 10.7718C86.7628 10.7761 87.0571 10.5637 87.157 10.2488L86.4422 10.0219ZM91.3709 7.70687L90.9773 8.34528L90.9773 8.34528L91.3709 7.70687ZM87.5014 18.5159L86.9591 17.9979L86.9591 17.9979L87.5014 18.5159ZM86.4277 19.6759L85.7036 19.8713C85.7765 20.1415 85.9937 20.3486 86.2671 20.4085C86.5405 20.4684 86.8245 20.3712 87.0037 20.1563L86.4277 19.6759ZM87.1589 19.8329C87.1591 19.8322 87.1592 19.8315 87.1594 19.8308C87.1595 19.83 87.1597 19.8293 87.1599 19.8285L85.6931 19.5144C85.693 19.5151 85.6928 19.5158 85.6927 19.5166C85.6925 19.5173 85.6923 19.5181 85.6922 19.5188L87.1589 19.8329ZM84.8094 19.0339C85.2778 19.5243 85.6349 19.8988 85.8495 20.1562L87.0016 19.1956C86.7463 18.8895 86.3452 18.4702 85.8942 17.9979L84.8094 19.0339ZM81.0887 7.06843C79.8742 7.81724 79.2963 8.8549 79.2527 10.0363C79.2114 11.154 79.6513 12.3128 80.2501 13.3814C81.4505 15.5236 83.5058 17.6691 84.8094 19.0339L85.8942 17.9979C84.5595 16.6005 82.6489 14.5937 81.5586 12.6481C81.0121 11.6728 80.7254 10.8037 80.7517 10.0916C80.7756 9.44305 81.0594 8.84872 81.876 8.34526L81.0887 7.06843ZM87.1627 9.81362C86.7733 8.46644 86.1217 7.2433 85.0486 6.63517C83.9073 5.9884 82.5473 6.16917 81.0887 7.06843L81.876 8.34526C83.0706 7.60874 83.8193 7.66268 84.309 7.94019C84.8669 8.25635 85.3686 9.00861 85.7217 10.2301L87.1627 9.81362ZM87.157 10.2488C87.5322 9.06694 88.0467 8.31419 88.6153 7.98945C89.1133 7.70506 89.8444 7.64685 90.9773 8.34528L91.7645 7.06845C90.338 6.18897 89.0003 6.04228 87.8715 6.68688C86.8134 7.29114 86.1432 8.48485 85.7273 9.79496L87.157 10.2488ZM90.9773 8.34528C91.7939 8.84874 92.0776 9.44307 92.1016 10.0916C92.1279 10.8038 91.8412 11.6728 91.2946 12.6481C90.2043 14.5938 88.2938 16.6005 86.9591 17.9979L88.0438 19.034C89.3474 17.6691 91.4027 15.5236 92.6032 13.3814C93.202 12.3128 93.6418 11.154 93.6006 10.0363C93.557 8.85492 92.979 7.81726 91.7645 7.06845L90.9773 8.34528ZM86.9591 17.9979C86.508 18.4702 86.1069 18.8895 85.8517 19.1956L87.0037 20.1563C87.2183 19.8989 87.5755 19.5243 88.0438 19.034L86.9591 17.9979ZM87.1518 19.4806C87.1511 19.4781 87.1517 19.4803 87.1507 19.4763L85.7023 19.8666C85.7025 19.8671 85.7026 19.8676 85.7028 19.8684C85.703 19.8691 85.7033 19.8702 85.7036 19.8713L87.1518 19.4806Z" fill="#626262"/>
<path fill-rule="evenodd" clip-rule="evenodd" d="M166.426 14.6715C166.426 14.6729 166.426 14.6744 166.426 14.6759C166.191 14.3942 165.812 13.9972 165.352 13.5159C162.714 10.7536 157.42 5.21139 161.482 2.70685C164.136 1.07107 165.7 2.45318 166.442 5.02187C167.233 2.52992 168.812 1.12895 171.371 2.70687C175.433 5.21141 170.14 10.7537 167.501 13.5159C167.042 13.9973 166.663 14.3942 166.428 14.6759C166.427 14.6744 166.427 14.673 166.426 14.6715Z" fill="#FF3F54"/>
<path d="M166.426 14.6759L165.85 15.1562C166.033 15.3766 166.327 15.4728 166.605 15.404C166.884 15.3352 167.099 15.1135 167.159 14.8329L166.426 14.6759ZM166.426 14.6715L167.151 14.4763C167.061 14.1419 166.753 13.9127 166.407 13.9217C166.061 13.9308 165.766 14.1757 165.693 14.5144L166.426 14.6715ZM165.352 13.5159L164.809 14.0339L164.809 14.0339L165.352 13.5159ZM161.482 2.70685L161.876 3.34526L161.876 3.34526L161.482 2.70685ZM166.442 5.02187L165.722 5.23012C165.813 5.54753 166.102 5.76751 166.432 5.77181C166.763 5.7761 167.057 5.5637 167.157 5.24878L166.442 5.02187ZM171.371 2.70687L170.977 3.34528L170.977 3.34528L171.371 2.70687ZM167.501 13.5159L166.959 12.9979L166.959 12.9979L167.501 13.5159ZM166.428 14.6759L165.704 14.8713C165.776 15.1415 165.994 15.3486 166.267 15.4085C166.54 15.4684 166.824 15.3712 167.004 15.1563L166.428 14.6759ZM167.159 14.8329C167.159 14.8322 167.159 14.8315 167.159 14.8308C167.16 14.83 167.16 14.8293 167.16 14.8285L165.693 14.5144C165.693 14.5151 165.693 14.5158 165.693 14.5166C165.693 14.5173 165.692 14.5181 165.692 14.5188L167.159 14.8329ZM164.809 14.0339C165.278 14.5243 165.635 14.8988 165.85 15.1562L167.002 14.1956C166.746 13.8895 166.345 13.4702 165.894 12.9979L164.809 14.0339ZM161.089 2.06843C159.874 2.81724 159.296 3.8549 159.253 5.03625C159.211 6.154 159.651 7.31279 160.25 8.38137C161.451 10.5236 163.506 12.6691 164.809 14.0339L165.894 12.9979C164.559 11.6005 162.649 9.59374 161.559 7.64809C161.012 6.67275 160.725 5.80373 160.752 5.09159C160.776 4.44305 161.059 3.84872 161.876 3.34526L161.089 2.06843ZM167.163 4.81362C166.773 3.46644 166.122 2.2433 165.049 1.63517C163.907 0.9884 162.547 1.16917 161.089 2.06843L161.876 3.34526C163.071 2.60874 163.819 2.66268 164.309 2.94019C164.867 3.25635 165.369 4.00861 165.722 5.23012L167.163 4.81362ZM167.157 5.24878C167.532 4.06694 168.047 3.31419 168.615 2.98945C169.113 2.70506 169.844 2.64685 170.977 3.34528L171.764 2.06845C170.338 1.18897 169 1.04228 167.871 1.68688C166.813 2.29114 166.143 3.48485 165.727 4.79496L167.157 5.24878ZM170.977 3.34528C171.794 3.84874 172.078 4.44307 172.102 5.09161C172.128 5.80375 171.841 6.67277 171.295 7.64811C170.204 9.59375 168.294 11.6005 166.959 12.9979L168.044 14.034C169.347 12.6691 171.403 10.5236 172.603 8.38139C173.202 7.31281 173.642 6.15402 173.601 5.03627C173.557 3.85492 172.979 2.81726 171.764 2.06845L170.977 3.34528ZM166.959 12.9979C166.508 13.4702 166.107 13.8895 165.852 14.1956L167.004 15.1563C167.218 14.8989 167.575 14.5243 168.044 14.034L166.959 12.9979ZM167.152 14.4806C167.151 14.4781 167.152 14.4803 167.151 14.4763L165.702 14.8666C165.702 14.8671 165.703 14.8676 165.703 14.8684C165.703 14.8691 165.703 14.8702 165.704 14.8713L167.152 14.4806Z" fill="#626262"/>
<path fill-rule="evenodd" clip-rule="evenodd" d="M185.426 28.6715C185.426 28.6729 185.426 28.6744 185.426 28.6759C185.191 28.3942 184.812 27.9972 184.352 27.5159C181.714 24.7536 176.42 19.2114 180.482 16.7068C183.136 15.0711 184.7 16.4532 185.442 19.0219C186.233 16.5299 187.812 15.129 190.371 16.7069C194.433 19.2114 189.14 24.7537 186.501 27.5159C186.042 27.9973 185.663 28.3942 185.428 28.6759C185.427 28.6744 185.427 28.673 185.426 28.6715Z" fill="#FF3F54"/>
<path d="M185.426 28.6759L184.85 29.1562C185.033 29.3766 185.327 29.4728 185.605 29.404C185.884 29.3352 186.099 29.1135 186.159 28.8329L185.426 28.6759ZM185.426 28.6715L186.151 28.4763C186.061 28.1419 185.753 27.9127 185.407 27.9217C185.061 27.9308 184.766 28.1757 184.693 28.5144L185.426 28.6715ZM184.352 27.5159L183.809 28.0339L183.809 28.0339L184.352 27.5159ZM180.482 16.7068L180.876 17.3453L180.876 17.3453L180.482 16.7068ZM185.442 19.0219L184.722 19.2301C184.813 19.5475 185.102 19.7675 185.432 19.7718C185.763 19.7761 186.057 19.5637 186.157 19.2488L185.442 19.0219ZM190.371 16.7069L189.977 17.3453L189.977 17.3453L190.371 16.7069ZM186.501 27.5159L185.959 26.9979L185.959 26.9979L186.501 27.5159ZM185.428 28.6759L184.704 28.8713C184.776 29.1415 184.994 29.3486 185.267 29.4085C185.54 29.4684 185.824 29.3712 186.004 29.1563L185.428 28.6759ZM186.159 28.8329C186.159 28.8322 186.159 28.8315 186.159 28.8308C186.16 28.83 186.16 28.8293 186.16 28.8285L184.693 28.5144C184.693 28.5151 184.693 28.5158 184.693 28.5166C184.693 28.5173 184.692 28.5181 184.692 28.5188L186.159 28.8329ZM183.809 28.0339C184.278 28.5243 184.635 28.8988 184.85 29.1562L186.002 28.1956C185.746 27.8895 185.345 27.4702 184.894 26.9979L183.809 28.0339ZM180.089 16.0684C178.874 16.8172 178.296 17.8549 178.253 19.0363C178.211 20.154 178.651 21.3128 179.25 22.3814C180.451 24.5236 182.506 26.6691 183.809 28.0339L184.894 26.9979C183.559 25.6005 181.649 23.5937 180.559 21.6481C180.012 20.6728 179.725 19.8037 179.752 19.0916C179.776 18.443 180.059 17.8487 180.876 17.3453L180.089 16.0684ZM186.163 18.8136C185.773 17.4664 185.122 16.2433 184.049 15.6352C182.907 14.9884 181.547 15.1692 180.089 16.0684L180.876 17.3453C182.071 16.6087 182.819 16.6627 183.309 16.9402C183.867 17.2563 184.369 18.0086 184.722 19.2301L186.163 18.8136ZM186.157 19.2488C186.532 18.0669 187.047 17.3142 187.615 16.9895C188.113 16.7051 188.844 16.6468 189.977 17.3453L190.764 16.0685C189.338 15.189 188 15.0423 186.871 15.6869C185.813 16.2911 185.143 17.4848 184.727 18.795L186.157 19.2488ZM189.977 17.3453C190.794 17.8487 191.078 18.4431 191.102 19.0916C191.128 19.8038 190.841 20.6728 190.295 21.6481C189.204 23.5938 187.294 25.6005 185.959 26.9979L187.044 28.034C188.347 26.6691 190.403 24.5236 191.603 22.3814C192.202 21.3128 192.642 20.154 192.601 19.0363C192.557 17.8549 191.979 16.8173 190.764 16.0685L189.977 17.3453ZM185.959 26.9979C185.508 27.4702 185.107 27.8895 184.852 28.1956L186.004 29.1563C186.218 28.8989 186.575 28.5243 187.044 28.034L185.959 26.9979ZM186.152 28.4806C186.151 28.4781 186.152 28.4803 186.151 28.4763L184.702 28.8666C184.702 28.8671 184.703 28.8676 184.703 28.8684C184.703 28.8691 184.703 28.8702 184.704 28.8713L186.152 28.4806Z" fill="#626262"/>
<defs>
<linearGradient id="paint0_linear_4695_2644" x1="121.251" y1="38.0542" x2="148.01" y2="33.4229" gradientUnits="userSpaceOnUse">
<stop stop-color="#B4BCF6"/>
<stop offset="0.515625" stop-color="#0DE4E0"/>
<stop offset="1" stop-color="#FADB28"/>
</linearGradient>
<linearGradient id="paint1_linear_4695_2644" x1="121.251" y1="38.0542" x2="148.01" y2="33.4229" gradientUnits="userSpaceOnUse">
<stop stop-color="#B4BCF6"/>
<stop offset="0.515625" stop-color="#0DE4E0"/>
<stop offset="1" stop-color="#FADB28"/>
</linearGradient>
<linearGradient id="paint2_linear_4695_2644" x1="121.251" y1="38.0542" x2="148.01" y2="33.4229" gradientUnits="userSpaceOnUse">
<stop stop-color="#B4BCF6"/>
<stop offset="0.515625" stop-color="#0DE4E0"/>
<stop offset="1" stop-color="#FADB28"/>
</linearGradient>
<linearGradient id="paint3_linear_4695_2644" x1="121.251" y1="38.0542" x2="148.01" y2="33.4229" gradientUnits="userSpaceOnUse">
<stop stop-color="#B4BCF6"/>
<stop offset="0.515625" stop-color="#0DE4E0"/>
<stop offset="1" stop-color="#FADB28"/>
</linearGradient>
<linearGradient id="paint4_linear_4695_2644" x1="121.251" y1="38.0542" x2="148.01" y2="33.4229" gradientUnits="userSpaceOnUse">
<stop stop-color="#B4BCF6"/>
<stop offset="0.515625" stop-color="#0DE4E0"/>
<stop offset="1" stop-color="#FADB28"/>
</linearGradient>
<clipPath id="clip0_4695_2644">
<rect width="18.759" height="18.759" fill="white" transform="matrix(0.393647 -0.919262 -0.919262 -0.393647 247.768 53.8906)"/>
</clipPath>
</defs>
</svg>
