<svg width="300" height="321" viewBox="0 0 300 321" fill="none" xmlns="http://www.w3.org/2000/svg">
<path d="M180.712 42.5726C184.231 39.6157 189.957 32.0386 184.707 25.3855C179.457 18.7325 173.198 19.2869 170.725 20.3957C153.891 16.6996 135.058 9.30726 103.101 14.8515C85.3358 17.9336 72.2847 30.0981 85.1248 49.5029C88.8342 55.9712 98.5355 65.692 107.666 52.8294C108.522 49.7801 109.378 42.2954 105.954 36.7512C101.674 29.8209 116.797 27.8804 123.93 28.4348C131.064 28.9893 161.024 29.5437 166.731 33.1474C171.296 36.0304 177.954 40.6321 180.712 42.5726Z" fill="#FF9FA9"/>
<path d="M155.504 159.725C156.743 160.01 159.39 159.668 160.076 156.01C162.362 156.201 166.991 155.667 167.219 152.01C168.648 155.058 172.134 160.468 174.648 157.725C177.506 152.296 180.02 139.495 167.219 131.723C178.363 117.722 196.935 80.3489 182.077 42.8612C178.268 31.813 168.534 9.77367 160.076 10.0023C149.504 10.288 151.79 21.4315 149.504 27.1461C147.218 32.8607 145.79 38.0038 139.218 39.1467C132.646 40.2896 117.788 33.1464 112.931 28.8604C108.073 24.5745 98.0727 18.5742 97.2155 28.8604C96.3583 39.1467 101.216 57.4334 99.2156 67.434C97.2155 77.4345 90.9293 90.5781 60.9277 115.151C30.9261 139.724 20.6398 155.153 12.3537 178.583C4.06749 202.013 4.35294 235.729 12.3537 248.015C8.63925 255.825 3.78202 273.845 14.0683 283.446C26.9261 295.446 39.784 291.732 56.9278 283.446C66.2616 288.017 90.9868 296.018 115.217 291.446C145.504 285.732 166.077 278.874 170.362 281.16C171.505 285.827 175.906 294.418 184.363 291.446C192.821 288.475 190.554 283.35 188.363 281.16C188.363 280.779 190.764 280.703 200.364 283.446C212.365 286.874 236.938 280.017 245.795 274.017C254.653 268.016 260.653 259.444 258.082 253.73C255.51 248.015 245.401 244.299 241.401 246.299C240.544 245.347 231.509 250.93 240.652 245.444C252.081 238.586 241.795 228.586 235.223 229.728C228.651 230.871 224.08 234.872 221.508 237.443C218.937 240.015 208.365 244.015 206.079 242.015C203.793 240.015 191.221 234.872 189.792 221.442C188.649 210.699 182.268 200.013 179.22 196.012C187.602 194.393 205.793 189.898 211.508 184.869C215.413 190.774 224.08 200.984 227.508 194.584C230.937 188.183 226.842 185.44 224.365 184.869C224.365 183.535 225.451 180.812 229.794 180.583C235.223 180.297 238.08 189.155 242.938 184.869C246.824 181.44 243.033 179.25 240.652 178.583C242.843 178.202 247.452 176.754 248.367 174.011C249.281 171.268 239.985 171.535 235.223 172.011C235.89 169.439 234.652 164.811 224.365 166.868C218.651 166.106 205.107 165.325 196.65 168.297C186.078 172.011 158.362 172.868 153.219 166.868L155.504 159.725Z" fill="#FEFEFE"/>
<ellipse cx="96.322" cy="42.38" rx="11.1035" ry="17.2098" transform="rotate(-16.1921 96.322 42.38)" fill="#FF9FA9"/>
<ellipse cx="231.857" cy="231.387" rx="1.71438" ry="2.8573" transform="rotate(52.9768 231.857 231.387)" fill="#B4BCF6"/>
<ellipse cx="235.857" cy="233.673" rx="1.71438" ry="2.8573" transform="rotate(52.9768 235.857 233.673)" fill="#B4BCF6"/>
<ellipse cx="235.857" cy="238.245" rx="1.71438" ry="2.8573" transform="rotate(52.9768 235.857 238.245)" fill="#B4BCF6"/>
<ellipse cx="227.996" cy="237.901" rx="3.70246" ry="4.39508" transform="rotate(52.9768 227.996 237.901)" fill="#B4BCF6"/>
<path d="M125.109 173.438C115.508 174.124 107.775 188.772 105.108 196.011C124.538 191.668 137.014 195.725 140.824 198.297C139.586 189.725 134.71 172.752 125.109 173.438Z" fill="#B4BCF6"/>
<path d="M195.08 248.583C194.359 245.041 197.066 241.727 200.68 241.727H254.236C256.786 241.727 259.028 240.037 259.73 237.585L286.826 142.883C287.199 141.58 288.022 140.452 289.15 139.7L293.205 136.997C294.403 136.198 295.916 136.041 297.252 136.575C299.298 137.393 300.414 139.607 299.857 141.738L272.003 248.238C271.818 248.947 271.177 249.442 270.443 249.442C269.553 249.442 268.831 250.164 268.831 251.054V253.299C268.831 255.43 267.104 257.157 264.974 257.157H255.402C255.402 257.157 256.83 252.014 251.401 247.442C245.973 242.87 214.542 257.157 214.542 257.157H201.495C198.778 257.157 196.437 255.245 195.895 252.583L195.08 248.583Z" fill="#ECEEFD"/>
<circle cx="259.974" cy="254.014" r="1.71438" fill="black"/>
<path d="M198.542 284.301C196.567 282.512 193.086 283.677 192.234 285.348C192.968 287.666 196.175 292.126 197.685 290.873C199.572 289.305 201.011 286.536 198.542 284.301Z" fill="#6878ED"/>
<path d="M192.996 285.43C194.059 283.692 196.079 282.186 198.27 283.906C201.008 286.057 199.7 289.019 197.449 290.702" stroke="black" stroke-width="3" stroke-linecap="round"/>
<path d="M170.54 282.872C163.761 285.703 159.735 290.673 160.41 298.055C160.951 303.96 187.292 307.955 198.086 304.37C199.33 303.126 200.404 303.488 200.205 301.203C199.866 297.296 198.086 288.301 186.827 282.872" stroke="black" stroke-width="3" stroke-linecap="round" stroke-linejoin="round"/>
<path d="M198.432 303.343C198.673 296.732 193.194 289.323 185.112 286.016" stroke="black" stroke-linecap="round" stroke-dasharray="2 2"/>
<path d="M176.281 301.168L184.804 294.226C182.981 292.768 178.338 290.318 174.342 292.182C170.346 294.046 173.645 299.602 176.281 301.168Z" fill="#6878ED"/>
<path d="M183.831 294.024C181.94 292.554 176.212 289.182 173.2 292.963C170.273 296.637 173.673 299.296 176.389 300.788" stroke="black" stroke-width="3" stroke-linecap="round" stroke-linejoin="round"/>
<ellipse rx="2.1783" ry="1.86711" transform="matrix(0.192445 0.981308 0.981308 -0.192445 188.127 299.081)" fill="black"/>
<path d="M199.302 294.754L200.173 297.735C200.561 297.372 200.766 296.726 200.561 296.012C200.354 295.29 199.829 294.849 199.302 294.754Z" fill="black" stroke="black" stroke-linecap="round"/>
<path d="M10.2454 245.442C-3.99794 210.381 3.38836 172.406 28.5326 141.722C53.6768 111.038 69.9633 105.149 81.6782 90.5763C90.1303 80.0626 95.2367 71.5501 96.2095 58.2889M165.968 128.007C171.759 116.716 178.462 103.658 180.826 90.5763C184.094 72.4897 184.513 58.9125 177.789 38.2878C175.681 31.8218 172.898 25.2249 169.324 18.493C161.148 3.09306 151.124 1.60997 147.278 19.9721C143.679 37.1603 135.463 37.7358 122.538 32.3332C117.396 30.1838 106.009 21.443 106.009 21.443C100.53 17.9987 96.075 16.939 94.891 24.5727M152.796 156.58C147.861 169.637 148.572 184.134 152.796 204.583" stroke="black" stroke-width="3" stroke-linecap="round"/>
<circle cx="117.502" cy="81.6845" r="12.6007" transform="rotate(-3.44294 117.502 81.6845)" fill="#FF3F54"/>
<path d="M98.9939 87.7874L117.502 79.387" stroke="black" stroke-width="3" stroke-linecap="round"/>
<path d="M97.2079 76.9288L117.394 79.3039" stroke="black" stroke-width="3" stroke-linecap="round"/>
<circle r="12.6007" transform="matrix(-0.999967 0.00809726 0.00809726 0.999967 180.184 77.5553)" fill="#FF3F54"/>
<path d="M200.153 79.6106L179.892 77.9985" stroke="black" stroke-width="3" stroke-linecap="round"/>
<path d="M180.855 56.7472C178.662 48.0082 161.09 47.2901 161.52 61.6001" stroke="black" stroke-width="3" stroke-linecap="round"/>
<path d="M143.71 61.3195C141.517 52.5805 123.946 51.8623 124.375 66.1723" stroke="black" stroke-width="3" stroke-linecap="round"/>
<path d="M198.231 68.8836L180.053 77.976" stroke="black" stroke-width="3" stroke-linecap="round"/>
<path fill-rule="evenodd" clip-rule="evenodd" d="M113.123 59.0817C113.019 58.4037 113.484 57.7695 114.162 57.6651L117.928 57.0853C118.606 56.9809 119.24 57.4459 119.345 58.1238C119.449 58.8018 118.984 59.436 118.306 59.5404L114.54 60.1202C113.862 60.2246 113.228 59.7596 113.123 59.0817Z" fill="url(#paint0_linear_1131_2883)"/>
<path fill-rule="evenodd" clip-rule="evenodd" d="M179.735 48.826C179.631 48.1481 180.096 47.5138 180.774 47.4095L184.54 46.8296C185.218 46.7252 185.852 47.1902 185.957 47.8682C186.061 48.5461 185.596 49.1803 184.918 49.2847L181.152 49.8646C180.474 49.9689 179.84 49.504 179.735 48.826Z" fill="url(#paint1_linear_1131_2883)"/>
<path fill-rule="evenodd" clip-rule="evenodd" d="M129.263 48.706C122.871 49.6902 118.459 55.8046 119.476 62.4129C120.494 69.0212 126.541 73.5253 132.933 72.5411C139.326 71.5569 143.738 65.4425 142.72 58.8342C141.703 52.2258 135.656 47.7218 129.263 48.706ZM117.021 62.7909C115.803 54.8795 121.085 47.4519 128.885 46.2509C136.686 45.0499 143.957 50.5448 145.176 58.4562C146.394 66.3675 141.112 73.7951 133.311 74.9962C125.51 76.1972 118.239 70.7022 117.021 62.7909Z" fill="url(#paint2_linear_1131_2883)"/>
<path fill-rule="evenodd" clip-rule="evenodd" d="M166.925 42.9075C160.533 43.8917 156.121 50.0061 157.138 56.6144C158.156 63.2227 164.203 67.7268 170.595 66.7426C176.988 65.7584 181.4 59.644 180.382 53.0357C179.365 46.4273 173.318 41.9233 166.925 42.9075ZM154.683 56.9924C153.465 49.081 158.747 41.6534 166.547 40.4524C174.348 39.2514 181.62 44.7463 182.838 52.6577C184.056 60.569 178.774 67.9966 170.973 69.1977C163.172 70.3987 155.901 64.9037 154.683 56.9924Z" fill="url(#paint3_linear_1131_2883)"/>
<path fill-rule="evenodd" clip-rule="evenodd" d="M145.075 55.2051C145.001 55.7339 144.589 56.1744 144.034 56.2598C143.356 56.3642 142.721 55.8992 142.617 55.2213C142.488 54.3815 142.985 53.7576 143.339 53.4257C143.729 53.0605 144.245 52.7562 144.789 52.5038C145.892 51.9917 147.386 51.5672 149.018 51.316C150.65 51.0647 152.202 51.0202 153.409 51.1767C154.003 51.2538 154.587 51.3887 155.069 51.6198C155.506 51.8298 156.168 52.2753 156.297 53.1151C156.402 53.793 155.937 54.4272 155.259 54.5316C154.704 54.6171 154.178 54.321 153.948 53.8389C153.791 53.7726 153.511 53.6948 153.089 53.64C152.174 53.5213 150.864 53.545 149.396 53.7711C147.928 53.9971 146.672 54.3683 145.834 54.757C145.448 54.9362 145.205 55.0944 145.075 55.2051ZM144.986 55.2924C144.986 55.2924 144.989 55.2877 144.998 55.278C144.991 55.2875 144.986 55.2924 144.986 55.2924ZM154.059 53.8956C154.059 53.8956 154.053 53.8924 154.044 53.8853C154.055 53.8919 154.059 53.8956 154.059 53.8956Z" fill="url(#paint4_linear_1131_2883)"/>
<path d="M163.172 78.0048C164.567 87.6624 145.942 95.7953 140.25 81.3155L163.172 78.0048Z" stroke="black" stroke-width="3" stroke-linecap="round" stroke-linejoin="round"/>
<path d="M145.109 80.752L146.122 88.1306" stroke="black" stroke-width="3" stroke-linecap="round" stroke-linejoin="round"/>
<path d="M159.098 78.8203L160.424 85.2583" stroke="black" stroke-width="3" stroke-linecap="round" stroke-linejoin="round"/>
<path d="M149.945 80.1602L151.262 89.1895" stroke="black" stroke-width="3" stroke-linecap="round" stroke-linejoin="round"/>
<path d="M154.656 79.4917L156.059 87.9086" stroke="black" stroke-width="3" stroke-linecap="round" stroke-linejoin="round"/>
<rect x="259.974" y="248.859" width="117.721" height="6.85752" rx="3.42876" transform="rotate(-75 259.974 248.859)" stroke="black" stroke-width="3"/>
<path d="M195.113 250.014H231.258M254.83 250.014H261.688C263.581 250.014 265.117 251.549 265.117 253.442V253.442C265.117 255.336 263.581 256.871 261.688 256.871H255.973M213.685 256.871H201.97" stroke="black" stroke-width="3" stroke-linecap="round"/>
<path d="M66.2485 228.012C67.3914 224.012 95.1072 186.867 132.824 195.725C170.21 204.505 195.97 258.585 205.113 259.157C214.257 259.728 247.401 238.298 254.259 249.728C265.916 269.157 208.435 285.475 193.113 279.729C190.905 278.901 188.618 278.298 186.255 277.883M21.3889 260.871C25.5633 265.541 30.8734 269.498 36.8183 272.824M169.111 277.59C147.384 279.78 121.536 289.376 94.5357 288.015C83.4424 287.456 68.2752 285.158 53.9621 280.307" stroke="black" stroke-width="3" stroke-linecap="round"/>
<path d="M10.2455 245.442C7.89083 248.539 5.84118 254.074 5.33625 258.095C4.81204 262.27 5.03344 267.091 6.5331 271.705C8.05145 276.376 10.9593 281.028 15.8758 284.26C20.8063 287.501 27.0504 288.849 34.3916 288.183C44.1486 287.298 51.8021 282.487 58.2011 276.734C62.9287 272.483 67.4484 267.243 71.7279 262.282C73.0551 260.743 74.3592 259.231 75.6392 257.784C86.9101 245.041 98.2022 234.918 116.977 235.779C133.946 236.558 146.962 246.535 156.434 257.954C165.432 268.802 170.558 280.158 172.231 283.864C172.314 284.047 172.388 284.211 172.454 284.356C172.789 285.092 173.233 285.744 173.759 286.302M20.8737 255.376C20.5868 255.753 19.8384 257.271 19.5114 259.875C19.2038 262.326 19.3726 264.99 20.1199 267.289C20.8484 269.53 22.0443 271.218 23.7228 272.321C25.3874 273.415 28.2296 274.397 33.1008 273.955C38.6094 273.455 43.4713 270.765 48.6494 266.11C52.6409 262.521 56.3128 258.267 60.4328 253.494C61.8691 251.83 63.3599 250.103 64.9377 248.319C76.6891 235.032 91.9106 220.327 117.632 221.508C140.268 222.547 156.677 235.869 167.43 248.833C177.688 261.2 183.476 274.043 185.222 277.918C185.312 278.116 185.39 278.291 185.459 278.441C186.897 281.603 185.838 285.265 183.112 287.21" stroke="black" stroke-width="3" stroke-linecap="round"/>
<path d="M239.25 242.013C241.089 238.953 243.662 233.517 239.25 229.614C233.735 224.737 225.564 229.127 216.257 236.013C212.559 238.749 206.524 241.459 199.97 237.156C182.826 225.9 190.006 209.563 177.488 193.725" stroke="black" stroke-width="3" stroke-linecap="round"/>
<path d="M45.1047 205.754C51.8484 210.065 66.2916 211.103 79.3935 201.44C95.7709 189.361 98.2182 175.947 118.167 156.77C129.668 145.715 136.869 147.344 148.638 150.919M79.3935 150.919C103.394 126.007 113.391 122.797 132.162 120.752C144.253 119.436 175.398 121.721 173.969 149.151C172.826 158.354 164.254 151.723 164.54 145.723" stroke="black" stroke-width="3" stroke-linecap="round"/>
<path d="M162.54 135.436C164.825 140.388 167.054 150.636 157.682 152.008" stroke="black" stroke-width="3" stroke-linecap="round"/>
<path d="M154.254 142.865C157.587 146.579 159.74 154.637 154.254 156.008C148.768 157.38 146.158 152.865 143.968 150.579" stroke="black" stroke-width="3" stroke-linecap="round"/>
<path d="M151.682 163.723C165.682 169.438 187.912 168.295 199.113 164.866C213.114 160.58 228.543 164.009 232.829 169.152C237.115 174.295 242.175 179.807 240.258 181.724C236.829 185.153 229.876 178.105 227.4 176.867" stroke="black" stroke-width="3" stroke-linecap="round"/>
<path d="M231.972 167.724C233.521 168.045 237.972 169.227 242.802 169.227C248.279 169.227 241.532 175.357 238.908 175.423" stroke="black" stroke-width="3" stroke-linecap="round"/>
<path d="M226.543 177.438C224.067 178.867 219.857 182.353 222.829 184.867C226.543 188.01 226.257 194.01 219.4 192.296C213.914 190.924 209.495 181.819 207.971 177.438" stroke="black" stroke-width="3" stroke-linecap="round"/>
<path d="M207.113 182.295C199.494 186.867 174.769 197.496 151.682 192.01" stroke="black" stroke-width="3" stroke-linecap="round"/>
<path d="M220.829 163.724C222.829 163.152 231.972 161.438 233.686 167.724" stroke="black" stroke-width="3" stroke-linecap="round"/>
<path d="M253.116 249.156C249.592 250.204 242.315 252.471 241.401 253.156" stroke="black" stroke-width="3" stroke-linecap="round"/>
<path d="M255.402 253.442C252.259 255.252 245.744 258.928 244.83 259.157" stroke="black" stroke-width="3" stroke-linecap="round"/>
<path d="M290.547 136.579L286.966 138.816C284.858 140.134 283.316 142.191 282.641 144.584L256.498 237.367C255.331 241.507 256.943 245.93 260.5 248.348L261.688 249.156" stroke="black" stroke-width="3" stroke-linecap="round"/>
<path d="M254.83 242.299H190.255" stroke="black" stroke-width="3" stroke-linecap="round"/>
<path d="M171.683 287.73C174.064 287.064 179.912 286.359 184.255 288.873" stroke="black" stroke-width="3" stroke-linecap="round"/>
<path d="M259.973 254.585C260.545 256.967 257.687 265.729 273.403 265.729C285.978 265.729 283.749 278.587 272.831 278.587C259.031 278.587 257.414 278.587 244.258 278.587C225.114 278.587 225.114 289.444 239.115 289.444C257.116 289.444 257.687 304.017 231.686 304.017C222.771 304.017 203.875 304.017 199.684 304.017" stroke="black" stroke-width="3" stroke-linecap="round"/>
<path d="M18.2463 292.016C19.9607 293.063 25.6753 294.987 34.8187 294.301" stroke="black" stroke-width="3" stroke-linecap="round"/>
<path d="M26.8181 298.679C28.7381 299.271 34.7508 299.724 43.4417 296.802" stroke="black" stroke-width="3" stroke-linecap="round"/>
<path d="M169.397 16.572C171.207 16.1911 175.626 16.2863 178.826 19.7151C182.827 24.001 183.112 30.8585 182.541 32.8586C182.084 34.4587 179.874 37.9065 178.826 39.4304" stroke="black" stroke-width="3" stroke-linecap="round"/>
<path d="M92.8216 56.8601C103.965 57.7173 106.087 48.6863 104.536 40.2878C102.986 31.8893 95.9645 20.8582 87.6783 27.7157" stroke="black" stroke-width="3"/>
<ellipse cx="90.2532" cy="42.217" rx="7.58115" ry="14.5722" transform="rotate(-10.4596 90.2532 42.217)" stroke="black" stroke-width="3"/>
<path d="M168.54 17.4297C172.255 17.9059 180.541 27.716 179.112 38.8594" stroke="black" stroke-width="3" stroke-linecap="round"/>
<path d="M148.538 14.8583C122.254 10.2866 77.9649 11.7152 82.2497 32.8593" stroke="black" stroke-width="3" stroke-linecap="round"/>
<path d="M144.253 26.5624C133.9 25.5089 119.394 24.2868 112.823 26.5624" stroke="black" stroke-width="3" stroke-linecap="round"/>
<path d="M149.11 13.4297C72.5348 0.857542 67.964 35.7166 84.2502 48.8602" stroke="black" stroke-width="3" stroke-linecap="round"/>
<path d="M184.541 2L179.398 10.8576" stroke="black" stroke-width="3" stroke-linecap="round"/>
<path d="M196.689 33.2314L186.679 31.0579" stroke="black" stroke-width="3" stroke-linecap="round"/>
<path d="M197.928 15.1937L185.669 21.15" stroke="black" stroke-width="3" stroke-linecap="round"/>
<path d="M73.3647 51.724L61.1054 57.6803" stroke="black" stroke-width="3" stroke-linecap="round"/>
<path d="M71.764 38.6852L58.1344 38.7166" stroke="black" stroke-width="3" stroke-linecap="round"/>
<path d="M82.9448 56.986L75.527 68.4203" stroke="black" stroke-width="3" stroke-linecap="round"/>
<path d="M160.254 286.015C159.206 287.158 157.111 290.244 157.111 293.444" stroke="black" stroke-width="3" stroke-linecap="round"/>
<path d="M154.825 289.444C153.968 290.777 152.653 294.301 154.253 297.73" stroke="black" stroke-width="3" stroke-linecap="round"/>
<path d="M202.828 306.874C201.685 307.826 197.856 309.674 191.684 309.446" stroke="black" stroke-width="3" stroke-linecap="round"/>
<line x1="194.541" y1="244.013" x2="251.69" y2="244.02" stroke="black" stroke-width="4" stroke-linecap="round" stroke-dasharray="6 6"/>
<line x1="195.113" y1="246.871" x2="233.401" y2="246.871" stroke="black" stroke-width="4" stroke-linecap="round" stroke-dasharray="6 6"/>
<path d="M124.739 217.54C128.554 217.888 139.274 219.39 152.472 228.71" stroke="black" stroke-width="3" stroke-linecap="round"/>
<defs>
<linearGradient id="paint0_linear_1131_2883" x1="123.695" y1="64.4943" x2="166.751" y2="57.0422" gradientUnits="userSpaceOnUse">
<stop stop-color="#B4BCF6"/>
<stop offset="0.515625" stop-color="#0DE4E0"/>
<stop offset="1" stop-color="#FADB28"/>
</linearGradient>
<linearGradient id="paint1_linear_1131_2883" x1="123.695" y1="64.4943" x2="166.751" y2="57.0422" gradientUnits="userSpaceOnUse">
<stop stop-color="#B4BCF6"/>
<stop offset="0.515625" stop-color="#0DE4E0"/>
<stop offset="1" stop-color="#FADB28"/>
</linearGradient>
<linearGradient id="paint2_linear_1131_2883" x1="123.695" y1="64.4943" x2="166.751" y2="57.0422" gradientUnits="userSpaceOnUse">
<stop stop-color="#B4BCF6"/>
<stop offset="0.515625" stop-color="#0DE4E0"/>
<stop offset="1" stop-color="#FADB28"/>
</linearGradient>
<linearGradient id="paint3_linear_1131_2883" x1="123.695" y1="64.4943" x2="166.751" y2="57.0422" gradientUnits="userSpaceOnUse">
<stop stop-color="#B4BCF6"/>
<stop offset="0.515625" stop-color="#0DE4E0"/>
<stop offset="1" stop-color="#FADB28"/>
</linearGradient>
<linearGradient id="paint4_linear_1131_2883" x1="123.695" y1="64.4943" x2="166.751" y2="57.0422" gradientUnits="userSpaceOnUse">
<stop stop-color="#B4BCF6"/>
<stop offset="0.515625" stop-color="#0DE4E0"/>
<stop offset="1" stop-color="#FADB28"/>
</linearGradient>
</defs>
</svg>
