<svg width="358" height="221" viewBox="0 0 358 221" fill="none" xmlns="http://www.w3.org/2000/svg">
<path d="M183.211 84.8296C182.406 89.6596 191.717 86.8958 192.289 91.6197C192.997 97.4589 193.78 104.783 189.273 112.857C177.707 133.574 162.241 135.695 162.241 135.695L149.657 173.914C198.13 171.584 208.243 112.734 207.45 104.001C215.375 105.399 227.716 84.807 214.039 84.8296C213.951 81.214 214.376 77.0067 210.714 79.362C212.68 76.4538 213.429 65.2476 208.604 64.1203C202.793 62.7629 201.614 75.7728 199.408 79.362C194.62 90.2214 184.143 79.2365 183.211 84.8296Z" fill="white"/>
<path d="M160.661 4.00181C169.367 3.76673 179.387 26.4332 183.308 37.7958C196.128 70.1121 184.77 102.346 174.005 120.41C167.841 130.753 156.728 150.078 154.194 174.423C151.858 196.862 161.685 200.135 159.345 216.497C157.005 232.858 108.814 198.038 62.961 215.562C17.1083 233.085 -1.30303 201.84 8.60428 177.38C18.5116 152.919 30.6851 139.621 60.1532 112.716C87.2905 87.9396 95.9563 73.3529 98.0151 63.0678C100.074 52.7827 95.074 33.9756 95.9563 23.3966C96.8387 12.8176 107.133 18.9887 112.133 23.3966C117.133 27.8045 132.426 35.151 139.191 33.9756C145.956 32.8002 147.426 27.5107 149.779 21.6335C152.132 15.7562 149.779 4.29568 160.661 4.00181Z" fill="white"/>
<path d="M132.372 158.725C117.273 156.406 109.483 172.197 114.632 185.654C118.577 195.965 127.305 209.961 132.772 210.256C140.293 210.661 145.665 193.79 145.593 188.405C145.47 179.107 147.471 161.043 132.372 158.725Z" fill="#B4BCF6"/>
<path d="M25.7462 139.556C12.5141 155.726 4.08589 173.872 1 192.573M152.956 204C148.633 183.036 147.904 168.174 152.956 154.788L166.441 125.495C172.369 113.92 179.231 100.532 181.651 87.1212C184.997 68.5789 185.426 54.6595 178.543 33.5152C176.385 26.8863 173.535 20.1231 169.876 13.2216C161.506 -2.56637 151.245 -4.08683 147.308 14.738C143.623 32.3593 135.212 32.9493 121.981 27.4105C116.717 25.207 105.06 16.2459 105.06 16.2459C99.4508 12.7148 92.0892 14.738 93.6782 25.745M93.6782 29.939C98.1384 69.0829 88.8047 76.3426 80.1521 87.1212C72.7841 96.2996 42.1204 123.905 30.2019 134.323" stroke="#626262" stroke-width="1.5" stroke-linecap="round"/>
<circle cx="124.097" cy="78.9003" r="12.9207" transform="rotate(-3.44294 124.097 78.9003)" fill="#FF3F54"/>
<path d="M106.983 87.0227L125.961 78.4089" stroke="#626262" stroke-width="1.5" stroke-linecap="round"/>
<path d="M105.152 75.8879L125.85 78.3233" stroke="#626262" stroke-width="1.5" stroke-linecap="round"/>
<circle cx="9.21992" cy="9.21992" r="9.21992" transform="matrix(-0.999967 0.00809726 0.00809726 0.999967 195.652 65.3699)" fill="#FF3F54"/>
<path d="M199.255 76.1684L184.43 74.9888" stroke="#2F3744" stroke-width="1.5" stroke-linecap="round"/>
<path d="M201.021 66.0618L184.612 74.6383" stroke="#626262" stroke-width="1.5" stroke-linecap="round"/>
<ellipse cx="149" cy="60.5" rx="2" ry="2.5" fill="#626262"/>
<path d="M155.25 59C155.25 64.6298 150.469 69.25 144.5 69.25C138.531 69.25 133.75 64.6298 133.75 59C133.75 53.3702 138.531 48.75 144.5 48.75C150.469 48.75 155.25 53.3702 155.25 59Z" stroke="#626262" stroke-width="1.5"/>
<path d="M131.893 47.471C133.798 41.594 140.106 38.3741 145.983 40.2791" stroke="#626262" stroke-width="1.5" stroke-linecap="round"/>
<path d="M168.768 40.1463C174.118 37.0573 180.959 38.8905 184.048 44.2407" stroke="#626262" stroke-width="1.5" stroke-linecap="round"/>
<path d="M183.25 59C183.25 64.6298 178.469 69.25 172.5 69.25C166.531 69.25 161.75 64.6298 161.75 59C161.75 53.3702 166.531 48.75 172.5 48.75C178.469 48.75 183.25 53.3702 183.25 59Z" stroke="#626262" stroke-width="1.5"/>
<ellipse cx="176.5" cy="60" rx="2.5" ry="2" fill="#626262"/>
<path d="M94.0209 129C93.3165 136.03 110.492 197.279 136 214" stroke="#626262" stroke-width="1.5" stroke-linecap="round"/>
<path d="M58.7859 166.1C60.5749 170.764 72.0545 189.987 88.5995 203.471" stroke="#626262" stroke-width="1.5" stroke-linecap="round"/>
<path d="M181.816 86.7551C183.115 91.1204 190.69 88.927 190.994 93.766C191.368 99.7476 190.028 105.503 184.98 113.454C179.445 122.172 172.828 126.709 165.968 128.95M205.079 85.7279C203.843 86.7408 200.446 89.3645 202.838 91.8619C204.733 93.8409 208.316 91.7494 210.322 90.1455C209.552 90.7365 207.265 93.1726 208.387 95.4936C210.563 99.9941 216.824 94.2016 216.651 91.1205C216.512 88.6555 213.969 87.8997 212.715 87.8298C212.715 80.6961 210.532 81.5698 206.679 83.7529C208.845 80.9087 212.842 65.1526 207.452 64.3828C204.19 63.9168 200.927 69.976 203.723 74.6369" stroke="#626262" stroke-width="1.5" stroke-linecap="round"/>
<path fill-rule="evenodd" clip-rule="evenodd" d="M131.015 75.4012C130.908 74.7014 131.386 74.0467 132.084 73.9389L135.961 73.3403C136.659 73.2326 137.312 73.7126 137.419 74.4124C137.526 75.1123 137.048 75.767 136.35 75.8748L132.473 76.4733C131.775 76.5811 131.123 76.1011 131.015 75.4012Z" fill="url(#paint0_linear_3670_1386)"/>
<path fill-rule="evenodd" clip-rule="evenodd" d="M199.581 64.8143C199.474 64.1144 199.952 63.4597 200.65 63.352L204.527 62.7534C205.225 62.6456 205.877 63.1256 205.985 63.8255C206.092 64.5253 205.614 65.18 204.916 65.2878L201.039 65.8864C200.341 65.9941 199.688 65.5141 199.581 64.8143Z" fill="url(#paint1_linear_3670_1386)"/>
<path fill-rule="evenodd" clip-rule="evenodd" d="M147.629 64.6904C141.049 65.7064 136.507 72.0183 137.554 78.8401C138.602 85.6619 144.826 90.3115 151.406 89.2955C157.986 88.2795 162.528 81.9676 161.48 75.1457C160.433 68.3239 154.209 63.6743 147.629 64.6904ZM135.027 79.2303C133.773 71.0634 139.21 63.3958 147.24 62.1559C155.269 60.9161 162.754 66.5886 164.008 74.7555C165.261 82.9225 159.825 90.5901 151.795 91.8299C143.765 93.0697 136.281 87.3972 135.027 79.2303Z" fill="url(#paint2_linear_3670_1386)"/>
<path fill-rule="evenodd" clip-rule="evenodd" d="M186.396 58.7045C179.815 59.7205 175.274 66.0324 176.321 72.8543C177.368 79.6761 183.593 84.3257 190.173 83.3096C196.753 82.2936 201.295 75.9817 200.247 69.1599C199.2 62.3381 192.976 57.6885 186.396 58.7045ZM173.794 73.2445C172.54 65.0775 177.977 57.4099 186.006 56.1701C194.036 54.9303 201.521 60.6028 202.774 68.7697C204.028 76.9366 198.592 84.6042 190.562 85.8441C182.532 87.0839 175.048 81.4114 173.794 73.2445Z" fill="url(#paint3_linear_3670_1386)"/>
<path fill-rule="evenodd" clip-rule="evenodd" d="M163.904 71.3994C163.828 71.9454 163.403 72.4 162.832 72.4882C162.134 72.596 161.481 72.116 161.374 71.4161C161.241 70.5492 161.753 69.9052 162.117 69.5626C162.518 69.1855 163.05 68.8714 163.609 68.6109C164.745 68.0822 166.283 67.644 167.963 67.3846C169.642 67.1253 171.241 67.0793 172.482 67.2408C173.094 67.3205 173.695 67.4598 174.191 67.6983C174.641 67.9151 175.322 68.375 175.455 69.2419C175.563 69.9417 175.084 70.5964 174.386 70.7042C173.815 70.7924 173.274 70.4868 173.038 69.9891C172.875 69.9206 172.588 69.8403 172.153 69.7838C171.211 69.6612 169.863 69.6857 168.352 69.9191C166.841 70.1524 165.548 70.5356 164.686 70.9368C164.288 71.1218 164.038 71.2851 163.904 71.3994ZM163.813 71.4896C163.813 71.4896 163.816 71.4847 163.825 71.4747C163.818 71.4845 163.813 71.4896 163.813 71.4896ZM173.151 70.0477C173.151 70.0477 173.145 70.0444 173.136 70.037C173.147 70.0439 173.151 70.0477 173.151 70.0477Z" fill="url(#paint4_linear_3670_1386)"/>
<path d="M225.451 41.2354H349.796V124.178C349.796 125.421 348.788 126.428 347.546 126.428H227.701C226.459 126.428 225.451 125.421 225.451 124.178V41.2354Z" fill="#FEF6C9" stroke="#626262" stroke-width="1.5"/>
<path d="M225.451 44.3962H349.796V25.7739C349.796 24.5312 348.788 23.5239 347.546 23.5239H227.701C226.459 23.5239 225.451 24.5312 225.451 25.7739V44.3962Z" fill="#FCFCFD" stroke="#626262" stroke-width="1.5"/>
<path d="M235.914 38.6382V30.0483H239.564C240.482 30.0483 241.148 30.1265 241.562 30.2827C241.98 30.4351 242.314 30.7085 242.564 31.103C242.814 31.4976 242.939 31.9487 242.939 32.4565C242.939 33.1011 242.75 33.6343 242.371 34.0562C241.992 34.4741 241.426 34.7378 240.672 34.8472C241.047 35.0659 241.355 35.3062 241.597 35.5679C241.843 35.8296 242.174 36.2944 242.588 36.9624L243.636 38.6382H241.562L240.308 36.769C239.863 36.1011 239.558 35.6812 239.394 35.5093C239.23 35.3335 239.056 35.2144 238.873 35.1519C238.689 35.0854 238.398 35.0522 238 35.0522H237.648V38.6382H235.914ZM237.648 33.6812H238.931C239.763 33.6812 240.283 33.646 240.49 33.5757C240.697 33.5054 240.859 33.3843 240.976 33.2124C241.093 33.0405 241.152 32.8257 241.152 32.5679C241.152 32.2788 241.074 32.0464 240.918 31.8706C240.765 31.6909 240.549 31.5776 240.267 31.5308C240.127 31.5112 239.705 31.5015 239.002 31.5015H237.648V33.6812ZM245.3 38.6382V30.0483H251.669V31.5015H247.034V33.4058H251.347V34.853H247.034V37.1909H251.833V38.6382H245.3ZM261.77 38.6382H259.883L259.133 36.687H255.699L254.991 38.6382H253.151L256.496 30.0483H258.33L261.77 38.6382ZM258.576 35.2397L257.393 32.0522L256.233 35.2397H258.576ZM263.41 30.0483H266.58C267.294 30.0483 267.839 30.103 268.214 30.2124C268.718 30.3608 269.15 30.6245 269.509 31.0034C269.869 31.3823 270.142 31.8472 270.33 32.3979C270.517 32.9448 270.611 33.6206 270.611 34.4253C270.611 35.1323 270.523 35.7417 270.347 36.2534C270.132 36.8784 269.826 37.3843 269.427 37.771C269.127 38.064 268.72 38.2925 268.209 38.4565C267.826 38.5776 267.314 38.6382 266.673 38.6382H263.41V30.0483ZM265.144 31.5015V37.1909H266.439C266.923 37.1909 267.273 37.1636 267.488 37.1089C267.769 37.0386 268.002 36.9194 268.185 36.7515C268.373 36.5835 268.525 36.3081 268.642 35.9253C268.759 35.5386 268.818 35.0132 268.818 34.3491C268.818 33.6851 268.759 33.1753 268.642 32.8198C268.525 32.4644 268.361 32.187 268.15 31.9878C267.939 31.7886 267.671 31.6538 267.347 31.5835C267.105 31.5288 266.63 31.5015 265.923 31.5015H265.144ZM272.784 38.6382V30.0483L275.38 30.0483L276.938 35.9077L278.479 30.0483H281.081V38.6382H279.47V31.8765L277.764 38.6382H276.095L274.395 31.8765V38.6382H272.784ZM283.524 38.6382V30.0483H289.893V31.5015H285.258V33.4058H289.57V34.853H285.258V37.1909H290.057V38.6382H283.524ZM292.236 38.6382V36.9917H293.882V38.6382H292.236ZM298.241 38.6382V31.5015H295.692V30.0483H302.518V31.5015H299.975V38.6382H298.241ZM303.49 38.6382L306.426 34.1558L303.766 30.0483H305.793L307.516 32.8081L309.203 30.0483H311.213L308.541 34.2202L311.477 38.6382H309.385L307.48 35.6675L305.57 38.6382H303.49ZM315.021 38.6382V31.5015H312.472V30.0483H319.298V31.5015H316.755V38.6382H315.021Z" fill="#626262"/>
<rect x="336.715" y="31.7686" width="4.50043" height="4.49736" fill="#626262"/>
<rect x="329.873" y="31.7686" width="4.50043" height="4.49736" fill="#626262"/>
<path d="M239.539 61.1672V60.0818H242.342V62.6482C242.07 62.9119 241.674 63.1448 241.156 63.3469C240.64 63.5461 240.117 63.6458 239.587 63.6458C238.913 63.6458 238.326 63.5051 237.825 63.2239C237.324 62.9397 236.947 62.5354 236.695 62.011C236.443 61.4836 236.317 60.9109 236.317 60.2927C236.317 59.6218 236.458 59.0256 236.739 58.5042C237.021 57.9827 237.432 57.5828 237.974 57.3044C238.387 57.0906 238.901 56.9836 239.517 56.9836C240.316 56.9836 240.94 57.1521 241.389 57.489C241.84 57.823 242.13 58.2859 242.259 58.8777L240.967 59.1194C240.876 58.803 240.705 58.554 240.453 58.3723C240.204 58.1877 239.892 58.0955 239.517 58.0955C238.948 58.0955 238.496 58.2756 238.159 58.636C237.825 58.9963 237.658 59.531 237.658 60.24C237.658 61.0046 237.828 61.5789 238.167 61.9626C238.507 62.3435 238.953 62.5339 239.503 62.5339C239.776 62.5339 240.048 62.4812 240.321 62.3757C240.596 62.2673 240.832 62.137 241.028 61.9846V61.1672H239.539ZM244.446 63.5359V57.0935H249.223V58.1833H245.747V59.6116H248.982V60.697H245.747V62.4504H249.346V63.5359H244.446ZM252.8 63.5359V58.1833H250.888V57.0935H256.008V58.1833H254.1V63.5359H252.8ZM259.201 63.5359V58.1833H257.29V57.0935H262.409V58.1833H260.502V63.5359H259.201ZM264.114 63.5359V57.0935H265.414V63.5359H264.114ZM267.571 63.5359V57.0935H268.837L271.474 61.3958V57.0935H272.682V63.5359H271.377L268.78 59.3347V63.5359H267.571ZM277.959 61.1672V60.0818H280.763V62.6482C280.49 62.9119 280.095 63.1448 279.576 63.3469C279.061 63.5461 278.538 63.6458 278.007 63.6458C277.334 63.6458 276.746 63.5051 276.245 63.2239C275.744 62.9397 275.368 62.5354 275.116 62.011C274.864 61.4836 274.738 60.9109 274.738 60.2927C274.738 59.6218 274.879 59.0256 275.16 58.5042C275.441 57.9827 275.853 57.5828 276.395 57.3044C276.808 57.0906 277.322 56.9836 277.937 56.9836C278.737 56.9836 279.361 57.1521 279.809 57.489C280.26 57.823 280.55 58.2859 280.679 58.8777L279.387 59.1194C279.296 58.803 279.125 58.554 278.873 58.3723C278.624 58.1877 278.312 58.0955 277.937 58.0955C277.369 58.0955 276.916 58.2756 276.579 58.636C276.245 58.9963 276.078 59.531 276.078 60.24C276.078 61.0046 276.248 61.5789 276.588 61.9626C276.928 62.3435 277.373 62.5339 277.924 62.5339C278.196 62.5339 278.469 62.4812 278.741 62.3757C279.017 62.2673 279.253 62.137 279.449 61.9846V61.1672H277.959ZM285.942 61.4397L287.208 61.3167C287.284 61.7415 287.438 62.0535 287.669 62.2527C287.904 62.4519 288.219 62.5515 288.614 62.5515C289.033 62.5515 289.348 62.4636 289.559 62.2878C289.773 62.1091 289.88 61.9011 289.88 61.6638C289.88 61.5115 289.834 61.3826 289.743 61.2771C289.656 61.1687 289.5 61.075 289.278 60.9958C289.125 60.9431 288.778 60.8494 288.236 60.7146C287.539 60.5417 287.05 60.3293 286.768 60.0774C286.373 59.7229 286.175 59.2908 286.175 58.781C286.175 58.4529 286.267 58.1467 286.452 57.8625C286.639 57.5754 286.908 57.3572 287.256 57.2078C287.608 57.0583 288.031 56.9836 288.526 56.9836C289.335 56.9836 289.943 57.1609 290.35 57.5154C290.76 57.8699 290.975 58.343 290.996 58.9348L289.695 58.9919C289.639 58.6609 289.519 58.4236 289.335 58.28C289.153 58.1335 288.879 58.0603 288.513 58.0603C288.135 58.0603 287.839 58.1379 287.625 58.2932C287.488 58.3928 287.419 58.5261 287.419 58.6931C287.419 58.8455 287.483 58.9758 287.612 59.0842C287.776 59.2219 288.175 59.3655 288.807 59.5149C289.44 59.6643 289.908 59.8196 290.209 59.9807C290.514 60.1389 290.751 60.3572 290.921 60.6355C291.094 60.9109 291.18 61.2522 291.18 61.6594C291.18 62.0286 291.078 62.3743 290.873 62.6965C290.668 63.0188 290.378 63.259 290.003 63.4172C289.628 63.5725 289.16 63.6501 288.601 63.6501C287.786 63.6501 287.161 63.4626 286.724 63.0876C286.288 62.7097 286.027 62.1604 285.942 61.4397ZM294.625 63.5359V58.1833H292.713V57.0935H297.833V58.1833H295.926V63.5359H294.625ZM304.718 63.5359H303.303L302.741 62.0725H300.166L299.634 63.5359H298.254L300.763 57.0935H302.139L304.718 63.5359ZM302.323 60.9871L301.436 58.5964L300.565 60.9871H302.323ZM306.317 63.5359V57.0935H309.055C309.743 57.0935 310.243 57.1521 310.553 57.2693C310.867 57.3835 311.117 57.5886 311.305 57.8845C311.492 58.1804 311.586 58.5188 311.586 58.8997C311.586 59.3831 311.444 59.783 311.16 60.0994C310.876 60.4128 310.451 60.6106 309.885 60.6926C310.167 60.8567 310.398 61.0369 310.58 61.2332C310.764 61.4294 311.012 61.7781 311.322 62.2791L312.109 63.5359H310.553L309.613 62.134C309.279 61.6331 309.05 61.3181 308.927 61.1892C308.804 61.0574 308.674 60.968 308.536 60.9211C308.399 60.8713 308.18 60.8464 307.881 60.8464H307.618V63.5359H306.317ZM307.618 59.8181H308.58C309.204 59.8181 309.594 59.7917 309.749 59.739C309.904 59.6863 310.026 59.5955 310.114 59.4666C310.202 59.3376 310.246 59.1765 310.246 58.9832C310.246 58.7664 310.187 58.592 310.07 58.4602C309.956 58.3254 309.793 58.2405 309.582 58.2053C309.477 58.1907 309.16 58.1833 308.633 58.1833H307.618V59.8181ZM315.167 63.5359V58.1833H313.255V57.0935H318.375V58.1833H316.467V63.5359H315.167ZM320.118 63.5359V57.0935H324.895V58.1833H321.419V59.6116H324.654V60.697H321.419V62.4504H325.018V63.5359H320.118ZM327.017 57.0935H329.394C329.931 57.0935 330.339 57.1345 330.621 57.2166C330.998 57.3279 331.322 57.5256 331.592 57.8098C331.861 58.094 332.066 58.4426 332.207 58.8557C332.348 59.2659 332.418 59.7727 332.418 60.3762C332.418 60.9065 332.352 61.3635 332.22 61.7473C332.059 62.2161 331.829 62.5955 331.53 62.8855C331.305 63.1052 331 63.2766 330.616 63.3997C330.329 63.4905 329.945 63.5359 329.465 63.5359H327.017V57.0935ZM328.318 58.1833V62.4504H329.289C329.652 62.4504 329.914 62.4299 330.076 62.3889C330.287 62.3362 330.461 62.2468 330.599 62.1208C330.739 61.9949 330.853 61.7883 330.941 61.5012C331.029 61.2112 331.073 60.8171 331.073 60.3191C331.073 59.821 331.029 59.4387 330.941 59.1721C330.853 58.9055 330.73 58.6975 330.572 58.5481C330.414 58.3987 330.213 58.2976 329.97 58.2449C329.788 58.2039 329.433 58.1833 328.902 58.1833H328.318ZM235.869 75.6638V74.741H240.875V75.6638H235.869ZM241.959 75.6638V74.741H246.964V75.6638H241.959ZM248.049 75.6638V74.741H253.054V75.6638H248.049ZM254.138 75.6638V74.741H259.144V75.6638H254.138ZM260.228 75.6638V74.741H265.234V75.6638H260.228ZM266.318 75.6638V74.741H271.323V75.6638H266.318ZM272.408 75.6638V74.741H277.413V75.6638H272.408ZM278.498 75.6638V74.741H283.503V75.6638H278.498ZM284.587 75.6638V74.741H289.593V75.6638H284.587ZM290.677 75.6638V74.741H295.682V75.6638H290.677ZM296.767 75.6638V74.741H301.772V75.6638H296.767ZM302.857 75.6638V74.741H307.862V75.6638H302.857ZM308.946 75.6638V74.741H313.952V75.6638H308.946ZM315.036 75.6638V74.741H320.041V75.6638H315.036ZM321.126 75.6638V74.741H326.131V75.6638H321.126ZM327.216 75.6638V74.741H332.221V75.6638H327.216Z" fill="#626262"/>
<path d="M204 104C200.106 124.812 194.252 156.262 158 169.736C157.022 170.099 156.022 170.45 155 170.786" stroke="#626262" stroke-width="1.5" stroke-linecap="round"/>
<path d="M170 205.948C170.004 197.425 177.5 198.932 185.819 198.932H261.918C264.542 198.932 266.848 197.202 267.57 194.693L295.447 97.7752C295.83 96.4418 296.678 95.2873 297.838 94.5179L302.01 91.7511C303.242 90.9342 304.799 90.773 306.173 91.3199C308.278 92.1573 309.427 94.4222 308.853 96.6035L280.197 205.595C280.006 206.321 279.347 206.827 278.592 206.827C277.676 206.827 276.933 207.566 276.933 208.477V210.775C276.933 212.955 275.157 214.722 272.965 214.722C250.739 214.722 229.365 214.722 207 214.722C181.5 214.722 170 216 170 205.948Z" fill="#ECEEFD"/>
<ellipse cx="269.5" cy="208" rx="1.5" ry="2" fill="#626262"/>
<rect x="268.73" y="203.712" width="120.711" height="7.03169" rx="3.51585" transform="rotate(-75 268.73 203.712)" stroke="#626262" stroke-width="1.5"/>
<path d="M167 205H258.865H270.5C272.433 205 274 206.567 274 208.5V208.5C274 210.433 272.433 212 270.5 212H260.547H181.09" stroke="#626262" stroke-width="1.5" stroke-linecap="round"/>
<path d="M299 90L296.489 91.3897C294.155 92.6816 292.434 94.8527 291.709 97.42L264.962 192.095C263.791 196.241 265.407 200.672 268.972 203.09L270.314 204" stroke="#626262" stroke-width="1.5" stroke-linecap="round"/>
<path d="M263 197L170 197" stroke="#626262" stroke-width="1.5" stroke-linecap="round"/>
<line x1="1" y1="-1" x2="86.8768" y2="-1" transform="matrix(1 8.63678e-05 -0.000155466 1 173 200.481)" stroke="#626262" stroke-width="2" stroke-linecap="round" stroke-dasharray="6 6"/>
<line x1="180" y1="202" x2="263" y2="202" stroke="#626262" stroke-width="2" stroke-linecap="round" stroke-dasharray="6 6"/>
<path d="M259.869 125.312C257.597 133.094 259.583 143.053 261.703 149.405C262 150.297 261.056 151.101 260.274 150.579C253.802 146.259 245.181 137.602 243.951 126.092C243.902 125.636 244.184 125.211 244.62 125.066L259.738 120.035C260.716 119.709 261.674 121.054 261.198 121.968C260.649 123.02 260.211 124.142 259.869 125.312Z" fill="#FEF6C9"/>
<path d="M263.512 118.962C261.84 120.794 260.711 123.016 260 125.452C257.728 133.233 259.714 143.192 261.833 149.544C262.131 150.436 261.187 151.24 260.405 150.718C253.787 146.302 244.924 137.35 244.01 125.452" stroke="#626262" stroke-width="1.5" stroke-linecap="round"/>
<path d="M166.994 80.1147C168.242 80.3451 171.063 80.4251 172.359 78.9017" stroke="#626262" stroke-width="1.5" stroke-linecap="round"/>
<defs>
<linearGradient id="paint0_linear_3670_1386" x1="141.897" y1="80.9887" x2="186.224" y2="73.3388" gradientUnits="userSpaceOnUse">
<stop stop-color="#B4BCF6"/>
<stop offset="0.515625" stop-color="#0DE4E0"/>
<stop offset="1" stop-color="#FADB28"/>
</linearGradient>
<linearGradient id="paint1_linear_3670_1386" x1="141.897" y1="80.9887" x2="186.224" y2="73.3388" gradientUnits="userSpaceOnUse">
<stop stop-color="#B4BCF6"/>
<stop offset="0.515625" stop-color="#0DE4E0"/>
<stop offset="1" stop-color="#FADB28"/>
</linearGradient>
<linearGradient id="paint2_linear_3670_1386" x1="141.897" y1="80.9887" x2="186.224" y2="73.3388" gradientUnits="userSpaceOnUse">
<stop stop-color="#B4BCF6"/>
<stop offset="0.515625" stop-color="#0DE4E0"/>
<stop offset="1" stop-color="#FADB28"/>
</linearGradient>
<linearGradient id="paint3_linear_3670_1386" x1="141.897" y1="80.9887" x2="186.224" y2="73.3388" gradientUnits="userSpaceOnUse">
<stop stop-color="#B4BCF6"/>
<stop offset="0.515625" stop-color="#0DE4E0"/>
<stop offset="1" stop-color="#FADB28"/>
</linearGradient>
<linearGradient id="paint4_linear_3670_1386" x1="141.897" y1="80.9887" x2="186.224" y2="73.3388" gradientUnits="userSpaceOnUse">
<stop stop-color="#B4BCF6"/>
<stop offset="0.515625" stop-color="#0DE4E0"/>
<stop offset="1" stop-color="#FADB28"/>
</linearGradient>
</defs>
</svg>
