<svg width="404" height="228" viewBox="0 0 404 228" fill="none" xmlns="http://www.w3.org/2000/svg">
<path d="M301 88C301 86.3431 302.343 85 304 85H401C402.657 85 404 86.3431 404 88V158.651C404 160.308 402.657 161.651 401 161.651H304C302.343 161.651 301 160.308 301 158.651V88Z" fill="url(#paint0_linear_3670_1761)"/>
<path d="M335.241 116.586L347.16 123.948V126.614L335.396 133.977L333.985 132.055L344.928 125.297L333.985 118.554L335.241 116.586ZM351.705 140.627V138.348H367.205V140.627H351.705Z" fill="#55D1CF"/>
<path d="M298.75 85C298.75 83.7574 299.757 82.75 301 82.75H398C399.243 82.75 400.25 83.7574 400.25 85V155.651C400.25 156.894 399.243 157.901 398 157.901H301C299.757 157.901 298.75 156.894 298.75 155.651V85Z" stroke="#626262" stroke-width="1.5"/>
<rect x="310" y="108" width="80" height="36" rx="3" fill="#181818"/>
<path d="M298 93.9768H401" stroke="#626262" stroke-width="1.5"/>
<ellipse cx="304.911" cy="88.5062" rx="1.8815" ry="1.8815" fill="#FF3F54"/>
<ellipse cx="310.188" cy="88.5062" rx="1.8815" ry="1.8815" fill="#CCF4F4"/>
<ellipse cx="315.796" cy="88.5062" rx="1.8815" ry="1.8815" fill="#3ECF8E"/>
<path d="M332.241 113.586L344.16 120.948V123.614L332.396 130.977L330.985 129.055L341.928 122.297L330.985 115.554L332.241 113.586ZM348.705 137.627V135.348H364.205V137.627H348.705Z" fill="#55D1CF"/>
<path d="M332.488 66.1175L332.124 68.88H333.086V69.92H331.981L331.715 72H330.493L330.766 69.92H329.121L328.848 72H327.626L327.899 69.92H326.97V68.88H328.036L328.413 66.1175H327.451V65.071H328.549L328.816 63.03H330.044L329.758 65.071H331.409L331.682 63.03H332.904L332.625 65.071H333.567V66.1175H332.488ZM329.258 68.88H330.902L331.273 66.1175H329.622L329.258 68.88ZM345.868 71.0575C346.323 71.0575 346.685 70.9773 346.954 70.817C347.222 70.6523 347.357 70.427 347.357 70.141C347.357 69.9547 347.318 69.7965 347.24 69.6665C347.162 69.5322 347.006 69.4108 346.772 69.3025C346.538 69.1898 346.182 69.0728 345.706 68.9515C345.255 68.8345 344.858 68.6958 344.516 68.5355C344.178 68.3752 343.916 68.1672 343.73 67.9115C343.543 67.6558 343.45 67.3265 343.45 66.9235C343.45 66.5292 343.561 66.1847 343.782 65.89C344.003 65.5953 344.319 65.3657 344.731 65.201C345.147 65.0363 345.634 64.954 346.193 64.954C346.769 64.954 347.272 65.0298 347.701 65.1815C348.13 65.3332 348.496 65.5217 348.8 65.747L348.189 66.6635C347.92 66.4858 347.625 66.3407 347.305 66.228C346.988 66.1153 346.631 66.059 346.232 66.059C345.768 66.059 345.435 66.1283 345.231 66.267C345.032 66.4057 344.932 66.5898 344.932 66.8195C344.932 66.9885 344.982 67.1315 345.082 67.2485C345.186 67.3612 345.363 67.4673 345.615 67.567C345.866 67.6623 346.221 67.775 346.681 67.905C347.127 68.0263 347.515 68.1693 347.844 68.334C348.178 68.4987 348.436 68.7175 348.618 68.9905C348.804 69.2592 348.897 69.6102 348.897 70.0435C348.897 70.5375 348.754 70.9427 348.468 71.259C348.186 71.571 347.814 71.8028 347.35 71.9545C346.891 72.1018 346.397 72.1755 345.868 72.1755C345.231 72.1755 344.681 72.0845 344.217 71.9025C343.753 71.7162 343.363 71.4843 343.047 71.207L343.821 70.323C344.089 70.5397 344.397 70.7173 344.744 70.856C345.09 70.9903 345.465 71.0575 345.868 71.0575ZM352.506 69.036C352.536 69.504 352.636 69.8875 352.805 70.1865C352.974 70.4812 353.195 70.6978 353.468 70.8365C353.745 70.9752 354.049 71.0445 354.378 71.0445C354.716 71.0445 355.028 70.9925 355.314 70.8885C355.6 70.7845 355.888 70.6372 356.179 70.4465L356.809 71.3175C356.488 71.5775 356.114 71.7855 355.685 71.9415C355.256 72.0975 354.796 72.1755 354.307 72.1755C353.596 72.1755 352.994 72.0238 352.5 71.7205C352.01 71.4172 351.637 70.9947 351.382 70.453C351.126 69.9113 350.998 69.2852 350.998 68.5745C350.998 67.8855 351.124 67.2702 351.375 66.7285C351.626 66.1825 351.986 65.7513 352.454 65.435C352.922 65.1143 353.481 64.954 354.131 64.954C354.742 64.954 355.266 65.0927 355.704 65.37C356.146 65.6473 356.486 66.0417 356.725 66.553C356.967 67.06 357.089 67.671 357.089 68.386C357.089 68.503 357.084 68.62 357.076 68.737C357.071 68.8497 357.065 68.9493 357.056 69.036H352.506ZM354.144 66.033C353.689 66.033 353.312 66.1955 353.013 66.5205C352.718 66.8455 352.547 67.3525 352.5 68.0415H355.678C355.665 67.3958 355.526 66.8997 355.262 66.553C355.002 66.2063 354.629 66.033 354.144 66.033ZM364.955 71.636C364.704 71.7963 364.403 71.9263 364.052 72.026C363.701 72.1257 363.334 72.1755 362.953 72.1755C362.156 72.1755 361.549 71.9697 361.133 71.558C360.721 71.142 360.516 70.596 360.516 69.92V66.1955H358.988V65.136H360.516V63.602L361.972 63.4265V65.136H364.286L364.123 66.1955H361.972V69.907C361.972 70.2753 362.063 70.5505 362.245 70.7325C362.431 70.9102 362.734 70.999 363.155 70.999C363.406 70.999 363.638 70.9687 363.85 70.908C364.062 70.8473 364.255 70.7693 364.429 70.674L364.955 71.636ZM376.528 65.136V69.933C376.528 70.3403 376.608 70.6307 376.768 70.804C376.933 70.9773 377.18 71.064 377.509 71.064C377.821 71.064 378.123 70.9708 378.413 70.7845C378.703 70.5982 378.933 70.3707 379.102 70.102V65.136H380.558V72H379.303L379.212 71.1225C378.957 71.4648 378.634 71.727 378.244 71.909C377.854 72.0867 377.455 72.1755 377.048 72.1755C376.385 72.1755 375.889 71.9935 375.559 71.6295C375.234 71.2612 375.072 70.7563 375.072 70.115V65.136H376.528ZM386.344 64.954C386.951 64.954 387.436 65.1035 387.8 65.4025C388.164 65.6972 388.429 66.1153 388.593 66.657C388.758 67.1943 388.84 67.827 388.84 68.555C388.84 69.2527 388.741 69.8745 388.541 70.4205C388.342 70.9665 388.045 71.3955 387.651 71.7075C387.261 72.0195 386.775 72.1755 386.195 72.1755C385.475 72.1755 384.895 71.922 384.453 71.415V74.639L382.997 74.8015V65.136H384.264L384.355 66.02C384.615 65.6647 384.916 65.3982 385.259 65.2205C385.605 65.0428 385.967 64.954 386.344 64.954ZM385.941 66.0785C385.616 66.0785 385.33 66.176 385.083 66.371C384.836 66.566 384.626 66.7957 384.453 67.06V70.271C384.617 70.518 384.812 70.7087 385.038 70.843C385.267 70.973 385.525 71.038 385.811 71.038C386.301 71.038 386.674 70.8408 386.929 70.4465C387.185 70.0522 387.313 69.4238 387.313 68.5615C387.313 67.9765 387.261 67.502 387.157 67.138C387.057 66.7697 386.905 66.501 386.702 66.332C386.502 66.163 386.249 66.0785 385.941 66.0785Z" fill="#6878ED"/>
<path d="M59.5259 76.1175L59.1619 78.88H60.1239V79.92H59.0189L58.7524 82H57.5304L57.8034 79.92H56.1589L55.8859 82H54.6639L54.9369 79.92H54.0074V78.88H55.0734L55.4504 76.1175H54.4884V75.071H55.5869L55.8534 73.03H57.0819L56.7959 75.071H58.4469L58.7199 73.03H59.9419L59.6624 75.071H60.6049V76.1175H59.5259ZM56.2954 78.88H57.9399L58.3104 76.1175H56.6594L56.2954 78.88ZM73.7182 80.9795C74.0389 80.9795 74.3379 80.9253 74.6152 80.817C74.8925 80.7043 75.1569 80.5592 75.4082 80.3815L76.0842 81.3175C75.7852 81.5732 75.4212 81.7812 74.9922 81.9415C74.5675 82.0975 74.1277 82.1755 73.6727 82.1755C72.9707 82.1755 72.3705 82.0282 71.8722 81.7335C71.3739 81.4345 70.9925 81.0163 70.7282 80.479C70.4639 79.9417 70.3317 79.3155 70.3317 78.6005C70.3317 77.9028 70.4639 77.281 70.7282 76.735C70.9969 76.1847 71.3825 75.7513 71.8852 75.435C72.3879 75.1143 72.9924 74.954 73.6987 74.954C74.1667 74.954 74.5979 75.0233 74.9922 75.162C75.3865 75.3007 75.7484 75.5065 76.0777 75.7795L75.4082 76.696C75.1395 76.5097 74.8644 76.3688 74.5827 76.2735C74.3054 76.1738 74.0194 76.124 73.7247 76.124C73.183 76.124 72.7389 76.3233 72.3922 76.722C72.0499 77.1207 71.8787 77.7468 71.8787 78.6005C71.8787 79.1725 71.9567 79.634 72.1127 79.985C72.273 80.3317 72.4919 80.5852 72.7692 80.7455C73.0465 80.9015 73.3629 80.9795 73.7182 80.9795ZM81.0841 74.954C81.7558 74.954 82.3213 75.1035 82.7806 75.4025C83.2399 75.7015 83.5866 76.1197 83.8206 76.657C84.0589 77.1943 84.1781 77.827 84.1781 78.555C84.1781 79.2787 84.0568 79.9135 83.8141 80.4595C83.5758 81.0012 83.2248 81.4237 82.7611 81.727C82.3018 82.026 81.7406 82.1755 81.0776 82.1755C80.4146 82.1755 79.8513 82.0303 79.3876 81.74C78.9283 81.4453 78.5773 81.0272 78.3346 80.4855C78.0963 79.9438 77.9771 79.3047 77.9771 78.568C77.9771 77.853 78.0963 77.2247 78.3346 76.683C78.5773 76.1413 78.9304 75.7188 79.3941 75.4155C79.8578 75.1078 80.4211 74.954 81.0841 74.954ZM81.0841 76.085C80.5598 76.085 80.1654 76.2865 79.9011 76.6895C79.6368 77.0882 79.5046 77.7143 79.5046 78.568C79.5046 79.4173 79.6346 80.0435 79.8946 80.4465C80.1589 80.8495 80.5533 81.051 81.0776 81.051C81.6019 81.051 81.9941 80.8495 82.2541 80.4465C82.5184 80.0435 82.6506 79.413 82.6506 78.555C82.6506 77.71 82.5206 77.0882 82.2606 76.6895C82.0006 76.2865 81.6084 76.085 81.0841 76.085ZM86.2595 82V75.136H87.514L87.6245 76.0265C87.9105 75.6755 88.2485 75.409 88.6385 75.227C89.0285 75.045 89.4294 74.954 89.841 74.954C90.4824 74.954 90.9612 75.1338 91.2775 75.4935C91.5982 75.8488 91.7585 76.3493 91.7585 76.995V82H90.3025V77.7165C90.3025 77.3178 90.2787 76.9972 90.231 76.7545C90.1834 76.5118 90.088 76.3363 89.945 76.228C89.8064 76.1197 89.5984 76.0655 89.321 76.0655C89.1 76.0655 88.8899 76.1132 88.6905 76.2085C88.4912 76.3038 88.3092 76.4295 88.1445 76.5855C87.9799 76.7372 87.8369 76.8997 87.7155 77.073V82H86.2595ZM94.1845 82V75.136H95.439L95.5495 76.0265C95.8355 75.6755 96.1735 75.409 96.5635 75.227C96.9535 75.045 97.3543 74.954 97.766 74.954C98.4073 74.954 98.8861 75.1338 99.2025 75.4935C99.5231 75.8488 99.6835 76.3493 99.6835 76.995V82H98.2275V77.7165C98.2275 77.3178 98.2036 76.9972 98.156 76.7545C98.1083 76.5118 98.013 76.3363 97.87 76.228C97.7313 76.1197 97.5233 76.0655 97.246 76.0655C97.025 76.0655 96.8148 76.1132 96.6155 76.2085C96.4161 76.3038 96.2341 76.4295 96.0695 76.5855C95.9048 76.7372 95.7618 76.8997 95.6405 77.073V82H94.1845ZM103.318 79.036C103.349 79.504 103.448 79.8875 103.617 80.1865C103.786 80.4812 104.007 80.6978 104.28 80.8365C104.558 80.9752 104.861 81.0445 105.19 81.0445C105.528 81.0445 105.84 80.9925 106.126 80.8885C106.412 80.7845 106.701 80.6372 106.991 80.4465L107.621 81.3175C107.301 81.5775 106.926 81.7855 106.497 81.9415C106.068 82.0975 105.609 82.1755 105.119 82.1755C104.408 82.1755 103.806 82.0238 103.312 81.7205C102.822 81.4172 102.45 80.9947 102.194 80.453C101.938 79.9113 101.81 79.2852 101.81 78.5745C101.81 77.8855 101.936 77.2702 102.187 76.7285C102.439 76.1825 102.798 75.7513 103.266 75.435C103.734 75.1143 104.293 74.954 104.943 74.954C105.554 74.954 106.079 75.0927 106.516 75.37C106.958 75.6473 107.299 76.0417 107.537 76.553C107.78 77.06 107.901 77.671 107.901 78.386C107.901 78.503 107.897 78.62 107.888 78.737C107.884 78.8497 107.877 78.9493 107.868 79.036H103.318ZM104.956 76.033C104.501 76.033 104.124 76.1955 103.825 76.5205C103.531 76.8455 103.36 77.3525 103.312 78.0415H106.49C106.477 77.3958 106.339 76.8997 106.074 76.553C105.814 76.2063 105.442 76.033 104.956 76.033ZM113.343 80.9795C113.663 80.9795 113.962 80.9253 114.24 80.817C114.517 80.7043 114.781 80.5592 115.033 80.3815L115.709 81.3175C115.41 81.5732 115.046 81.7812 114.617 81.9415C114.192 82.0975 113.752 82.1755 113.297 82.1755C112.595 82.1755 111.995 82.0282 111.497 81.7335C110.998 81.4345 110.617 81.0163 110.353 80.479C110.088 79.9417 109.956 79.3155 109.956 78.6005C109.956 77.9028 110.088 77.281 110.353 76.735C110.621 76.1847 111.007 75.7513 111.51 75.435C112.012 75.1143 112.617 74.954 113.323 74.954C113.791 74.954 114.222 75.0233 114.617 75.162C115.011 75.3007 115.373 75.5065 115.702 75.7795L115.033 76.696C114.764 76.5097 114.489 76.3688 114.207 76.2735C113.93 76.1738 113.644 76.124 113.349 76.124C112.808 76.124 112.363 76.3233 112.017 76.722C111.674 77.1207 111.503 77.7468 111.503 78.6005C111.503 79.1725 111.581 79.634 111.737 79.985C111.898 80.3317 112.116 80.5852 112.394 80.7455C112.671 80.9015 112.987 80.9795 113.343 80.9795ZM123.692 81.636C123.441 81.7963 123.14 81.9263 122.789 82.026C122.438 82.1257 122.072 82.1755 121.69 82.1755C120.893 82.1755 120.286 81.9697 119.87 81.558C119.459 81.142 119.253 80.596 119.253 79.92V76.1955H117.725V75.136H119.253V73.602L120.709 73.4265V75.136H123.023L122.86 76.1955H120.709V79.907C120.709 80.2753 120.8 80.5505 120.982 80.7325C121.168 80.9102 121.471 80.999 121.892 80.999C122.143 80.999 122.375 80.9687 122.587 80.908C122.8 80.8473 122.992 80.7693 123.166 80.674L123.692 81.636Z" fill="#55D1CF"/>
<path d="M197.155 39.0404C202.526 54.0393 214.282 58.3858 225.226 51.9243C229.58 49.3537 238.726 40.0836 238.726 40.0836C245.217 34.6316 250.406 33.9118 250.58 55.8246C250.329 63.934 254.696 97.0217 261.508 131.777C264.582 147.46 275.468 162.111 279.338 176.332C281.265 181.639 282.606 190.104 280.055 197.667C277.774 204.431 272.38 210.474 261.508 212.89C250.637 215.307 154.749 217.633 154.749 217.633C142.968 209.729 132.274 207.873 131.274 193.469C130.747 185.88 131.115 178.839 131.782 173.86C133.1 164.559 147.447 137.876 148.868 128.12C153.563 95.8792 164.567 63.1214 177.159 40.4511C184.841 26.6231 191.417 23.017 197.155 39.0404Z" fill="white"/>
<path d="M152.171 216.16C140.39 208.256 129.696 206.4 128.696 191.995C128.169 184.407 128.537 177.366 129.204 172.387C130.522 163.086 144.869 136.403 146.29 126.646C150.985 94.4061 161.988 61.6482 174.581 38.978C182.262 25.15 188.839 21.5439 194.577 37.5672C199.948 52.5662 211.704 56.9126 222.648 50.4512C227.002 47.8805 236.147 38.6104 236.147 38.6104C242.639 33.1585 247.828 32.4387 248.002 54.3514C247.75 62.4609 252.118 95.5486 258.93 130.304C262.004 145.987 272.89 160.638 276.759 174.858C278.687 180.165 280.028 188.63 277.477 196.193C275.196 202.958 269.802 209.001 258.93 211.417" stroke="#626262" stroke-width="1.5" stroke-linecap="round"/>
<path d="M202.748 137.322C225.681 135.219 238.707 161.111 232.139 194.129C227.84 210.394 191.801 218.646 170.597 215.916C149.392 213.186 174.08 139.951 202.748 137.322Z" fill="#B4BCF6"/>
<path d="M172.344 149.989C169.89 153.548 165.274 161.404 166.453 164.349" stroke="#626262" stroke-width="1.5" stroke-linecap="round" stroke-linejoin="round"/>
<path d="M235.491 149.989C237.946 153.548 242.561 161.404 241.383 164.349" stroke="#626262" stroke-width="1.5" stroke-linecap="round" stroke-linejoin="round"/>
<circle cx="10.5956" cy="10.5956" r="10.5956" transform="matrix(-0.995951 0.0899019 0.0899019 0.995951 177.586 88.0339)" fill="#FF3F54"/>
<circle cx="10.5956" cy="10.5956" r="10.5956" transform="matrix(-0.995951 0.0899019 0.0899019 0.995951 239.418 91.8145)" fill="#FF3F54"/>
<path d="M207.717 76.6284C207.717 85.2962 223.944 90.0813 226.894 76.6284" stroke="#626262" stroke-width="1.5" stroke-linecap="round"/>
<path d="M174.607 73.8555C174.607 82.5233 190.835 87.3084 193.785 73.8555" stroke="#626262" stroke-width="1.5" stroke-linecap="round"/>
<path d="M199.479 96.254C200.966 99.7446 208.797 98.6859 207.764 92.7254" stroke="#626262" stroke-width="1.5" stroke-linecap="round"/>
<path d="M245.974 106.065L229.53 101.408" stroke="#626262" stroke-width="1.5" stroke-linecap="round"/>
<path d="M246.092 96.8119L229.608 101.325" stroke="#626262" stroke-width="1.5" stroke-linecap="round"/>
<path d="M155.829 89.1425L169.768 99.0324" stroke="#626262" stroke-width="1.5" stroke-linecap="round"/>
<path d="M152.622 97.8217L169.666 99.0833" stroke="#626262" stroke-width="1.5" stroke-linecap="round"/>
<path fill-rule="evenodd" clip-rule="evenodd" d="M239.045 78.7117C239.089 78.0044 238.552 77.395 237.845 77.3506L233.916 77.1038C233.208 77.0593 232.599 77.5967 232.555 78.3039C232.51 79.0112 233.048 79.6206 233.755 79.665L237.684 79.9118C238.391 79.9562 239.001 79.4189 239.045 78.7117Z" fill="url(#paint1_linear_3670_1761)"/>
<path fill-rule="evenodd" clip-rule="evenodd" d="M169.554 74.3461C169.598 73.6389 169.061 73.0295 168.353 72.9851L164.424 72.7383C163.717 72.6938 163.108 73.2312 163.063 73.9384C163.019 74.6457 163.556 75.255 164.263 75.2995L168.193 75.5463C168.9 75.5907 169.509 75.0534 169.554 74.3461Z" fill="url(#paint2_linear_3670_1761)"/>
<path fill-rule="evenodd" clip-rule="evenodd" d="M221.474 69.5349C228.143 69.9539 233.251 75.8353 232.818 82.7293C232.385 89.6233 226.581 94.8193 219.912 94.4003C213.243 93.9814 208.136 88.0999 208.569 81.2059C209.002 74.3119 214.805 69.116 221.474 69.5349ZM235.379 82.8902C235.897 74.6369 229.773 67.4849 221.635 66.9737C213.497 66.4624 206.526 72.7917 206.007 81.045C205.489 89.2984 211.613 96.4503 219.751 96.9615C227.889 97.4728 234.86 91.1435 235.379 82.8902Z" fill="url(#paint3_linear_3670_1761)"/>
<path fill-rule="evenodd" clip-rule="evenodd" d="M182.184 67.0667C188.853 67.4856 193.961 73.3671 193.528 80.261C193.095 87.155 187.291 92.351 180.622 91.9321C173.953 91.5131 168.845 85.6317 169.279 78.7377C169.712 71.8437 175.515 66.6477 182.184 67.0667ZM196.089 80.4219C196.607 72.1686 190.483 65.0167 182.345 64.5054C174.207 63.9942 167.236 70.3235 166.717 78.5768C166.199 86.8301 172.323 93.9821 180.461 94.4933C188.599 95.0045 195.57 88.6753 196.089 80.4219Z" fill="url(#paint4_linear_3670_1761)"/>
<path fill-rule="evenodd" clip-rule="evenodd" d="M205.809 77.6905C205.934 78.2278 206.399 78.6427 206.978 78.6791C207.686 78.7235 208.295 78.1862 208.339 77.4789C208.395 76.6029 207.825 76.0071 207.43 75.6985C206.995 75.3589 206.436 75.0937 205.853 74.8845C204.67 74.4601 203.093 74.1621 201.391 74.0551C199.688 73.9482 198.087 74.0466 196.86 74.3196C196.255 74.4542 195.667 74.6473 195.193 74.9298C194.763 75.1865 194.123 75.7063 194.068 76.5824C194.024 77.2897 194.561 77.899 195.268 77.9435C195.847 77.9798 196.36 77.6264 196.552 77.109C196.708 77.0261 196.988 76.9201 197.418 76.8246C198.349 76.6173 199.698 76.5202 201.23 76.6164C202.761 76.7126 204.088 76.9779 204.986 77.3C205.4 77.4486 205.665 77.5888 205.809 77.6905ZM205.908 77.7722C205.908 77.7722 205.905 77.7676 205.895 77.7584C205.903 77.7676 205.908 77.7722 205.908 77.7722ZM196.444 77.1776C196.444 77.1776 196.45 77.1738 196.458 77.1656C196.447 77.1735 196.444 77.1776 196.444 77.1776Z" fill="url(#paint5_linear_3670_1761)"/>
<path d="M174.348 162.3C157.488 200.264 178.829 194.082 169.722 216.812" stroke="#626262" stroke-width="1.5" stroke-linecap="round" stroke-linejoin="round"/>
<path d="M232.402 162.3C249.262 200.264 227.921 194.082 237.028 216.812" stroke="#626262" stroke-width="1.5" stroke-linecap="round" stroke-linejoin="round"/>
<path d="M144.318 163.983C144.318 161.636 146.221 159.733 148.568 159.733H255.199C257.546 159.733 259.449 161.636 259.449 163.983V224.595C259.449 225.838 258.442 226.845 257.199 226.845H146.568C145.326 226.845 144.318 225.838 144.318 224.595V163.983Z" fill="#F9F9FF" stroke="#626262" stroke-width="1.5"/>
<rect x="270" y="184" width="102.103" height="21" rx="3" fill="#ECEEFD"/>
<rect x="267.75" y="181.75" width="100.603" height="19.5" rx="2.25" stroke="#626262" stroke-width="1.5"/>
<path d="M315.518 186.069L315.518 197.655" stroke="#626262" stroke-width="1.5" stroke-linecap="round"/>
<path d="M319.318 186.069L319.318 197.655" stroke="#626262" stroke-width="1.5" stroke-linecap="round"/>
<path d="M322.939 186.069L322.939 197.655" stroke="#626262" stroke-width="1.5" stroke-linecap="round"/>
<path d="M326.561 186.069L326.561 197.655" stroke="#626262" stroke-width="1.5" stroke-linecap="round"/>
<path d="M330.182 186.069L330.182 197.655" stroke="#626262" stroke-width="1.5" stroke-linecap="round"/>
<path d="M333.803 186.069L333.803 197.655" stroke="#626262" stroke-width="1.5" stroke-linecap="round"/>
<path d="M337.422 186.069L337.422 197.655" stroke="#626262" stroke-width="1.5" stroke-linecap="round"/>
<path d="M341.043 186.069L341.043 197.655" stroke="#626262" stroke-width="1.5" stroke-linecap="round"/>
<circle cx="359.691" cy="191.862" r="3.84483" fill="#FEF6C9" stroke="black"/>
<path d="M70.6987 34.534C70.9214 33.4855 71.0339 32.416 71.0339 31.339C71.0339 21.6512 61.9178 13.7705 50.7114 13.7705C43.5579 13.7705 36.9272 17.0647 33.2844 22.2993C28.367 20.9212 23.3216 21.5121 19.1649 23.9884C15.0083 26.4627 12.5275 30.3802 12.3268 34.6637C6.23655 37.1644 2.93687 42.7317 3.59432 49.6281C4.25177 56.5246 9.14415 60.6199 19.0987 60.6199H64.2597C72.9745 60.6199 79.3454 54.5702 79.3454 47.0364C79.3454 41.7083 76.4452 36.8311 70.6987 34.534Z" fill="#B4BCF6"/>
<path d="M68.1869 31.7635C68.4097 30.715 68.5222 29.6455 68.5222 28.5685C68.5222 18.8807 59.4061 11 48.1997 11C41.0462 11 34.4155 14.2942 30.7727 19.5288C25.8552 18.1507 20.8099 18.7416 16.6532 21.2179C12.4966 23.6922 10.0158 27.6097 9.81509 31.8931C3.72484 34.3938 0.425155 39.9612 1.0826 46.8576C1.74005 53.7541 6.63243 57.8494 16.587 57.8494H61.748C70.4628 57.8494 76.8337 51.7996 76.8337 44.2659C76.8337 38.9378 73.9335 34.0606 68.1869 31.7635Z" stroke="#626262" stroke-width="1.5" stroke-linejoin="round"/>
<path d="M75.0706 117.499V100.168C74.2758 102.141 68.1561 106.107 50.0353 106.192C31.9145 106.107 25.7948 102.141 25 100.168V117.499C30.0071 121.979 43.7765 122.888 50.0353 122.782C56.2941 122.888 70.0635 121.979 75.0706 117.499Z" fill="#FCED93"/>
<path d="M75.0706 134.095V116.764C74.2758 118.737 68.1561 122.703 50.0353 122.788C31.9145 122.703 25.7948 118.737 25 116.764V134.095C30.0071 138.575 43.7765 139.484 50.0353 139.378C56.2941 139.484 70.0635 138.575 75.0706 134.095Z" fill="#FCED93"/>
<path d="M75.0706 148.154V133.163C74.2758 135.135 68.1561 139.101 50.0353 139.186C31.9145 139.101 25.7948 135.135 25 133.163V148.154C25 149.642 25.6127 151.102 26.9131 151.825C32.8997 155.158 44.4539 155.871 50.0353 155.777C55.6167 155.871 67.1708 155.158 73.1574 151.825C74.4579 151.102 75.0706 149.642 75.0706 148.154Z" fill="#FCED93"/>
<ellipse cx="25.0353" cy="5.67093" rx="25.0353" ry="5.67093" transform="matrix(-1 0 0 1 75.0703 95)" fill="#FADB28"/>
<path d="M72.0703 114.761V97.4302C71.2755 99.4027 65.1558 103.369 47.035 103.454C28.9143 103.369 22.7945 99.4027 21.9998 97.4302V114.761C27.0068 119.241 40.7762 120.15 47.035 120.044C53.2939 120.15 67.0633 119.241 72.0703 114.761Z" stroke="#626262" stroke-width="1.5" stroke-linecap="round" stroke-linejoin="round"/>
<path d="M72.0703 114.024V131.355C67.0633 135.835 53.2939 136.744 47.035 136.638C40.7762 136.744 27.0068 135.835 21.9998 131.355V114.024" stroke="#626262" stroke-width="1.5" stroke-linecap="round" stroke-linejoin="round"/>
<path d="M72.0703 130.424V145.519C72.0703 146.942 71.4849 148.336 70.2473 149.037C64.2872 152.413 52.6446 153.133 47.035 153.038C41.4255 153.133 29.7828 152.413 23.8228 149.037C22.5851 148.336 21.9998 146.942 21.9998 145.519V130.424" stroke="#626262" stroke-width="1.5" stroke-linecap="round" stroke-linejoin="round"/>
<ellipse cx="25.0353" cy="5.67093" rx="25.0353" ry="5.67093" transform="matrix(-1 0 0 1 72.0703 92)" stroke="#626262" stroke-width="1.5" stroke-linecap="round" stroke-linejoin="round"/>
<circle cx="27.236" cy="144.605" r="0.904005" fill="#626262" stroke="#626262" stroke-width="1.5" stroke-linejoin="round"/>
<circle cx="31.9372" cy="145.533" r="0.904005" fill="#626262" stroke="#626262" stroke-width="1.5" stroke-linejoin="round"/>
<circle cx="36.8708" cy="146.346" r="0.904005" fill="#626262" stroke="#626262" stroke-width="1.5" stroke-linejoin="round"/>
<circle cx="4.49553" cy="4.49553" r="4.49553" transform="matrix(0.990171 -0.139861 -0.139861 -0.990171 48.7031 52.2346)" fill="#FADB28"/>
<path d="M47.0614 97.0764C42.5245 93.0424 39.6768 87.7584 39.4172 81.8756C38.846 68.9327 54.3354 62.4543 50.9934 49.2082" stroke="#626262" stroke-width="1.5" stroke-linecap="round"/>
<path d="M375.474 192.499C378.904 188.879 381.074 184.157 381.305 178.918C381.814 167.39 370.23 161.718 372.82 149.904" stroke="#626262" stroke-width="1.5" stroke-linecap="round"/>
<circle cx="4.49553" cy="4.49553" r="5.24553" transform="matrix(0.990171 -0.139861 -0.139861 -0.990171 46.7031 50.2346)" stroke="#626262" stroke-width="1.5"/>
<path d="M47.3371 32.9999C47.2445 34.8251 47.4012 36.7262 47.8164 38.6401" stroke="#626262" stroke-width="1.5" stroke-linecap="round"/>
<path d="M55.7127 33.3175C55.6601 35.1442 55.353 37.0269 54.7871 38.9019" stroke="#626262" stroke-width="1.5" stroke-linecap="round"/>
<path d="M367.372 42.8485L367.372 43.5985L367.372 42.8485ZM361.31 52.1253L360.724 52.5923L361.31 52.1253ZM362.875 52.1253L363.462 52.5923L362.875 52.1253ZM356.002 42.8485L356.002 43.5985L356.002 42.8485ZM356.812 42.8485L356.812 43.5985L356.812 42.8485ZM358.812 36.75H365.372V35.25H358.812V36.75ZM358.562 41.8485V37H357.062V41.8485H358.562ZM356.002 43.5985H356.812L356.812 42.0985H356.002L356.002 43.5985ZM361.897 51.6583L355.806 44.0042L354.633 44.9382L360.724 52.5923L361.897 51.6583ZM368.38 44.0042L362.289 51.6583L363.462 52.5923L369.553 44.9382L368.38 44.0042ZM367.372 43.5985H368.184V42.0985H367.372L367.372 43.5985ZM365.622 37V41.8485H367.122V37H365.622ZM367.372 42.0985C367.234 42.0985 367.122 41.9866 367.122 41.8485H365.622C365.622 42.815 366.405 43.5985 367.372 43.5985L367.372 42.0985ZM369.553 44.9382C370.466 43.7916 369.649 42.0985 368.184 42.0985V43.5985C368.393 43.5985 368.51 43.8404 368.38 44.0042L369.553 44.9382ZM360.724 52.5923C361.424 53.4727 362.762 53.4727 363.462 52.5923L362.289 51.6583C362.188 51.7841 361.997 51.7841 361.897 51.6583L360.724 52.5923ZM356.002 42.0985C354.537 42.0985 353.72 43.7916 354.633 44.9382L355.806 44.0042C355.676 43.8404 355.793 43.5985 356.002 43.5985L356.002 42.0985ZM357.062 41.8485C357.062 41.9866 356.95 42.0985 356.812 42.0985L356.812 43.5985C357.778 43.5985 358.562 42.815 358.562 41.8485H357.062ZM365.372 36.75C365.51 36.75 365.622 36.8619 365.622 37H367.122C367.122 36.0335 366.338 35.25 365.372 35.25V36.75ZM358.812 35.25C357.845 35.25 357.062 36.0335 357.062 37H358.562C358.562 36.8619 358.674 36.75 358.812 36.75V35.25Z" fill="#6878ED"/>
<path d="M355.543 54.1643H368.612" stroke="#6878ED" stroke-width="1.5" stroke-linecap="round"/>
<path d="M42.8138 177.316L42.8138 178.066L42.8138 177.316ZM43.8138 178.316L44.5638 178.316L43.8138 178.316ZM42.0016 177.316L42.0016 176.566L42.0016 177.316ZM48.8751 168.039L49.462 167.572L48.8751 168.039ZM47.3102 168.039L46.7233 167.572L47.3102 168.039ZM54.1837 177.316L54.1837 176.566L54.1837 177.316ZM52.3737 178.316L53.1237 178.316L52.3737 178.316ZM53.3737 177.316L53.3737 176.566L53.3737 177.316ZM51.3737 183.414L44.8138 183.414L44.8138 184.914L51.3737 184.914L51.3737 183.414ZM51.6237 178.316L51.6237 183.164L53.1237 183.164L53.1237 178.316L51.6237 178.316ZM54.1837 176.566L53.3737 176.566L53.3737 178.066L54.1837 178.066L54.1837 176.566ZM48.2883 168.506L54.3793 176.16L55.553 175.226L49.462 167.572L48.2883 168.506ZM41.806 176.16L47.897 168.506L46.7233 167.572L40.6323 175.226L41.806 176.16ZM42.8138 176.566L42.0016 176.566L42.0016 178.066L42.8138 178.066L42.8138 176.566ZM44.5638 183.164L44.5638 178.316L43.0638 178.316L43.0638 183.164L44.5638 183.164ZM42.8138 178.066C42.9519 178.066 43.0638 178.178 43.0638 178.316L44.5638 178.316C44.5638 177.349 43.7803 176.566 42.8138 176.566L42.8138 178.066ZM40.6323 175.226C39.7199 176.373 40.5363 178.066 42.0016 178.066L42.0016 176.566C41.7923 176.566 41.6756 176.324 41.806 176.16L40.6323 175.226ZM49.462 167.572C48.7614 166.692 47.4239 166.692 46.7233 167.572L47.897 168.506C47.9971 168.38 48.1882 168.38 48.2883 168.506L49.462 167.572ZM54.1837 178.066C55.649 178.066 56.4654 176.373 55.553 175.226L54.3793 176.16C54.5096 176.324 54.393 176.566 54.1837 176.566L54.1837 178.066ZM53.1237 178.316C53.1237 178.178 53.2357 178.066 53.3737 178.066L53.3737 176.566C52.4072 176.566 51.6237 177.349 51.6237 178.316L53.1237 178.316ZM44.8138 183.414C44.6758 183.414 44.5638 183.302 44.5638 183.164L43.0638 183.164C43.0638 184.131 43.8473 184.914 44.8138 184.914L44.8138 183.414ZM51.3737 184.914C52.3402 184.914 53.1237 184.131 53.1237 183.164L51.6237 183.164C51.6237 183.302 51.5118 183.414 51.3737 183.414L51.3737 184.914Z" fill="#55D1CF"/>
<path d="M54.6426 166L41.5732 166" stroke="#55D1CF" stroke-width="1.5" stroke-linecap="round"/>
<g clip-path="url(#clip0_3670_1761)">
<path d="M293.868 52.5079C303.858 58.2756 316.722 54.6971 322.601 44.5151C328.479 34.3331 325.147 21.4033 315.157 15.6357C305.167 9.868 292.303 13.4465 286.424 23.6285C280.546 33.8105 283.879 46.7403 293.868 52.5079Z" fill="#B4BCF6"/>
<path d="M284.006 39.1929C284.006 39.1929 287.426 36.8321 291.611 30.306C293.847 26.8209 294.727 25.2813 296.395 21.7641C297.287 19.8895 298.857 17.1595 300.175 17.2736C303.379 17.5472 302.392 24.6201 307.231 26.5055C311.087 28.0111 313.793 21.3363 316.387 22.3536C320.062 23.795 318.566 42.2995 313.654 53.0367C313.654 53.0367 305.483 57.5971 296.287 53.6981C288.308 50.3172 285.156 43.977 284.006 39.1929Z" fill="white"/>
<path d="M293.82 38.1898C294.173 38.3938 294.563 38.525 294.968 38.5758C295.373 38.6266 295.786 38.5962 296.182 38.4861C296.579 38.376 296.951 38.1885 297.278 37.9344C297.605 37.6802 297.88 37.3643 298.087 37.0047C298.506 36.2783 298.624 35.4186 298.417 34.6145C298.209 33.8104 297.692 33.1277 296.98 32.7165C296.268 32.306 295.418 32.2005 294.619 32.4229C293.819 32.6454 293.134 33.1777 292.715 33.903C292.296 34.6288 292.177 35.4882 292.384 36.2921C292.591 37.096 293.108 37.7787 293.82 38.1898Z" fill="#EF4357"/>
<path d="M309.299 44.0009C310.011 44.4113 310.86 44.5169 311.66 44.2945C312.46 44.072 313.144 43.5397 313.564 42.8145C313.771 42.4551 313.907 42.0591 313.964 41.6492C314.021 41.2392 313.997 40.8234 313.895 40.4253C313.792 40.0272 313.612 39.6547 313.366 39.3291C313.12 39.0035 312.811 38.7312 312.459 38.5276C312.106 38.3236 311.716 38.1924 311.311 38.1416C310.905 38.0907 310.493 38.1212 310.096 38.2313C309.7 38.3414 309.328 38.5289 309.001 38.7831C308.674 39.0372 308.399 39.3532 308.191 39.7127C307.773 40.4391 307.654 41.2988 307.862 42.1029C308.07 42.907 308.586 43.5897 309.299 44.0009Z" fill="#EF4357"/>
<path d="M283.169 40.2091C283.072 40.153 282.989 40.0764 282.924 39.9845C282.864 39.8994 282.822 39.8028 282.799 39.7004C282.777 39.598 282.774 39.4918 282.793 39.3879C282.811 39.284 282.85 39.1845 282.906 39.0951C282.963 39.0057 283.036 38.9282 283.122 38.8671C283.169 38.8327 286.816 36.1316 290.851 29.8488C293.012 26.4775 293.894 24.9605 295.585 21.3981C297.199 17.9911 298.738 16.3242 300.155 16.4459C302.129 16.6158 302.861 18.6027 303.569 20.5264C304.35 22.6491 305.161 24.8329 307.423 25.7293C308.969 26.3324 310.273 25.2776 312.087 23.5965C313.498 22.2928 314.955 20.9415 316.579 21.5714C317.291 21.8501 317.862 22.5248 318.276 23.5766C320.252 28.6098 318.808 43.6338 314.368 53.3441C314.324 53.4399 314.262 53.5263 314.186 53.5985C314.11 53.6707 314.02 53.7272 313.923 53.7647C313.825 53.8023 313.722 53.8202 313.618 53.8174C313.514 53.8146 313.413 53.7911 313.319 53.7484C313.129 53.6622 312.983 53.5031 312.911 53.306C312.84 53.1088 312.849 52.8898 312.938 52.6971C317.114 43.5642 318.655 28.9009 316.811 24.1839C316.564 23.5643 316.275 23.1662 315.987 23.0524C315.275 22.7736 314.238 23.7365 313.138 24.7519C311.476 26.2923 309.405 28.2098 306.834 27.2056C303.917 26.0668 302.899 23.3084 302.092 21.0808C301.412 19.2287 300.945 18.0908 299.992 18.0207C299.593 17.9843 298.427 19.0511 297.004 22.0541C295.276 25.6966 294.372 27.247 292.169 30.6862C287.95 37.2663 284.182 40.0301 284.021 40.1466C283.898 40.2383 283.753 40.2929 283.602 40.304C283.451 40.315 283.301 40.2821 283.169 40.2091Z" fill="#626262"/>
<path d="M291.024 35.079C290.957 35.0403 290.904 34.9827 290.87 34.9134C290.836 34.844 290.823 34.7657 290.833 34.6883C290.839 34.6354 290.855 34.5841 290.881 34.5374C290.907 34.4907 290.941 34.4495 290.983 34.4161C291.024 34.3827 291.072 34.3579 291.122 34.3431C291.173 34.3283 291.226 34.3237 291.278 34.3297L294.616 34.7174L292.141 32.5155C292.103 32.4812 292.072 32.4394 292.049 32.3926C292.027 32.3457 292.014 32.2948 292.011 32.2426C292.009 32.1905 292.016 32.1381 292.033 32.0885C292.051 32.039 292.078 31.9931 292.112 31.9537C292.147 31.914 292.189 31.8814 292.235 31.8579C292.282 31.8344 292.333 31.8205 292.385 31.8169C292.436 31.8133 292.488 31.8201 292.537 31.837C292.586 31.8538 292.631 31.8804 292.669 31.9151L296.077 34.9508C296.139 35.0067 296.182 35.0816 296.2 35.1647C296.217 35.2477 296.207 35.3345 296.173 35.4126C296.137 35.49 296.079 35.5544 296.005 35.5967C295.932 35.6391 295.848 35.6571 295.765 35.6482L291.158 35.1443C291.11 35.1313 291.064 35.1092 291.024 35.079Z" fill="#626262"/>
<path d="M313.983 43.8438L313.965 43.8333L310.1 41.3126C310.03 41.2664 309.977 41.199 309.949 41.1199C309.92 41.0408 309.917 40.9541 309.94 40.8724C309.964 40.7903 310.012 40.7175 310.079 40.6647C310.146 40.6119 310.228 40.5819 310.312 40.579L314.893 40.4095C314.945 40.4074 314.997 40.4156 315.045 40.4338C315.094 40.452 315.138 40.4797 315.176 40.5154C315.213 40.5511 315.243 40.594 315.264 40.6417C315.285 40.6895 315.296 40.741 315.297 40.7934C315.299 40.8987 315.259 41.0012 315.187 41.0783C315.115 41.1555 315.016 41.2011 314.911 41.2051L311.589 41.3286L314.401 43.1615C314.488 43.2188 314.548 43.3087 314.569 43.4118C314.59 43.515 314.569 43.6229 314.512 43.7121C314.456 43.7976 314.37 43.8587 314.272 43.8832C314.173 43.9077 314.07 43.8936 313.983 43.8438Z" fill="#626262"/>
<path d="M301.975 40.0773C301.405 39.7801 300.953 39.299 300.688 38.7092C300.423 38.1195 300.361 37.4545 300.512 36.8185C300.526 36.7501 300.554 36.6849 300.593 36.6268C300.633 36.5687 300.683 36.5189 300.741 36.48C300.799 36.4412 300.864 36.4141 300.932 36.4005C301 36.3868 301.069 36.3868 301.137 36.4004C301.205 36.4139 301.269 36.4407 301.326 36.4794C301.382 36.5181 301.431 36.5678 301.469 36.6258C301.506 36.6838 301.532 36.7489 301.544 36.8173C301.557 36.8857 301.555 36.9562 301.541 37.0246C301.304 38.1198 301.854 38.973 303.035 39.3928C304.215 39.8127 305.17 39.4772 305.711 38.4932C305.782 38.3707 305.897 38.2808 306.032 38.2432C306.167 38.2057 306.311 38.2235 306.431 38.2929C306.551 38.3623 306.638 38.4775 306.673 38.6132C306.708 38.7489 306.688 38.8939 306.618 39.0164C305.823 40.4607 304.305 40.9974 302.654 40.4233C302.418 40.3286 302.19 40.2128 301.975 40.0773Z" fill="#626262"/>
<path d="M296.777 31.5887C296.741 31.5731 296.708 31.5538 296.677 31.5312C296.575 31.4365 296.516 31.3044 296.511 31.1639C296.507 31.0233 296.558 30.8859 296.653 30.7817C297.452 29.9217 299.577 29.1039 301.253 29.7424C302.93 30.3809 303.82 32.4558 303.561 33.501C303.526 33.638 303.44 33.7566 303.32 33.8306C303.2 33.9047 303.057 33.9281 302.922 33.8958C302.787 33.8637 302.671 33.7788 302.599 33.6595C302.528 33.5403 302.506 33.3965 302.54 33.2596C302.668 32.7452 302.082 31.1966 300.87 30.737C299.658 30.2775 297.984 30.8787 297.412 31.4935C297.33 31.5776 297.223 31.6325 297.108 31.6497C296.994 31.667 296.877 31.6455 296.777 31.5887Z" fill="#626262"/>
<path d="M306.497 35.1535C306.455 35.1287 306.417 35.0982 306.383 35.063C306.336 35.0135 306.298 34.9547 306.273 34.8901C306.248 34.8255 306.236 34.7564 306.238 34.6867C306.239 34.6169 306.254 34.5479 306.282 34.4837C306.31 34.4194 306.35 34.3611 306.4 34.3121C307.111 33.6046 308.793 32.5899 310.523 33.2467C312.095 33.8464 313.184 35.7842 313.069 37.057C313.062 37.1269 313.041 37.1949 313.008 37.2571C312.975 37.3193 312.93 37.3745 312.876 37.4194C312.822 37.4644 312.76 37.4982 312.693 37.519C312.627 37.5398 312.557 37.5471 312.488 37.5405C312.418 37.5348 312.351 37.5153 312.289 37.4829C312.228 37.4506 312.174 37.4061 312.13 37.3521C312.086 37.2981 312.053 37.2357 312.034 37.1684C312.014 37.1011 312.008 37.0304 312.016 36.9603C312.084 36.193 311.307 34.6724 310.133 34.2255C308.893 33.7562 307.622 34.5616 307.121 35.0517C307.041 35.1342 306.937 35.1888 306.824 35.2071C306.712 35.2255 306.597 35.2067 306.497 35.1535Z" fill="#626262"/>
<path d="M307.994 38.219C307.045 37.6692 306.356 36.7587 306.078 35.6865C305.799 34.6143 305.955 33.4675 306.51 32.4966C307.071 31.5269 307.987 30.8152 309.056 30.5177C310.126 30.2202 311.262 30.3612 312.214 30.9097C313.166 31.4606 313.856 32.3736 314.133 33.4485C314.41 34.5234 314.252 35.6724 313.692 36.6436C313.129 37.6096 312.214 38.3175 311.146 38.6127C310.078 38.9079 308.945 38.7664 307.994 38.219ZM311.554 32.0528C311.23 31.8666 310.872 31.7472 310.5 31.7016C310.128 31.656 309.75 31.685 309.386 31.7869C309.023 31.8889 308.682 32.0619 308.383 32.2959C308.084 32.5299 307.832 32.8203 307.643 33.1507C307.26 33.8156 307.152 34.602 307.342 35.3377C307.531 36.0734 308.003 36.6984 308.654 37.0758C309.307 37.4508 310.084 37.5471 310.816 37.3434C311.548 37.1398 312.175 36.653 312.56 35.9895C312.751 35.6601 312.877 35.297 312.93 34.9209C312.983 34.5448 312.962 34.163 312.869 33.7974C312.775 33.4318 312.611 33.0895 312.386 32.7902C312.16 32.4908 311.878 32.2403 311.554 32.0528Z" fill="#B4BCF6"/>
<path d="M298.441 34.7628C297.489 34.2118 296.8 33.2988 296.522 32.2239C296.245 31.149 296.404 30 296.963 29.0288C297.524 28.0591 298.44 27.3475 299.51 27.05C300.579 26.7525 301.715 26.8934 302.668 27.4419C303.62 27.9924 304.31 28.9055 304.588 29.9808C304.865 31.056 304.707 32.2056 304.148 33.1771C303.586 34.1473 302.67 34.8591 301.6 35.1564C300.53 35.4536 299.394 35.3121 298.441 34.7628ZM302.001 28.5966C301.349 28.2216 300.571 28.1254 299.839 28.329C299.107 28.5326 298.48 29.0194 298.096 29.6829C297.713 30.3477 297.604 31.1343 297.794 31.8702C297.984 32.6061 298.456 33.2311 299.108 33.608C299.76 33.9846 300.538 34.0819 301.27 33.8784C302.003 33.675 302.631 33.1874 303.015 32.523C303.397 31.8577 303.505 31.0708 303.315 30.3348C303.125 29.5987 302.653 28.9737 302.001 28.5966Z" fill="#B4BCF6"/>
<path d="M303.745 31.8392C303.662 31.7919 303.591 31.7265 303.537 31.6478C303.483 31.5691 303.446 31.4789 303.431 31.3838C303.416 31.2982 303.418 31.2102 303.437 31.1249C303.457 31.0396 303.492 30.9586 303.542 30.8867C303.592 30.8148 303.655 30.7533 303.728 30.7059C303.802 30.6584 303.883 30.6258 303.968 30.6101C304.938 30.4274 305.934 30.5958 306.781 31.0856C307.151 31.2991 307.485 31.5689 307.773 31.8858C307.889 32.015 307.948 32.1862 307.939 32.3619C307.929 32.5376 307.851 32.7034 307.721 32.8229C307.657 32.8823 307.582 32.9285 307.5 32.959C307.419 32.9894 307.333 33.0034 307.246 33.0002C307.16 32.9971 307.076 32.9767 306.998 32.9404C306.92 32.904 306.85 32.8525 306.792 32.7885C306.596 32.571 306.368 32.3861 306.115 32.2404C305.534 31.9057 304.852 31.79 304.189 31.9135C304.036 31.9431 303.878 31.9168 303.745 31.8392Z" fill="#B4BCF6"/>
<path d="M313.751 35.3808C313.62 35.3058 313.52 35.1868 313.467 35.0441C313.415 34.9014 313.413 34.7439 313.463 34.5984C313.522 34.4324 313.644 34.2959 313.802 34.219C313.96 34.1421 314.14 34.1309 314.304 34.188L315.249 34.5241C315.33 34.5525 315.404 34.5968 315.467 34.6545C315.53 34.7122 315.582 34.7821 315.618 34.8602C315.654 34.9383 315.675 35.0232 315.678 35.1098C315.682 35.1965 315.669 35.2833 315.639 35.3654C315.58 35.5314 315.457 35.6679 315.3 35.7448C315.142 35.8217 314.962 35.8329 314.798 35.7758L313.853 35.4397C313.817 35.4235 313.783 35.4038 313.751 35.3808Z" fill="#B4BCF6"/>
<path d="M295.881 29.0639C295.75 28.9886 295.65 28.8695 295.598 28.7269C295.545 28.5844 295.543 28.427 295.592 28.2815C295.652 28.1155 295.774 27.9791 295.932 27.9021C296.089 27.8252 296.27 27.8141 296.433 27.8711L297.645 28.2997C297.726 28.3282 297.8 28.3725 297.864 28.4301C297.927 28.4878 297.978 28.5577 298.014 28.6358C298.051 28.7139 298.071 28.7988 298.075 28.8854C298.079 28.9721 298.065 29.059 298.036 29.141C297.976 29.307 297.854 29.4435 297.696 29.5204C297.539 29.5974 297.358 29.6085 297.194 29.5514L295.983 29.1228C295.947 29.1066 295.913 29.0869 295.881 29.0639Z" fill="#B4BCF6"/>
</g>
<circle cx="303.468" cy="33.4676" r="23.75" transform="rotate(30 303.468 33.4676)" stroke="#626262" stroke-width="1.5"/>
<g clip-path="url(#clip1_3670_1761)">
<path d="M96.953 202.861C106.239 200.373 111.66 190.494 109.061 180.795C106.462 171.097 96.8281 165.252 87.5421 167.74C78.2562 170.228 72.8352 180.107 75.4339 189.806C78.0327 199.504 87.6671 205.35 96.953 202.861Z" fill="#B4BCF6"/>
<path d="M83.2585 200.695C83.2585 200.695 83.8629 197.214 82.4418 190.748C81.6835 187.294 81.2852 185.833 80.1748 182.7C79.5847 181.028 78.8844 178.432 79.7253 177.711C81.7676 175.957 85.3894 180.838 89.3479 179.082C92.504 177.685 90.127 172.015 92.2528 171.077C95.265 169.749 105.377 181.87 108.873 191.326C108.873 191.326 106.788 198.988 99.0778 202.134C92.3894 204.865 86.7747 202.908 83.2585 200.695Z" fill="white"/>
<path d="M88.4221 194.205C88.7501 194.118 89.0569 193.964 89.3248 193.752C89.5928 193.539 89.8168 193.274 89.9839 192.969C90.151 192.665 90.258 192.328 90.2988 191.978C90.3396 191.628 90.3133 191.272 90.2215 190.929C90.0357 190.238 89.5946 189.645 88.9952 189.282C88.3959 188.919 87.6873 188.814 87.0251 188.992C86.3635 189.17 85.8027 189.615 85.4657 190.229C85.1287 190.843 85.0431 191.576 85.2278 192.267C85.413 192.959 85.8536 193.551 86.4527 193.915C87.0517 194.278 87.7602 194.383 88.4221 194.205Z" fill="#EF4357"/>
<path d="M100.953 188.454C101.615 188.276 102.176 187.832 102.513 187.217C102.85 186.603 102.935 185.87 102.751 185.179C102.659 184.837 102.504 184.515 102.294 184.232C102.083 183.95 101.823 183.711 101.526 183.531C101.229 183.351 100.903 183.233 100.565 183.183C100.227 183.133 99.8843 183.153 99.5565 183.241C99.2285 183.328 98.9217 183.483 98.6538 183.695C98.3858 183.907 98.1618 184.173 97.9947 184.477C97.8276 184.781 97.7206 185.118 97.6798 185.468C97.639 185.818 97.6653 186.174 97.7571 186.517C97.9429 187.208 98.384 187.801 98.9834 188.164C99.5827 188.527 100.291 188.632 100.953 188.454Z" fill="#EF4357"/>
<path d="M83.372 201.814C83.2818 201.838 83.1874 201.841 83.0949 201.824C83.0092 201.808 82.9269 201.775 82.8529 201.727C82.7788 201.678 82.7145 201.615 82.6636 201.541C82.6127 201.467 82.5762 201.383 82.5562 201.295C82.5363 201.207 82.5333 201.116 82.5474 201.028C82.5546 200.979 83.0899 197.155 81.7256 190.926C80.9909 187.586 80.6073 186.137 79.4836 182.963C78.4067 179.93 78.3198 177.996 79.2228 177.221C80.482 176.141 82.0914 176.908 83.6493 177.65C85.3679 178.47 87.1411 179.308 89.0004 178.496C90.2655 177.936 90.4039 176.515 90.4693 174.408C90.523 172.772 90.5751 171.079 91.902 170.488C92.4853 170.23 93.2211 170.297 94.0886 170.687C98.2372 172.556 106.313 182.534 109.475 191.085C109.507 191.169 109.522 191.258 109.52 191.348C109.518 191.437 109.499 191.525 109.464 191.606C109.429 191.687 109.379 191.76 109.317 191.821C109.254 191.881 109.181 191.928 109.1 191.958C108.938 192.02 108.757 192.011 108.598 191.934C108.439 191.857 108.315 191.719 108.252 191.549C105.278 183.507 97.4732 173.689 93.5896 171.934C93.077 171.705 92.6706 171.638 92.4342 171.741C91.8508 171.999 91.8148 173.204 91.7727 174.479C91.7121 176.409 91.6361 178.813 89.5314 179.745C87.1441 180.802 84.9088 179.739 83.1121 178.872C81.6132 178.156 80.6635 177.745 80.0625 178.274C79.8069 178.491 79.7566 179.837 80.7056 182.511C81.855 185.756 82.2454 187.238 82.9956 190.644C84.4287 197.164 83.8598 201.098 83.8346 201.265C83.8172 201.394 83.7643 201.514 83.6823 201.612C83.6003 201.709 83.4926 201.779 83.372 201.814Z" fill="#626262"/>
<path d="M84.9336 193.994C84.8717 194.01 84.8062 194.008 84.745 193.986C84.6839 193.964 84.6298 193.925 84.5893 193.872C84.5615 193.836 84.5407 193.795 84.528 193.751C84.5154 193.708 84.5112 193.662 84.5157 193.617C84.5202 193.572 84.5333 193.528 84.5543 193.489C84.5753 193.449 84.6036 193.415 84.6378 193.387L86.8263 191.622L84.0667 191.77C84.0237 191.772 83.9805 191.765 83.9396 191.75C83.8987 191.735 83.8609 191.712 83.8284 191.682C83.7958 191.652 83.7691 191.616 83.7498 191.575C83.7305 191.535 83.719 191.491 83.7159 191.446C83.7125 191.402 83.7177 191.357 83.7312 191.314C83.7447 191.272 83.7662 191.233 83.7945 191.2C83.8227 191.167 83.8572 191.14 83.8959 191.121C83.9346 191.102 83.9767 191.091 84.0197 191.089L87.8216 190.888C87.8916 190.885 87.9614 190.904 88.0208 190.944C88.0802 190.985 88.1262 191.043 88.1522 191.111C88.1774 191.179 88.1813 191.253 88.1635 191.323C88.1456 191.393 88.1069 191.454 88.0528 191.498L85.0513 193.953C85.0151 193.974 84.9751 193.988 84.9336 193.994Z" fill="#626262"/>
<path d="M103.606 185.553L103.589 185.558L99.8248 186.345C99.7566 186.358 99.6855 186.349 99.6217 186.318C99.5579 186.288 99.5047 186.237 99.4697 186.173C99.4347 186.109 99.4201 186.036 99.4279 185.964C99.4358 185.892 99.4658 185.825 99.5135 185.773L102.1 182.924C102.13 182.892 102.165 182.866 102.204 182.848C102.243 182.83 102.286 182.82 102.329 182.819C102.372 182.819 102.415 182.827 102.456 182.843C102.496 182.86 102.534 182.884 102.565 182.915C102.629 182.978 102.666 183.064 102.67 183.154C102.673 183.244 102.642 183.331 102.583 183.396L100.708 185.462L103.446 184.889C103.531 184.871 103.62 184.89 103.693 184.94C103.767 184.99 103.819 185.068 103.838 185.156C103.856 185.242 103.842 185.33 103.799 185.404C103.756 185.478 103.687 185.531 103.606 185.553Z" fill="#626262"/>
<path d="M94.3258 190.463C93.8153 190.624 93.264 190.604 92.7584 190.405C92.2529 190.206 91.8216 189.839 91.5321 189.364C91.4999 189.313 91.4775 189.257 91.466 189.198C91.4545 189.14 91.4543 189.079 91.4653 189.021C91.4763 188.963 91.4983 188.907 91.5301 188.858C91.5619 188.809 91.6028 188.768 91.6505 188.735C91.6981 188.703 91.7517 188.681 91.808 188.67C91.8644 188.66 91.9224 188.661 91.9789 188.673C92.0353 188.686 92.0891 188.71 92.137 188.744C92.1849 188.778 92.2261 188.822 92.2582 188.872C92.7699 189.678 93.5991 189.866 94.541 189.413C95.4829 188.96 95.8439 188.185 95.5768 187.264C95.5455 187.147 95.5599 187.023 95.6168 186.919C95.6737 186.816 95.7684 186.741 95.8801 186.711C95.9919 186.681 96.1114 186.698 96.2125 186.76C96.3136 186.821 96.388 186.921 96.4193 187.038C96.8109 188.39 96.239 189.625 94.9298 190.266C94.7349 190.35 94.5327 190.416 94.3258 190.463Z" fill="#626262"/>
<path d="M86.2348 188.43C86.2049 188.442 86.1738 188.45 86.1421 188.455C86.0263 188.458 85.9129 188.414 85.8269 188.331C85.7408 188.249 85.6891 188.135 85.6832 188.014C85.6409 187.014 86.4016 185.245 87.7645 184.627C89.1273 184.01 90.8815 184.735 91.3503 185.524C91.4116 185.628 91.4312 185.752 91.4049 185.869C91.3786 185.985 91.3085 186.085 91.21 186.147C91.1118 186.208 90.9933 186.226 90.8805 186.197C90.7677 186.167 90.6698 186.093 90.6081 185.99C90.3776 185.601 89.1139 185.013 88.13 185.461C87.146 185.908 86.5214 187.276 86.5507 187.992C86.5527 188.092 86.5228 188.189 86.4656 188.268C86.4085 188.348 86.3273 188.404 86.2348 188.43Z" fill="#626262"/>
<path d="M94.0555 184.767C94.0162 184.777 93.9756 184.781 93.9349 184.78C93.8775 184.779 93.8206 184.766 93.7676 184.741C93.7145 184.717 93.6664 184.682 93.6259 184.639C93.5854 184.596 93.5533 184.545 93.5315 184.489C93.5096 184.434 93.4985 184.374 93.4987 184.315C93.4954 183.46 93.8797 181.836 95.2844 181.198C96.5629 180.62 98.353 181.142 99.0412 181.983C99.0786 182.03 99.1068 182.083 99.1244 182.141C99.1419 182.199 99.1484 182.259 99.1434 182.319C99.1383 182.378 99.122 182.436 99.0952 182.489C99.0684 182.541 99.0318 182.587 98.9874 182.625C98.9433 182.663 98.8921 182.691 98.8368 182.709C98.7816 182.726 98.7234 182.731 98.6655 182.725C98.6077 182.719 98.5515 182.7 98.5 182.671C98.4486 182.642 98.4031 182.603 98.3661 182.555C97.9505 182.049 96.5911 181.593 95.637 182.025C94.6311 182.483 94.3635 183.734 94.3609 184.331C94.3629 184.429 94.3342 184.525 94.2791 184.603C94.2241 184.682 94.1456 184.739 94.0555 184.767Z" fill="#626262"/>
<path d="M96.7527 185.729C95.8692 185.965 94.9242 185.826 94.1241 185.342C93.3241 184.858 92.7341 184.07 92.4831 183.148C92.2365 182.224 92.3511 181.243 92.8018 180.422C93.2525 179.6 94.0024 179.005 94.8871 178.767C95.7725 178.531 96.7194 178.672 97.5204 179.157C98.3213 179.643 98.9109 180.435 99.1597 181.359C99.4029 182.283 99.2863 183.261 98.8353 184.08C98.3843 184.899 97.6356 185.492 96.7527 185.729ZM95.1789 179.856C94.8782 179.937 94.5972 180.079 94.3519 180.275C94.1066 180.47 93.9018 180.714 93.7492 180.994C93.5966 181.273 93.4993 181.583 93.4628 181.904C93.4262 182.225 93.4511 182.552 93.5362 182.866C93.7068 183.498 94.1104 184.04 94.6586 184.373C95.2068 184.705 95.8549 184.802 96.4609 184.641C97.0663 184.477 97.5794 184.07 97.8879 183.508C98.1963 182.945 98.275 182.274 98.1066 181.641C98.0232 181.327 97.8813 181.031 97.6891 180.772C97.4968 180.512 97.2579 180.292 96.986 180.127C96.7141 179.961 96.4145 179.852 96.1045 179.805C95.7944 179.759 95.4799 179.776 95.1789 179.856Z" fill="#B4BCF6"/>
<path d="M89.0955 189.359C88.2101 189.595 87.2631 189.454 86.4622 188.969C85.6612 188.483 85.0717 187.691 84.8229 186.767C84.5764 185.842 84.691 184.862 85.1417 184.04C85.5923 183.219 86.3423 182.624 87.227 182.386C88.1125 182.149 89.06 182.289 89.8614 182.775C90.6628 183.261 91.2527 184.053 91.5016 184.977C91.7483 185.902 91.6335 186.883 91.1824 187.705C90.7312 188.526 89.9807 189.121 89.0955 189.359ZM87.5217 183.485C86.9163 183.649 86.4031 184.056 86.0947 184.618C85.7862 185.181 85.7076 185.852 85.876 186.485C86.0461 187.117 86.4497 187.659 86.998 187.992C87.5463 188.325 88.1947 188.421 88.8008 188.259C89.407 188.097 89.9211 187.689 90.2301 187.127C90.5391 186.564 90.6176 185.893 90.4485 185.259C90.2778 184.627 89.8738 184.085 89.3252 183.752C88.7765 183.419 88.1279 183.324 87.5217 183.485Z" fill="#B4BCF6"/>
<path d="M90.4715 184.407C90.3948 184.428 90.3143 184.431 90.2357 184.415C90.1571 184.4 90.0823 184.367 90.0167 184.319C89.9572 184.276 89.9063 184.221 89.8668 184.158C89.8273 184.095 89.8001 184.024 89.7867 183.951C89.7732 183.877 89.7739 183.802 89.7886 183.729C89.8034 183.657 89.8318 183.588 89.8724 183.528C90.3326 182.836 91.0172 182.341 91.8051 182.13C92.1487 182.038 92.5051 182.002 92.8618 182.022C93.0066 182.03 93.1433 182.098 93.242 182.211C93.3407 182.323 93.3932 182.471 93.3881 182.621C93.3857 182.695 93.3692 182.768 93.3395 182.836C93.3098 182.903 93.2675 182.963 93.215 183.013C93.1625 183.063 93.1008 183.101 93.0335 183.126C92.9662 183.15 92.8946 183.161 92.8228 183.157C92.5788 183.142 92.3349 183.167 92.0998 183.23C91.5606 183.375 91.0919 183.713 90.7758 184.186C90.7038 184.296 90.5958 184.374 90.4715 184.407Z" fill="#B4BCF6"/>
<path d="M98.4445 180.559C98.3232 180.592 98.1936 180.58 98.078 180.525C97.9624 180.469 97.8679 180.375 97.8106 180.257C97.747 180.12 97.7376 179.965 97.7844 179.823C97.8312 179.682 97.9304 179.567 98.0603 179.504L98.8143 179.142C98.8786 179.11 98.9484 179.093 99.0198 179.09C99.0912 179.087 99.1628 179.098 99.2305 179.124C99.2982 179.15 99.3606 179.189 99.4142 179.239C99.4678 179.29 99.5116 179.35 99.543 179.418C99.6066 179.554 99.616 179.71 99.5692 179.851C99.5224 179.993 99.4231 180.107 99.2932 180.171L98.5393 180.533C98.5087 180.545 98.4769 180.553 98.4445 180.559Z" fill="#B4BCF6"/>
<path d="M84.2102 187.435C84.0888 187.468 83.9594 187.456 83.8439 187.401C83.7284 187.346 83.6339 187.251 83.5763 187.134C83.5127 186.997 83.5033 186.841 83.5501 186.7C83.5969 186.559 83.6961 186.444 83.826 186.381L84.7914 185.914C84.8557 185.883 84.9256 185.866 84.997 185.863C85.0684 185.86 85.14 185.871 85.2076 185.897C85.2753 185.923 85.3377 185.962 85.3914 186.012C85.445 186.063 85.4887 186.123 85.5201 186.191C85.5837 186.327 85.5932 186.483 85.5463 186.624C85.4995 186.765 85.4003 186.88 85.2704 186.944L84.305 187.41C84.2743 187.422 84.2426 187.43 84.2102 187.435Z" fill="#B4BCF6"/>
</g>
<circle cx="91.4998" cy="185.5" r="19.75" transform="rotate(-15 91.4998 185.5)" stroke="#626262" stroke-width="1.5"/>
<defs>
<linearGradient id="paint0_linear_3670_1761" x1="316.088" y1="251.5" x2="316.088" y2="87.5" gradientUnits="userSpaceOnUse">
<stop stop-color="#B4BCF6"/>
<stop offset="0.515625" stop-color="#0DE4E0"/>
<stop offset="1" stop-color="#FCED93"/>
</linearGradient>
<linearGradient id="paint1_linear_3670_1761" x1="228.67" y1="85.2627" x2="183.676" y2="81.5941" gradientUnits="userSpaceOnUse">
<stop stop-color="#B4BCF6"/>
<stop offset="0.515625" stop-color="#0DE4E0"/>
<stop offset="1" stop-color="#FADB28"/>
</linearGradient>
<linearGradient id="paint2_linear_3670_1761" x1="228.67" y1="85.2627" x2="183.676" y2="81.5941" gradientUnits="userSpaceOnUse">
<stop stop-color="#B4BCF6"/>
<stop offset="0.515625" stop-color="#0DE4E0"/>
<stop offset="1" stop-color="#FADB28"/>
</linearGradient>
<linearGradient id="paint3_linear_3670_1761" x1="228.67" y1="85.2627" x2="183.676" y2="81.5941" gradientUnits="userSpaceOnUse">
<stop stop-color="#B4BCF6"/>
<stop offset="0.515625" stop-color="#0DE4E0"/>
<stop offset="1" stop-color="#FADB28"/>
</linearGradient>
<linearGradient id="paint4_linear_3670_1761" x1="228.67" y1="85.2627" x2="183.676" y2="81.5941" gradientUnits="userSpaceOnUse">
<stop stop-color="#B4BCF6"/>
<stop offset="0.515625" stop-color="#0DE4E0"/>
<stop offset="1" stop-color="#FADB28"/>
</linearGradient>
<linearGradient id="paint5_linear_3670_1761" x1="228.67" y1="85.2627" x2="183.676" y2="81.5941" gradientUnits="userSpaceOnUse">
<stop stop-color="#B4BCF6"/>
<stop offset="0.515625" stop-color="#0DE4E0"/>
<stop offset="1" stop-color="#FADB28"/>
</linearGradient>
<clipPath id="clip0_3670_1761">
<rect width="41.7705" height="42.5738" fill="white" transform="translate(297.068 5.19238) rotate(30)"/>
</clipPath>
<clipPath id="clip1_3670_1761">
<rect width="34.8113" height="36.3585" fill="white" transform="translate(70.7285 172.245) rotate(-15)"/>
</clipPath>
</defs>
</svg>
